<svg width="136" height="136" viewBox="0 0 136 136" fill="none" xmlns="http://www.w3.org/2000/svg">
<path d="M104.688 62.2087C83.9118 67.5558 67.5529 83.9146 62.2059 104.691C60.9912 109.415 60.3441 114.368 60.3441 119.473H75.1265C75.1265 114.291 76.0147 109.315 77.65 104.691C82.1029 92.091 92.0882 82.1058 104.688 77.6528C109.312 76.0175 114.288 75.1293 119.471 75.1293V60.3469C114.368 60.344 109.415 60.991 104.688 62.2087Z" fill="#A5E547"/>
<path d="M77.65 30.7824C76.0147 26.1588 75.1265 21.1824 75.1265 16H60.3441C60.3441 21.1824 59.4559 26.1588 57.8206 30.7824C53.3676 43.3823 43.3823 53.3676 30.7824 57.8206C26.1588 59.4559 21.1824 60.3441 16 60.3441V75.1265C21.1824 75.1265 26.1588 76.0147 30.7824 77.65C42.4971 81.7912 51.9471 90.7176 56.7971 102.076C58.4676 96.0441 60.9647 90.3676 64.1765 85.1853C59.0588 78.0088 52.3735 72.0324 44.6265 67.7382C54.3294 62.3588 62.3588 54.3294 67.7382 44.6265C72.0353 52.3735 78.0088 59.0588 85.1853 64.1765C90.3676 60.9647 96.0441 58.4676 102.076 56.7971C90.7176 51.9441 81.7912 42.4971 77.65 30.7824Z" fill="#F6F6F6"/>
</svg>
