<svg fill="none" height="444" width="514" xmlns="http://www.w3.org/2000/svg"><linearGradient id="a" gradientUnits="userSpaceOnUse" x1="3.511" x2="510.056" y1="195.133" y2="195.133"><stop offset="0" stop-color="#faf1e7"/><stop offset=".26" stop-color="#fdceaa"/><stop offset=".612" stop-color="#f4837d"/><stop offset="1" stop-color="#b9aafd"/></linearGradient><g stroke="#131620" stroke-linejoin="round" stroke-width="3"><path d="M45.72 333.219l211.061-213.22 211.063 213.22L362.311 439.83 256.78 333.22 151.25 439.829z" fill="#faf1e7"/><path d="M256.782 333.216L151.25 439.84l-21.106-52.797 126.638-127.932z" fill="#131620"/><path d="M45.705 333.194l105.543 106.613-21.105-52.764L3.505 259.111zm211.075.022L362.312 439.84l21.105-52.797L256.78 259.111z" fill="#faf1e7"/><path d="M467.856 333.194L362.313 439.807l21.106-52.764 126.637-127.932z" fill="#131620"/><path d="M3.507 259.101L256.78 3.237l253.275 255.864-126.639 127.933L256.78 259.102 130.144 387.033z" fill="url(#a)"/></g></svg>