<?xml version="1.0" encoding="UTF-8"?>
<svg xmlns="http://www.w3.org/2000/svg" xmlns:xlink="http://www.w3.org/1999/xlink" width="500px" height="500px" viewBox="0 0 500 500" version="1.1">
<defs>
<clipPath id="clip1">
  <path d="M 95 241 L 495.097656 241 L 495.097656 495.238281 L 95 495.238281 Z M 95 241 "/>
</clipPath>
<clipPath id="clip2">
  <path d="M 4.902344 4.757812 L 404 4.757812 L 404 242 L 4.902344 242 Z M 4.902344 4.757812 "/>
</clipPath>
</defs>
<g id="surface1">
<g clip-path="url(#clip1)" clip-rule="nonzero">
<path style=" stroke:none;fill-rule:evenodd;fill:rgb(23.921569%,16.862745%,56.862745%);fill-opacity:1;" d="M 358.679688 241.609375 C 397.273438 254.882812 421.21875 283.355469 421.21875 323.667969 C 421.21875 381.054688 372.359375 414.757812 280.480469 414.757812 L 95.710938 414.757812 L 95.710938 495.238281 L 377.035156 495.238281 C 442.246094 495.210938 495.097656 443.898438 495.097656 380.609375 L 495.097656 241.609375 Z M 191.503906 279.75 L 191.503906 347.105469 L 272.855469 347.105469 C 306.054688 347.105469 323.699219 336.199219 323.699219 313.402344 C 323.699219 290.65625 306.105469 279.75 272.855469 279.75 Z M 191.503906 279.75 "/>
</g>
<g clip-path="url(#clip2)" clip-rule="nonzero">
<path style=" stroke:none;fill-rule:evenodd;fill:rgb(21.960784%,71.372549%,100%);fill-opacity:1;" d="M 4.902344 4.757812 L 4.902344 241.609375 L 95.710938 241.609375 L 95.710938 82.867188 L 270.667969 82.867188 C 354.410156 82.867188 398.339844 113.707031 403.984375 159.351562 L 403.984375 119.382812 C 403.984375 56.097656 351.132812 4.785156 285.921875 4.757812 Z M 191.503906 150.71875 L 191.503906 214.863281 L 257.957031 214.863281 C 290.242188 214.863281 306.871094 203.910156 306.871094 182.59375 C 306.871094 161.71875 290.242188 150.816406 257.957031 150.816406 L 191.503906 150.816406 Z M 191.503906 150.71875 "/>
</g>
</g>
</svg>
