<svg width="189" height="34" viewBox="0 0 189 34" fill="none" xmlns="http://www.w3.org/2000/svg">
<g id="Logo" clip-path="url(#clip0_1_709)">
<path id="Vector" d="M21.0784 25.2625H14.8701C14.5756 25.2625 14.2811 25.0934 14.1339 24.8518L9.7905 17.4348C9.64326 17.1691 9.64326 16.855 9.7905 16.6134L14.1339 9.19643C14.2811 8.93068 14.5756 8.78572 14.8701 8.78572H23.5814C23.8759 8.78572 24.1703 8.95484 24.3176 9.19643L28.661 16.6134C28.8082 16.8791 28.8082 17.1932 28.661 17.4348L25.5691 22.7257C25.4218 22.9915 25.4218 23.3056 25.5691 23.5472L29.5444 30.336C29.8143 30.795 30.5014 30.795 30.7713 30.336L38.3293 17.4107C38.4766 17.1449 38.4766 16.8308 38.3293 16.5892L29.1517 0.909734C29.0045 0.64398 28.71 0.499023 28.4156 0.499023H10.0359C9.74142 0.499023 9.44695 0.66814 9.29972 0.909734L0.122144 16.5892C-0.0250897 16.855 -0.0250897 17.1691 0.122144 17.4107L9.29972 33.0901C9.44695 33.3559 9.74142 33.5009 10.0359 33.5009H25.1764C25.7163 33.5009 26.0598 32.921 25.7899 32.462L21.8146 25.6732C21.6674 25.4074 21.3729 25.2625 21.0784 25.2625Z" fill="#FF6643"/>
<path id="Union" fill-rule="evenodd" clip-rule="evenodd" d="M80.537 8.56829C78.672 8.56829 76.6353 9.22059 75.4329 10.7668V3.66391V0.499023H68.4393V4.34038H71.1631V26.7121H75.4329V16.3718C75.5065 14.125 76.7825 12.3855 79.1383 12.3855C81.813 12.3855 82.8191 14.125 82.8191 16.2993V26.7362H87.0889V15.5745C87.0889 11.709 84.954 8.59245 80.537 8.59245V8.56829ZM60.2927 23.4263C57.6179 23.4263 55.2867 21.4452 55.2867 17.8937C55.2867 14.3423 57.5934 12.4337 60.2191 12.4337C62.8448 12.4337 64.1453 14.1732 64.5625 15.7194L68.3906 14.3423C67.6544 11.5156 65.0042 8.54403 60.1945 8.54403C55.0414 8.54403 51.0415 12.4579 51.0415 17.8937C51.0415 23.3296 55.0414 27.2676 60.3172 27.2676C65.0287 27.2676 67.7035 24.2718 68.5623 21.5177L64.8079 20.1889C64.4152 21.5177 63.1147 23.4504 60.3172 23.4504L60.2927 23.4263ZM97.6897 8.54403C103.211 8.54403 105.297 11.6364 105.297 15.1396L105.346 15.0912V23.8611C105.346 25.4557 105.518 26.5187 105.567 26.6878H101.591C101.542 26.567 101.395 25.8422 101.395 24.441C100.536 25.7697 98.7694 27.2193 95.8738 27.2193C92.1194 27.2193 89.8127 24.6826 89.8127 21.9042C89.8127 18.7635 92.1685 17.024 95.2113 16.5891L99.8001 15.9127C100.831 15.7677 101.125 15.2604 101.125 14.6564C101.125 13.1585 100.095 11.9747 97.7388 11.9747C95.4812 11.9747 94.2297 13.4001 94.058 15.1637L90.1563 14.294C90.4753 11.2499 93.2727 8.54403 97.6897 8.54403ZM96.6591 23.9819C99.0394 23.9819 101.101 22.8464 101.101 19.4158V18.6427L96.4382 19.3192C95.1131 19.5366 94.058 20.2614 94.058 21.7109C94.058 22.8948 94.9659 23.9819 96.6591 23.9819ZM128.928 8.5682C126.621 8.5682 124.511 9.36546 123.112 11.6848C122.155 9.63122 120.094 8.5682 117.738 8.5682C115.726 8.5682 113.468 9.51042 112.438 11.3224V9.07555H108.364V26.712H112.585V16.2509C112.585 14.0041 114.008 12.3371 116.29 12.3371C118.72 12.3371 119.75 13.9316 119.75 15.961V26.712H123.946V16.2509C123.946 14.0766 125.419 12.3371 127.652 12.3371C130.032 12.3371 131.112 13.8833 131.112 15.961V26.712H135.234V15.2845C135.234 10.6218 132.142 8.59236 128.903 8.59236L128.928 8.5682ZM142.793 11.25C143.602 9.8729 145.664 8.61661 148.412 8.61661V8.59245C153.786 8.59245 156.682 12.458 156.682 17.7972C156.682 23.1364 153.492 27.1469 148.265 27.1469C145.713 27.1469 143.774 26.0597 142.744 24.3686V26.7121H138.596V4.34038H135.701V0.499023H142.793V11.25ZM142.768 17.8214C142.768 21.3003 144.854 23.4022 147.578 23.4022C150.375 23.4022 152.387 21.3486 152.387 17.8214C152.387 14.2941 150.302 12.313 147.578 12.313C144.854 12.313 142.768 14.3424 142.768 17.8214ZM187.601 8.85825C185.245 8.85825 183.257 10.5494 182.423 12.458V9.07569H178.276V26.7121H182.546V17.4832C182.546 14.8256 183.527 13.062 187.355 13.1345C187.797 13.1345 188.263 13.1828 188.754 13.2553V8.97905C188.558 8.93073 188.116 8.85825 187.625 8.85825H187.601ZM171.917 21.0412C171.918 21.039 171.919 21.0367 171.92 21.0345H171.896L171.917 21.0412ZM167.602 23.6437C169.954 23.6437 171.254 22.5357 171.917 21.0412L175.528 22.17C174.448 25.045 171.675 27.2918 167.602 27.2918C162.743 27.2918 158.449 23.8128 158.449 17.8454C158.449 12.2646 162.645 8.5682 167.16 8.5682C172.681 8.5682 175.92 12.1438 175.92 17.7246C175.92 18.4011 175.822 19.0534 175.822 19.0534H162.718C162.816 21.7351 164.951 23.6437 167.602 23.6437ZM171.626 15.9852C171.552 13.9074 170.154 12.0713 167.209 12.0713C164.534 12.0713 162.988 14.1007 162.841 15.9852H171.626Z" fill="#484854"/>
</g>
<defs>
<clipPath id="clip0_1_709">
<rect width="188.729" height="33.0018" fill="white" transform="translate(0 0.499023)"/>
</clipPath>
</defs>
</svg>
