<?xml version="1.0" encoding="UTF-8"?>
<svg width="60px" height="60px" viewBox="0 0 60 60" version="1.1" xmlns="http://www.w3.org/2000/svg" xmlns:xlink="http://www.w3.org/1999/xlink">
    <title>logo_cobo@1x</title>
    <g id="第二批" stroke="none" stroke-width="1" fill="none" fill-rule="evenodd">
        <g id="logo-cobo">
            <rect id="矩形" fill-opacity="0" fill="#FFFFFF" x="0" y="0" width="60" height="60"></rect>
            <path d="M29.471464,31.8055808 C29.4807476,35.2599294 27.0779809,38.2305591 23.7543628,38.8738123 C20.4307446,39.5170654 17.1301382,37.6502665 15.9009942,34.4320045 L18.5782459,31.6913884 L18.5782459,31.8055808 C18.577796,33.6867084 19.8787093,35.3061929 21.6853816,35.6736003 C23.492054,36.0410077 25.3012874,35.054007 26.0066025,33.3162218 C26.7119177,31.5784365 26.1168687,29.5738782 24.585372,28.5284815 C23.0538752,27.4830848 21.0124861,27.688016 19.7096643,29.0179443 L12.00681,36.8837812 C9.9962831,38.9390062 6.97115947,39.5547378 4.34261279,38.4437468 C1.71406605,37.3327557 0,34.713941 0,31.8089394 C0,28.9039378 1.71406605,26.2851231 4.34261279,25.174132 C6.97115947,24.063141 9.9962831,24.6788726 12.00681,26.7340976 C12.4039765,27.1444674 12.5565802,27.7400337 12.4071367,28.2964525 C12.2576931,28.8528714 11.8289064,29.2856096 11.2822963,29.4316587 C10.7356862,29.5777079 10.1542957,29.4148797 9.75712921,29.0045099 C8.24524927,27.4659919 5.79869032,27.4688835 4.29030199,29.0109712 C2.78191367,30.5530588 2.78191367,33.0513855 4.29030199,34.5934732 C5.79869032,36.1355609 8.24524927,36.1384525 9.75712921,34.5999344 L17.4731396,26.7676836 C19.4817036,24.7122132 22.5055918,24.09588 25.132996,25.2064406 C27.7604002,26.3170011 29.4730903,28.9354082 29.471464,31.8391668 L29.471464,31.8055808 Z M59.9999999,31.8055808 C60.0005859,35.2564406 57.5972381,38.2197309 54.2769335,38.8620313 C50.9566288,39.5043319 47.6584342,37.6439836 46.4229789,34.4320045 L49.1002306,31.6913884 L49.1002306,31.8055808 C49.0997807,33.6867084 50.400694,35.3061929 52.2073664,35.6736003 C54.0140387,36.0410077 55.8232721,35.054007 56.5285872,33.3162218 C57.2339022,31.5784365 56.6388537,29.5738782 55.1073567,28.5284815 C53.5758599,27.4830848 51.5344709,27.688016 50.231649,29.0179443 L42.5551067,36.843478 C40.5531279,38.9196478 37.5202832,39.5530989 34.8807757,38.4463671 C32.2412682,37.3396354 30.5194674,34.7125861 30.5239192,31.7988636 L30.5239192,21.7230691 C30.485884,21.1210496 30.77882,20.5473739 31.2839818,20.2345888 C31.7891436,19.9218037 32.4227195,19.9218037 32.9278813,20.2345888 C33.4330431,20.5473739 33.7259791,21.1210496 33.6879439,21.7230691 L33.6879439,25.8138417 C35.6352386,24.5041524 38.0916587,24.2653306 40.2459941,25.1762449 C42.4003296,26.0871591 43.9723824,28.0293338 44.4429967,30.3613836 L47.9951243,26.7340976 C50.0054097,24.6807168 53.028838,24.0656702 55.656239,25.1756209 C58.28364,26.2855716 59.9978876,28.9020588 59.9999999,31.8055808 Z M41.423694,31.8055808 C41.423694,29.6242154 39.691983,27.8558694 37.5558161,27.8558694 C35.4196493,27.8558694 33.6879439,29.6242154 33.6879439,31.8055808 C33.6879439,33.9869461 35.4196493,35.7552979 37.5558161,35.7552979 C38.5821751,35.7570792 39.5670006,35.341524 40.292747,34.6004216 C41.0184935,33.8593193 41.4254383,32.8536562 41.423694,31.8055808 Z" id="Shape" fill="#2161FF" fill-rule="nonzero"></path>
        </g>
    </g>
</svg>