<svg width="220" height="70" viewBox="0 0 220 70" fill="none" xmlns="http://www.w3.org/2000/svg">
<path d="M199.151 47.9077C198.899 47.9077 198.675 47.8238 198.479 47.656C198.312 47.4602 198.228 47.2365 198.228 46.9848C198.228 46.9009 198.242 46.803 198.27 46.6911C198.326 46.5793 198.41 46.4394 198.521 46.2716L205.653 36.7069L199.025 27.7295C198.941 27.5897 198.871 27.4638 198.815 27.3519C198.787 27.2401 198.773 27.1282 198.773 27.0163C198.773 26.7646 198.857 26.5549 199.025 26.3871C199.221 26.1913 199.444 26.0934 199.696 26.0934H203.346C203.681 26.0934 203.933 26.1773 204.101 26.3451C204.269 26.5129 204.394 26.6667 204.478 26.8066L209.219 33.0992L213.959 26.8066C214.071 26.6667 214.197 26.5129 214.337 26.3451C214.505 26.1773 214.756 26.0934 215.092 26.0934H218.574C218.825 26.0934 219.035 26.1913 219.203 26.3871C219.399 26.5549 219.497 26.7506 219.497 26.9744C219.497 27.1142 219.469 27.2401 219.413 27.3519C219.385 27.4638 219.329 27.5897 219.245 27.7295L212.533 36.7908L219.706 46.2716C219.818 46.4394 219.888 46.5793 219.916 46.6911C219.972 46.803 220 46.9009 220 46.9848C220 47.2365 219.902 47.4602 219.706 47.656C219.539 47.8238 219.329 47.9077 219.077 47.9077H215.26C214.952 47.9077 214.714 47.8378 214.546 47.6979C214.379 47.5301 214.239 47.3763 214.127 47.2365L209.093 40.5664L203.975 47.2365C203.863 47.3763 203.723 47.5301 203.555 47.6979C203.416 47.8378 203.178 47.9077 202.842 47.9077H199.151Z" fill="#030303"/>
<path d="M186.773 48.3272C184.536 48.3272 182.648 47.9357 181.11 47.1526C179.6 46.3696 178.439 45.2649 177.628 43.8385C176.845 42.4122 176.397 40.7482 176.286 38.8464C176.258 38.343 176.244 37.7277 176.244 37.0006C176.244 36.2735 176.258 35.6582 176.286 35.1548C176.397 33.225 176.859 31.561 177.67 30.1627C178.509 28.7363 179.684 27.6316 181.194 26.8486C182.732 26.0655 184.592 25.674 186.773 25.674C188.955 25.674 190.801 26.0655 192.311 26.8486C193.849 27.6316 195.024 28.7363 195.835 30.1627C196.674 31.561 197.149 33.225 197.261 35.1548C197.289 35.6582 197.303 36.2735 197.303 37.0006C197.303 37.7277 197.289 38.343 197.261 38.8464C197.149 40.7482 196.688 42.4122 195.877 43.8385C195.093 45.2649 193.933 46.3696 192.395 47.1526C190.884 47.9357 189.011 48.3272 186.773 48.3272ZM186.773 44.1741C188.256 44.1741 189.402 43.7127 190.213 42.7898C191.024 41.8389 191.472 40.4545 191.556 38.6367C191.584 38.2172 191.598 37.6718 191.598 37.0006C191.598 36.3294 191.584 35.784 191.556 35.3645C191.472 33.5746 191.024 32.2043 190.213 31.2534C189.402 30.3025 188.256 29.8271 186.773 29.8271C185.291 29.8271 184.144 30.3025 183.333 31.2534C182.522 32.2043 182.075 33.5746 181.991 35.3645C181.963 35.784 181.949 36.3294 181.949 37.0006C181.949 37.6718 181.963 38.2172 181.991 38.6367C182.075 40.4545 182.522 41.8389 183.333 42.7898C184.144 43.7127 185.291 44.1741 186.773 44.1741Z" fill="#030303"/>
<path d="M164.701 48.3272C163.078 48.3272 161.722 48.0475 160.631 47.4882C159.569 46.9288 158.688 46.2157 157.988 45.3487V46.9009C157.988 47.1805 157.891 47.4183 157.695 47.614C157.527 47.8098 157.289 47.9077 156.982 47.9077H153.668C153.388 47.9077 153.15 47.8098 152.954 47.614C152.759 47.4183 152.661 47.1805 152.661 46.9009V19.1296C152.661 18.8499 152.759 18.6122 152.954 18.4164C153.15 18.2207 153.388 18.1228 153.668 18.1228H157.233C157.541 18.1228 157.779 18.2207 157.947 18.4164C158.142 18.6122 158.24 18.8499 158.24 19.1296V28.4426C158.939 27.6316 159.806 26.9744 160.841 26.4709C161.904 25.9396 163.19 25.6739 164.701 25.6739C166.183 25.6739 167.469 25.9256 168.56 26.429C169.651 26.9324 170.56 27.6456 171.287 28.5685C172.042 29.4634 172.615 30.5122 173.007 31.7148C173.398 32.9173 173.608 34.2178 173.636 35.6162C173.664 36.1196 173.678 36.581 173.678 37.0005C173.678 37.3921 173.664 37.8395 173.636 38.343C173.58 39.7972 173.356 41.1397 172.965 42.3702C172.573 43.5728 172.014 44.6215 171.287 45.5165C170.56 46.4114 169.651 47.1106 168.56 47.614C167.469 48.0895 166.183 48.3272 164.701 48.3272ZM163.148 43.8385C164.351 43.8385 165.288 43.5868 165.959 43.0834C166.63 42.552 167.106 41.8668 167.385 41.0278C167.693 40.1888 167.875 39.2659 167.931 38.259C167.987 37.42 167.987 36.581 167.931 35.742C167.875 34.7352 167.693 33.8123 167.385 32.9733C167.106 32.1343 166.63 31.4631 165.959 30.9597C165.288 30.4283 164.351 30.1626 163.148 30.1626C162.03 30.1626 161.121 30.4143 160.422 30.9177C159.722 31.4211 159.191 32.0644 158.827 32.8474C158.464 33.6025 158.268 34.3996 158.24 35.2386C158.212 35.742 158.198 36.2874 158.198 36.8747C158.198 37.434 158.212 37.9654 158.24 38.4688C158.296 39.3358 158.478 40.1888 158.786 41.0278C159.121 41.8388 159.639 42.51 160.338 43.0414C161.065 43.5728 162.002 43.8385 163.148 43.8385Z" fill="#030303"/>
<path d="M136.425 47.9077C136.145 47.9077 135.908 47.8098 135.712 47.614C135.516 47.4183 135.418 47.1806 135.418 46.9009V27.1422C135.418 26.8345 135.516 26.5828 135.712 26.3871C135.908 26.1913 136.145 26.0934 136.425 26.0934H139.823C140.103 26.0934 140.34 26.1913 140.536 26.3871C140.76 26.5828 140.872 26.8345 140.872 27.1422V28.8622C141.515 27.9672 142.34 27.282 143.347 26.8066C144.382 26.3311 145.57 26.0934 146.913 26.0934H148.633C148.94 26.0934 149.178 26.1913 149.346 26.3871C149.541 26.5828 149.639 26.8206 149.639 27.1002V30.1207C149.639 30.4003 149.541 30.6381 149.346 30.8338C149.178 31.0296 148.94 31.1275 148.633 31.1275H145.36C144.018 31.1275 142.969 31.505 142.214 32.2601C141.487 33.0153 141.123 34.05 141.123 35.3645V46.9009C141.123 47.1806 141.026 47.4183 140.83 47.614C140.634 47.8098 140.382 47.9077 140.075 47.9077H136.425Z" fill="#030303"/>
<path d="M118.699 48.3272C117.245 48.3272 115.93 48.0476 114.755 47.4882C113.581 46.9009 112.644 46.1318 111.945 45.181C111.274 44.2021 110.938 43.1114 110.938 41.9088C110.938 39.9511 111.721 38.399 113.287 37.2523C114.881 36.0777 116.979 35.2946 119.58 34.9031L125.327 34.0641V33.1831C125.327 32.0085 125.033 31.0996 124.446 30.4563C123.859 29.8131 122.852 29.4915 121.426 29.4915C120.419 29.4915 119.594 29.7012 118.951 30.1207C118.335 30.5122 117.874 31.0436 117.566 31.7148C117.342 32.0784 117.021 32.2602 116.601 32.2602H113.287C112.98 32.2602 112.742 32.1763 112.574 32.0085C112.434 31.8407 112.364 31.6169 112.364 31.3373C112.392 30.8898 112.574 30.3444 112.91 29.7012C113.245 29.058 113.777 28.4427 114.504 27.8554C115.231 27.2401 116.168 26.7227 117.314 26.3032C118.461 25.8837 119.845 25.674 121.468 25.674C123.229 25.674 124.712 25.8977 125.914 26.3452C127.145 26.7647 128.124 27.338 128.851 28.0651C129.578 28.7923 130.109 29.6453 130.445 30.6241C130.781 31.603 130.948 32.6377 130.948 33.7285V46.9009C130.948 47.1806 130.851 47.4183 130.655 47.6141C130.459 47.8099 130.221 47.9077 129.942 47.9077H126.544C126.236 47.9077 125.984 47.8099 125.788 47.6141C125.621 47.4183 125.537 47.1806 125.537 46.9009V45.2649C125.173 45.7962 124.684 46.2996 124.069 46.7751C123.453 47.2225 122.698 47.6001 121.803 47.9077C120.936 48.1874 119.901 48.3272 118.699 48.3272ZM120.125 44.3419C121.104 44.3419 121.985 44.1322 122.768 43.7127C123.579 43.2932 124.208 42.6499 124.656 41.783C125.131 40.888 125.369 39.7693 125.369 38.4269V37.546L121.174 38.2172C119.524 38.4689 118.293 38.8744 117.482 39.4337C116.671 39.9931 116.266 40.6783 116.266 41.4893C116.266 42.1046 116.447 42.636 116.811 43.0834C117.203 43.5029 117.692 43.8246 118.279 44.0483C118.867 44.2441 119.482 44.3419 120.125 44.3419Z" fill="#030303"/>
<path d="M98.6164 48.3272C95.5121 48.3272 93.051 47.4323 91.2331 45.6424C89.4153 43.8525 88.4364 41.3075 88.2966 38.0074C88.2686 37.7277 88.2546 37.3782 88.2546 36.9586C88.2546 36.5112 88.2686 36.1616 88.2966 35.9099C88.4085 33.8124 88.8839 31.9945 89.7229 30.4563C90.5899 28.9181 91.7785 27.7435 93.2887 26.9325C94.7989 26.0935 96.5748 25.674 98.6164 25.674C100.882 25.674 102.784 26.1494 104.322 27.1003C105.86 28.0232 107.021 29.3236 107.804 31.0017C108.587 32.6517 108.978 34.5675 108.978 36.7489V37.6299C108.978 37.9095 108.88 38.1472 108.685 38.343C108.489 38.5388 108.237 38.6367 107.929 38.6367H94.0019C94.0019 38.6367 94.0019 38.6786 94.0019 38.7625C94.0019 38.8464 94.0019 38.9163 94.0019 38.9723C94.0298 39.9511 94.2116 40.8601 94.5472 41.6991C94.9108 42.5101 95.4282 43.1673 96.0994 43.6707C96.7986 44.1741 97.6236 44.4258 98.5745 44.4258C99.3575 44.4258 100.015 44.314 100.546 44.0902C101.078 43.8385 101.511 43.5589 101.847 43.2512C102.182 42.9436 102.42 42.6919 102.56 42.4961C102.811 42.1605 103.007 41.9647 103.147 41.9088C103.315 41.8249 103.553 41.783 103.86 41.783H107.468C107.748 41.783 107.971 41.8669 108.139 42.0347C108.335 42.2025 108.419 42.4122 108.391 42.6639C108.363 43.1114 108.125 43.6568 107.678 44.3C107.258 44.9432 106.643 45.5725 105.832 46.1878C105.021 46.803 104 47.3204 102.77 47.7399C101.567 48.1315 100.183 48.3272 98.6164 48.3272ZM94.0019 35.1128H103.273V34.987C103.273 33.8963 103.091 32.9454 102.728 32.1343C102.364 31.3233 101.833 30.68 101.133 30.2046C100.434 29.7292 99.5953 29.4915 98.6164 29.4915C97.6376 29.4915 96.7986 29.7292 96.0994 30.2046C95.4002 30.68 94.8688 31.3233 94.5053 32.1343C94.1697 32.9454 94.0019 33.8963 94.0019 34.987V35.1128Z" fill="#030303"/>
<path d="M72.8267 48.3272C70.2537 48.3272 68.0583 47.8797 66.2404 46.9848C64.4505 46.0898 63.0522 44.8033 62.0454 43.1253C61.0665 41.4193 60.5352 39.3917 60.4513 37.0425C60.4233 35.8399 60.4093 34.5534 60.4093 33.183C60.4093 31.7847 60.4233 30.4702 60.4513 29.2397C60.5352 26.9184 61.0665 24.9328 62.0454 23.2827C63.0522 21.6327 64.4645 20.3602 66.2824 19.4652C68.1282 18.5703 70.3096 18.1228 72.8267 18.1228C74.8683 18.1228 76.6581 18.4025 78.1963 18.9618C79.7345 19.4932 81.007 20.1923 82.0138 21.0593C83.0486 21.8983 83.8177 22.8073 84.3211 23.7861C84.8525 24.765 85.1322 25.6739 85.1601 26.5129C85.1881 26.7646 85.1182 26.9744 84.9504 27.1422C84.7826 27.31 84.5588 27.3939 84.2792 27.3939L79.9583 27.3939C79.6786 27.3939 79.4688 27.3379 79.329 27.2261C79.1892 27.1142 79.0633 26.9464 78.9514 26.7227C78.7277 26.1353 78.3781 25.562 77.9027 25.0027C77.4272 24.4154 76.784 23.9259 75.973 23.5344C75.1619 23.1429 74.1131 22.9471 72.8267 22.9471C70.9249 22.9471 69.4007 23.4505 68.2541 24.4573C67.1354 25.4641 66.5341 27.1282 66.4502 29.4494C66.3663 31.8826 66.3663 34.3437 66.4502 36.8327C66.5341 39.2099 67.1494 40.9159 68.296 41.9507C69.4706 42.9855 71.0088 43.5029 72.9106 43.5029C74.1691 43.5029 75.2878 43.2791 76.2666 42.8317C77.2734 42.3842 78.0565 41.685 78.6158 40.7341C79.2031 39.7833 79.4968 38.5667 79.4968 37.0844V35.784H74.3788C74.0992 35.784 73.8614 35.6861 73.6657 35.4903C73.4699 35.2945 73.372 35.0428 73.372 34.7352V32.5118C73.372 32.2042 73.4699 31.9525 73.6657 31.7567C73.8614 31.5609 74.0992 31.4631 74.3788 31.4631L84.405 31.4631C84.7127 31.4631 84.9504 31.5609 85.1182 31.7567C85.3139 31.9525 85.4118 32.2042 85.4118 32.5118V36.9166C85.4118 39.2659 84.8944 41.2935 83.8597 42.9995C82.8528 44.7055 81.3986 46.0199 79.4968 46.9428C77.623 47.8657 75.3996 48.3272 72.8267 48.3272Z" fill="#030303"/>
<path fill-rule="evenodd" clip-rule="evenodd" d="M11.2189 17.0037C11.0846 16.8002 10.9504 16.6094 10.9312 16.584C10.912 16.5649 10.6244 16.7303 10.2919 16.9592C9.95953 17.1881 9.33946 17.6459 8.91755 17.9829C8.49565 18.32 7.67101 19.0703 7.08929 19.649C6.50758 20.2276 5.78522 20.9971 5.48477 21.3659C5.18433 21.7347 4.70489 22.3642 4.41722 22.7648C4.12956 23.1654 3.89943 23.5088 3.89943 23.5279C3.89943 23.547 4.07842 23.6741 4.28937 23.814C4.50672 23.9539 4.85191 24.2528 5.05648 24.4817C5.26743 24.7106 5.55509 25.1112 5.68933 25.372C5.82358 25.6327 5.99617 26.0778 6.07288 26.3576C6.15599 26.6755 6.20073 27.0698 6.20073 27.4068C6.20073 27.7374 6.14959 28.1444 6.07288 28.456C6.00257 28.7358 5.83636 29.1809 5.70851 29.4416C5.52952 29.7977 5.32496 30.0584 4.92223 30.4654C4.48754 30.9042 4.2702 31.0631 3.83551 31.273C3.53506 31.4192 3.10676 31.5846 2.87663 31.6482C2.63371 31.7054 2.20542 31.7499 1.85383 31.7499C1.52142 31.7499 1.08673 31.7181 0.894951 31.6736C0.703176 31.6291 0.536971 31.6036 0.530578 31.6164C0.517793 31.6291 0.453868 31.947 0.383551 32.3349C0.313233 32.7164 0.198168 33.5177 0.12785 34.1154C0.0383551 34.853 0 35.6224 0 36.5445C0 37.4983 0.0383551 38.2169 0.12785 38.9608C0.198168 39.5522 0.28127 40.2008 0.319625 40.4107C0.346372 40.557 0.382444 40.759 0.412667 40.9282C0.425785 41.0017 0.437802 41.069 0.447476 41.1229C0.511401 41.4599 0.511401 41.4599 0.722354 41.4217C0.831026 41.4027 1.13147 41.3581 1.37439 41.3263C1.65566 41.2882 2.01364 41.2945 2.35244 41.3327C2.64011 41.3645 3.05562 41.4599 3.27936 41.5425C3.4967 41.6189 3.84829 41.7842 4.05924 41.905C4.2702 42.0258 4.66014 42.3438 4.92863 42.6045C5.29939 42.9733 5.47838 43.2149 5.70212 43.6537C5.86193 43.978 6.04092 44.4485 6.10485 44.7347C6.18795 45.1162 6.20713 45.4024 6.18795 45.8793C6.16238 46.3498 6.10485 46.6551 5.9706 47.0557C5.86832 47.3545 5.65737 47.7933 5.49117 48.0413C5.33135 48.2893 5.04369 48.6327 4.85192 48.8107C4.66014 48.9888 4.37887 49.2113 4.21906 49.3131C4.15803 49.3519 4.0998 49.3889 4.05006 49.4205C3.96955 49.4717 3.91129 49.5087 3.89943 49.5166C3.88025 49.5229 3.95057 49.6565 4.05285 49.8027C4.1479 49.9445 4.35336 50.2291 4.52559 50.4677L4.56425 50.5213C4.74324 50.7693 5.11401 51.2525 5.39528 51.6023C5.67655 51.952 6.32858 52.6642 6.83999 53.1856C7.35139 53.7071 8.1121 54.4193 8.54039 54.7753C8.9623 55.1251 9.6399 55.6529 10.0426 55.939C10.4454 56.2188 10.8033 56.4668 10.8417 56.4795C10.8864 56.4859 11.0335 56.3269 11.1741 56.1171C11.3147 55.9072 11.6152 55.5638 11.8389 55.354C12.0882 55.1251 12.4654 54.8644 12.7914 54.699C13.0855 54.5528 13.5138 54.3811 13.7439 54.3239C13.9996 54.2603 14.4087 54.2158 14.7987 54.2158C15.195 54.2158 15.5977 54.2603 15.8534 54.3239C16.0836 54.3811 16.5119 54.5528 16.8123 54.699C17.2406 54.9025 17.4643 55.0742 17.8735 55.4748C18.289 55.8945 18.4424 56.1044 18.6917 56.594C18.8515 56.9246 19.0305 57.3952 19.0816 57.6432C19.1328 57.8912 19.1775 58.3045 19.1775 58.5652C19.1775 58.8259 19.1392 59.2266 19.0944 59.4491C19.0433 59.7098 19.0369 59.8561 19.0816 59.8752C19.12 59.8879 19.3757 59.9387 19.657 59.9896C19.9382 60.0405 20.3985 60.1104 20.6798 60.1486C20.961 60.1867 21.6259 60.2631 22.15 60.3139C22.6806 60.3648 23.5117 60.4093 24.0039 60.4093C24.4961 60.4093 25.4486 60.3521 26.1134 60.2821C26.7782 60.2122 27.6604 60.0977 28.0631 60.0278C28.4658 59.9578 28.8238 59.8879 28.8622 59.8752C28.9005 59.8561 28.8941 59.6971 28.843 59.4173C28.7855 59.1439 28.7663 58.7369 28.7855 58.3427C28.8046 57.8658 28.8622 57.5732 29.0028 57.1663C29.0987 56.8674 29.3161 56.4286 29.4823 56.1807C29.6421 55.9327 29.9617 55.5638 30.1854 55.354C30.4156 55.1442 30.7991 54.8707 31.042 54.7372C31.2849 54.61 31.6685 54.451 31.8986 54.3811C32.1288 54.3111 32.5443 54.2348 32.8255 54.2094C33.1707 54.184 33.5031 54.1967 33.8483 54.2603C34.1296 54.3111 34.5323 54.4192 34.7433 54.5019C34.9542 54.5782 35.325 54.7817 35.5743 54.947C35.8236 55.106 36.1752 55.4112 36.367 55.6147C36.5524 55.8246 36.7761 56.1107 36.8592 56.257C36.9551 56.435 37.0446 56.5177 37.0957 56.4859C37.1293 56.4692 37.4131 56.2719 37.7537 56.0352C37.8019 56.0017 37.8512 55.9674 37.9012 55.9327C38.3039 55.6465 38.9815 55.1251 39.4034 54.7753C39.8317 54.4193 40.5924 53.7071 41.1102 53.1856C41.6216 52.6642 42.3248 51.8821 42.6764 51.4433C43.0216 51.0045 43.4819 50.4004 43.6928 50.0952C43.9038 49.79 44.0636 49.5293 44.0444 49.5166C44.0252 49.5102 43.8398 49.3894 43.6353 49.2495C43.4307 49.1096 43.0983 48.8234 42.9001 48.6136C42.6764 48.3783 42.4271 48.0095 42.2481 47.6598C42.0755 47.3291 41.9029 46.8713 41.839 46.5788C41.7559 46.2036 41.7303 45.9047 41.7559 45.4342C41.7814 44.9573 41.8326 44.6647 41.9732 44.2578C42.0755 43.9589 42.2928 43.5202 42.459 43.2722C42.6189 43.0242 42.9449 42.649 43.1878 42.4264C43.4627 42.1784 43.8207 41.9304 44.1403 41.7778C44.4216 41.6443 44.8371 41.4853 45.0672 41.4217C45.3037 41.3645 45.7384 41.3136 46.09 41.3136C46.4224 41.3136 46.8571 41.3454 47.0489 41.3899C47.2406 41.4344 47.4069 41.4599 47.4132 41.4472C47.426 41.4344 47.49 41.1101 47.5603 40.7286C47.6306 40.3471 47.7457 39.5459 47.816 38.9481C47.9055 38.2105 47.9438 37.4411 47.9438 36.5127C47.9438 35.5652 47.9055 34.8467 47.816 34.0963C47.7457 33.5113 47.6306 32.7164 47.5603 32.3349C47.49 31.947 47.426 31.6291 47.4132 31.6164C47.4069 31.6036 47.2406 31.6291 47.0489 31.6736C46.8571 31.7181 46.4224 31.7499 46.09 31.7499C45.7384 31.7499 45.3101 31.7054 45.0672 31.6482C44.8371 31.5846 44.4216 31.4256 44.1403 31.2921C43.8015 31.1267 43.4691 30.8978 43.1558 30.6053C42.8937 30.3637 42.5677 29.9758 42.4079 29.7278C42.2609 29.4798 42.0563 29.0537 41.954 28.7739C41.7942 28.3161 41.7751 28.1826 41.7751 27.4068C41.7751 26.631 41.7942 26.4975 41.954 26.0396C42.0563 25.7598 42.2417 25.3592 42.3696 25.1494C42.4974 24.9395 42.7531 24.6089 42.9385 24.4181C43.1175 24.2274 43.4435 23.9539 43.6545 23.814C43.8654 23.6741 44.0444 23.5406 44.0444 23.5088C44.0444 23.4834 43.8143 23.14 43.5266 22.7457C43.2389 22.3578 42.7915 21.7601 42.523 21.4295C42.2481 21.0988 41.6536 20.4438 41.1997 19.9796C40.7459 19.5091 40.081 18.8732 39.7294 18.5743C39.3779 18.2691 38.8025 17.8113 38.4509 17.5442C38.0994 17.2835 37.6327 16.9465 37.4154 16.8002L37.0126 16.5331C36.6802 17.0991 36.367 17.4615 36.1113 17.6968C35.8172 17.9702 35.4529 18.2246 35.1588 18.3708C34.8967 18.5044 34.494 18.657 34.2639 18.7142C34.0337 18.7714 33.7077 18.835 33.5287 18.8541L33.2091 18.8923C34.8456 20.4502 35.6063 21.226 35.9579 21.6202C36.3095 22.0145 36.8656 22.6694 37.1916 23.0764C37.5176 23.4834 38.029 24.1701 38.3231 24.6089C38.6171 25.0476 39.0582 25.7598 39.3075 26.1986C39.5569 26.6374 39.9468 27.4068 40.1705 27.9155C40.3943 28.4242 40.6819 29.1491 40.8162 29.537C40.944 29.9249 41.1294 30.5481 41.2317 30.936C41.334 31.3238 41.4746 31.9661 41.5449 32.3667C41.6152 32.7673 41.7047 33.4859 41.7495 33.9564C41.7942 34.4906 41.8134 35.3236 41.7878 36.1502C41.7687 36.8815 41.7047 37.7845 41.6472 38.1533C41.5897 38.5221 41.4746 39.1516 41.3851 39.5522C41.2956 39.9528 41.0783 40.7095 40.8993 41.2373C40.7267 41.7587 40.4134 42.5663 40.2025 43.0178C39.9915 43.4693 39.6144 44.1942 39.3587 44.6266C39.1094 45.059 38.6683 45.7203 38.387 46.1019C38.1058 46.477 37.6199 47.0811 37.3003 47.4436C36.9807 47.7997 36.4245 48.3656 36.0538 48.6963C35.683 49.0269 35.0949 49.5166 34.7433 49.7836C34.3917 50.0443 33.8164 50.445 33.4648 50.6675C33.1132 50.8901 32.4676 51.2525 32.0265 51.4687C31.5854 51.6913 30.895 52.0029 30.4923 52.1618C30.0895 52.3208 29.3992 52.5497 28.9581 52.6769C28.517 52.7977 27.8713 52.9567 27.5198 53.0267C27.1682 53.0966 26.5033 53.1983 26.0495 53.2556C25.5764 53.3064 24.6815 53.351 23.9719 53.351C23.2623 53.351 22.3674 53.3064 21.8943 53.2556C21.4405 53.1983 20.7181 53.0839 20.2962 53.0012C19.8743 52.9122 19.2542 52.7596 18.9218 52.6578C18.5894 52.5561 18.1164 52.4035 17.8671 52.3145C17.6178 52.2254 17.1767 52.0474 16.8762 51.9202C16.5758 51.793 16.0005 51.5196 15.5977 51.3034C15.195 51.0936 14.5302 50.7057 14.1274 50.4386C13.7247 50.1715 13.1046 49.7264 12.7531 49.4466C12.4015 49.1668 11.7814 48.6072 11.3723 48.2003C10.9695 47.7997 10.3942 47.1701 10.1002 46.8013C9.8125 46.4325 9.37781 45.8475 9.14129 45.4978C8.90477 45.148 8.55957 44.5884 8.37419 44.2578C8.18241 43.9271 7.87557 43.3103 7.6838 42.8906C7.49841 42.4709 7.20436 41.7142 7.03176 41.2055C6.85916 40.6968 6.64821 39.9528 6.55871 39.5522C6.46922 39.1516 6.34776 38.4903 6.28384 38.0897C6.19434 37.511 6.16877 36.9832 6.16877 35.5779C6.16877 34.1917 6.19434 33.6385 6.28384 33.0662C6.34776 32.6656 6.45643 32.0488 6.53314 31.699C6.60346 31.3493 6.75688 30.7325 6.87195 30.3319C6.99341 29.9313 7.21714 29.2572 7.38335 28.8375C7.54316 28.4178 7.86279 27.6993 8.08652 27.2478C8.31026 26.7963 8.7066 26.0651 8.96869 25.6263C9.23078 25.1875 9.68465 24.4944 9.97871 24.0875C10.2728 23.6805 10.8289 22.9619 11.2189 22.4977C11.6024 22.0335 12.5485 21.0288 13.3092 20.2658L14.7028 18.8859C14.2297 18.8287 13.9229 18.7714 13.7119 18.7206C13.501 18.6697 13.0983 18.5171 12.817 18.3836C12.5101 18.2309 12.1394 17.9829 11.8901 17.754C11.6599 17.5505 11.3595 17.2135 11.2189 17.0037Z" fill="#030303"/>
<path d="M17.1576 11.9101C17.196 11.9228 17.2279 11.961 17.2279 11.9928C17.2279 12.0246 17.1832 12.3107 17.1384 12.6223C17.0809 13.0038 17.0617 13.4935 17.0873 14.0848C17.1001 14.5745 17.1704 15.204 17.2279 15.4838C17.2854 15.7636 17.4069 16.2341 17.4964 16.533C17.5795 16.8319 17.7521 17.3279 17.88 17.6458C18.0014 17.9574 18.2763 18.5615 18.4808 18.9812C18.6854 19.4009 19.0562 20.1003 19.3119 20.5391C19.5612 20.9779 20.3794 22.3069 21.1273 23.496C21.8753 24.6851 22.6743 25.9886 22.8981 26.3893C23.1282 26.7899 23.4734 27.4321 23.6652 27.82C23.8633 28.2015 24.1574 28.8629 24.3236 29.2825C24.4898 29.7022 24.7072 30.3763 24.8094 30.7769C24.9181 31.1775 25.0332 31.8515 25.0715 32.2712C25.1291 32.8499 25.1291 33.2123 25.0715 33.7655C25.0268 34.1661 24.9245 34.7702 24.835 35.1009C24.7327 35.4761 24.509 36.042 24.2277 36.5952C23.9401 37.1802 23.6012 37.7271 23.2561 38.185C22.962 38.5665 22.3803 39.2278 21.9584 39.6538C21.5365 40.0735 20.6863 40.8684 20.0726 41.4089C19.4589 41.9494 18.679 42.6807 18.3402 43.024C18.0078 43.3674 17.5795 43.8698 17.3941 44.1305C17.2087 44.3912 16.9466 44.83 16.806 45.097C16.6718 45.3705 16.4864 45.8283 16.4033 46.1145C16.3202 46.407 16.2179 46.9284 16.1795 47.2781C16.1348 47.7042 16.1348 48.1493 16.1732 48.6135C16.2051 48.995 16.2115 49.332 16.1859 49.3575C16.1604 49.3893 15.8855 49.2494 15.5659 49.0523C15.2526 48.8551 14.7157 48.4927 14.3832 48.2383C14.0508 47.9903 13.4499 47.4689 13.0472 47.0874C12.6509 46.7058 12.0883 46.1145 11.8135 45.7838C11.5322 45.4531 11.0719 44.8363 10.7907 44.4166C10.5094 43.997 10.0683 43.2212 9.81261 42.6997C9.55051 42.172 9.23728 41.4598 9.10943 41.11C8.97519 40.7603 8.77702 40.099 8.66195 39.6475C8.54689 39.196 8.39347 38.4902 8.32954 38.0896C8.23366 37.4918 8.21448 37.0086 8.22087 35.4824C8.22087 33.8864 8.24005 33.473 8.36151 32.7163C8.43822 32.2267 8.58524 31.4827 8.68752 31.063C8.7898 30.6433 8.96879 30.0392 9.07747 29.7277C9.19253 29.4161 9.40988 28.8692 9.56969 28.5195C9.72311 28.1697 10.0108 27.5974 10.2025 27.2477C10.4007 26.898 10.8482 26.1476 11.2062 25.5753C11.5642 25.0094 11.8902 24.5515 11.9221 24.5706C11.9605 24.5833 11.9797 24.6151 11.9733 24.6469C11.9669 24.6787 11.8262 25.0793 11.6664 25.5308C11.5066 25.9823 11.3085 26.669 11.2126 27.0569C11.0975 27.5529 11.04 28.0171 11.0144 28.6467C10.9952 29.1554 11.008 29.6895 11.0464 29.8866C11.0847 30.0774 11.1806 30.4081 11.2573 30.6179C11.3404 30.8277 11.513 31.133 11.6473 31.2983C11.8199 31.5145 12.018 31.6671 12.3185 31.807C12.702 31.9914 12.8043 32.0168 13.2646 32.0105C13.6098 32.0041 13.8974 31.9533 14.1595 31.8642C14.3705 31.7879 14.7157 31.6162 14.9266 31.4891C15.1376 31.3619 15.5019 31.0694 15.7321 30.8405C15.9686 30.6115 16.3266 30.1664 16.5311 29.8548C16.7357 29.5433 17.0042 29.0409 17.1192 28.742C17.2407 28.4432 17.4069 27.9408 17.4836 27.6292C17.5667 27.3176 17.669 26.7136 17.7074 26.2939C17.7521 25.8551 17.7649 25.2637 17.7393 24.8949C17.7201 24.5452 17.6562 23.9729 17.6051 23.6231C17.5539 23.2734 17.4197 22.6312 17.2982 22.1924C17.1832 21.7536 16.9211 20.8698 16.7229 20.2212C16.5247 19.5726 16.2882 18.7141 16.1987 18.3135C16.0773 17.7476 16.0325 17.3342 16.0006 16.4694C15.975 15.6173 15.9878 15.2231 16.0645 14.7843C16.122 14.4727 16.2563 13.9386 16.3649 13.6079C16.4736 13.2773 16.6846 12.7495 16.8252 12.4443C16.9722 12.139 17.1192 11.8974 17.1576 11.9101Z" fill="#FF4C00"/>
<path d="M29.9618 4.35578C29.9746 4.37486 29.9234 4.46388 29.8595 4.56563C29.7892 4.66101 29.6038 5.01075 29.4504 5.34141C29.2906 5.67207 29.0988 6.17442 29.0349 6.45421C28.9645 6.734 28.8878 7.1664 28.8623 7.40804C28.8431 7.64967 28.8495 8.0948 28.8878 8.39366C28.9262 8.69253 29.0412 9.2076 29.1499 9.53826C29.2586 9.86892 29.5079 10.473 29.7125 10.8736C29.917 11.2742 30.3901 12.12 30.7672 12.7495C31.138 13.379 31.5855 14.1929 31.7645 14.5618C31.9371 14.9306 32.1416 15.4011 32.2055 15.611C32.2759 15.8208 32.3781 16.2151 32.4357 16.4885C32.4932 16.7556 32.5379 17.2516 32.5379 17.5822C32.5379 17.9129 32.5188 18.1863 32.4932 18.1863C32.4612 18.1863 31.4896 17.2516 30.3261 16.107C28.9837 14.7907 28.0376 13.7987 27.7436 13.4172C27.4879 13.0865 27.1682 12.6287 27.034 12.3997C26.8998 12.1708 26.7144 11.7702 26.6185 11.5095C26.5034 11.1788 26.4395 10.8482 26.4203 10.4285C26.3884 9.93887 26.4139 9.72267 26.5226 9.2839C26.5993 8.98504 26.7719 8.51448 26.9061 8.23469C27.0468 7.9549 27.2961 7.50978 27.4687 7.24907C27.6413 6.98835 28.0121 6.486 28.2933 6.13626C28.5746 5.78653 29.0604 5.23331 29.3737 4.909C29.6805 4.5847 29.949 4.33671 29.9618 4.35578Z" fill="#FF4C00"/>
<path d="M24.6496 0C24.7007 0 24.7391 0.0317943 24.7391 0.0635887C24.7391 0.095383 24.6176 0.362455 24.477 0.654963C24.33 0.941112 24.0615 1.5452 23.8761 2.00304C23.6907 2.46088 23.4542 3.14764 23.3455 3.52917C23.2368 3.9107 23.0962 4.483 23.0323 4.80094C22.9492 5.22699 22.9236 5.69118 22.9172 6.61322C22.9172 7.56705 22.9428 7.98674 23.0387 8.4255C23.1026 8.73708 23.256 9.30938 23.3839 9.69727C23.5053 10.0852 23.7994 10.7656 24.0295 11.2234C24.266 11.6812 24.6752 12.3807 24.9436 12.7813C25.2121 13.1819 25.6788 13.8115 25.9728 14.1803C26.2733 14.5491 26.7783 15.1468 27.1043 15.5156C27.4303 15.8844 27.8842 16.3804 28.1207 16.6221C28.3508 16.8637 29.3161 17.7985 30.2622 18.6887C31.2083 19.5853 32.3845 20.749 32.8767 21.2704C33.369 21.7982 34.0018 22.4977 34.2767 22.8283C34.558 23.159 35.0374 23.7631 35.3443 24.1637C35.6511 24.5643 36.105 25.1938 36.3543 25.5626C36.5972 25.9315 36.9488 26.491 37.1406 26.8026C37.3259 27.1142 37.6456 27.7119 37.8501 28.1253C38.0611 28.5322 38.336 29.1363 38.4766 29.4543C38.6108 29.7786 38.8282 30.3763 38.956 30.7769C39.0903 31.1775 39.2629 31.7943 39.3524 32.1441C39.4355 32.4938 39.5569 33.0979 39.6145 33.4794C39.6976 34.0072 39.7295 34.5668 39.7295 35.7686C39.7295 36.9959 39.7039 37.5237 39.6081 38.0896C39.5441 38.4902 39.3971 39.196 39.282 39.6475C39.167 40.099 38.9624 40.773 38.8282 41.1419C38.6939 41.5107 38.3743 42.2229 38.125 42.7316C37.8693 43.2403 37.441 43.9843 37.1725 44.3849C36.904 44.7855 36.4438 45.4023 36.1497 45.752C35.862 46.1018 35.3506 46.6486 35.0246 46.9666C34.6922 47.2782 34.2064 47.7106 33.9443 47.9204C33.6822 48.1303 33.2347 48.4673 32.9535 48.658C32.6722 48.8552 32.1224 49.1922 31.7389 49.4147C31.3489 49.6309 30.7608 49.9362 30.4284 50.0824C30.096 50.2287 29.5207 50.4512 29.1499 50.5784C28.7791 50.712 28.2038 50.8836 27.8714 50.9663C27.539 51.049 26.9189 51.1825 26.497 51.2588C25.9345 51.3542 25.3592 51.4051 24.3555 51.4241C23.3008 51.4496 22.783 51.4305 22.1182 51.3542C21.6451 51.297 20.9355 51.1762 20.552 51.0871C20.162 51.0045 19.6762 50.8773 19.0817 50.6929L18.9603 50.2923C18.8644 49.9743 18.8388 49.6755 18.8324 48.8997C18.826 48.0476 18.8452 47.8441 18.973 47.4053C19.0561 47.1256 19.2223 46.6804 19.3438 46.4197C19.4653 46.159 19.7529 45.6694 19.9767 45.3387C20.2004 45.0081 20.5712 44.5057 20.8077 44.2259C21.0378 43.9461 21.7985 43.1131 22.4953 42.3818C23.1921 41.6506 23.94 40.8494 24.1574 40.6014C24.3811 40.3534 24.7647 39.8828 25.0204 39.5521C25.2761 39.2215 25.6404 38.6746 25.8386 38.344C26.0368 38.0133 26.2989 37.4982 26.4203 37.1994C26.5482 36.9005 26.7208 36.4045 26.8166 36.0866C26.9061 35.7686 27.0404 35.19 27.1107 34.7957C27.1938 34.3124 27.2322 33.791 27.2322 33.1615C27.2322 32.6464 27.1874 31.9215 27.1299 31.5209C27.0723 31.133 26.9253 30.4526 26.8039 30.0138C26.6888 29.5751 26.4587 28.8883 26.2989 28.4877C26.139 28.0871 25.7811 27.3113 25.5126 26.7708C25.2377 26.2303 24.7519 25.3401 24.4195 24.7996C24.0934 24.2591 23.4286 23.2289 22.9428 22.5104C22.4633 21.7918 21.7154 20.7045 21.2871 20.094C20.8588 19.4836 20.3538 18.6823 20.1684 18.3135C19.9831 17.9447 19.7465 17.3851 19.6379 17.0736C19.5292 16.762 19.3822 16.2278 19.3118 15.8972C19.2415 15.5665 19.152 15.0324 19.1137 14.7208C19.0817 14.4092 19.0497 13.7797 19.0497 13.3218C19.0497 12.864 19.0945 12.1391 19.1456 11.7003C19.1968 11.2616 19.3118 10.5494 19.4077 10.1106C19.4972 9.67183 19.6698 8.98508 19.7913 8.58447C19.9063 8.18386 20.1301 7.52254 20.2835 7.12193C20.4369 6.72132 20.6607 6.17446 20.7757 5.91375C20.8908 5.65303 21.1273 5.15068 21.2999 4.80094C21.4789 4.45121 21.8816 3.7263 22.2013 3.18579C22.5273 2.65165 23.0323 1.88858 23.3263 1.50069C23.6204 1.1128 24.0167 0.61681 24.2085 0.39425C24.4067 0.178048 24.6048 0 24.6496 0Z" fill="#F4129A"/>
</svg>
