<svg width="128" height="128" viewBox="0 0 55 55" fill="none" xmlns="http://www.w3.org/2000/svg">
<rect x="0.55" y="0.55" width="53.9" height="53.9" rx="26.95" fill="white"/>
<mask id="mask0_6_6612" style="mask-type:luminance" maskUnits="userSpaceOnUse" x="11" y="13" width="33" height="29">
<path d="M44 13.2H11V41.8H44V13.2Z" fill="white"/>
</mask>
<g mask="url(#mask0_6_6612)">
<path d="M41.3372 31.7635C41.4457 31.8496 41.5168 31.9239 41.6237 32.0119C41.6882 32.0653 41.6887 32.0653 41.752 32.0072C41.7962 31.9665 41.839 31.9239 41.8844 31.8841C42.0666 31.7216 42.312 31.7295 42.4819 31.9063C42.5495 31.9772 42.6133 32.0522 42.6727 32.1306C42.8197 32.3233 42.805 32.5752 42.6391 32.7505C42.5925 32.7997 42.5431 32.846 42.493 32.891C42.4509 32.9282 42.4495 32.9645 42.4793 33.0113C42.5405 33.1078 42.6001 33.2052 42.6575 33.304C42.7306 33.429 42.7956 33.5594 42.8573 33.6907C42.9159 33.816 42.9159 33.815 43.0376 33.7748C43.0965 33.7535 43.1565 33.7357 43.2175 33.7214C43.4156 33.6814 43.6035 33.7823 43.6881 33.9768C43.7394 34.0967 43.7777 34.2224 43.8025 34.3512C43.8389 34.5349 43.7323 34.7389 43.5619 34.8295C43.4959 34.8641 43.4234 34.8793 43.3543 34.9053C43.2709 34.9369 43.2636 34.9432 43.2773 35.0292C43.3215 35.2998 43.3524 35.5718 43.3543 35.8467C43.355 35.9069 43.3765 35.941 43.4361 35.9462C43.4872 35.9506 43.538 35.9607 43.5888 35.9661C43.7918 35.9883 43.9299 36.0949 43.9899 36.3046C43.9951 36.3226 44.0084 36.701 43.9906 36.8035C43.9516 37.0299 43.7843 37.1912 43.5642 37.2003C43.5167 37.2027 43.469 37.1994 43.4222 37.1907C43.3354 37.1741 43.278 37.2125 43.2569 37.3008C43.2052 37.5178 43.1357 37.7285 43.0612 37.9376C43.0393 37.998 43.0518 38.0511 43.0998 38.0935C43.1246 38.1157 43.2208 38.2248 43.2364 38.2611C43.2721 38.3445 43.1177 38.2148 43.082 38.1932C43.0005 38.1438 42.0007 37.5623 41.6284 37.3537C41.6549 37.1465 41.7511 36.8812 41.7898 36.6769C41.9872 35.6355 41.783 34.6857 41.2117 33.8185C40.7366 33.0972 40.0859 32.6358 39.2867 32.4071C38.5833 32.2055 37.8862 32.2465 37.2024 32.5096C36.6366 32.7271 36.0171 33.0839 35.6772 33.6458C35.6382 33.6917 35.6197 33.6863 35.5583 33.6575C35.3455 33.5458 34.5119 32.9741 34.1729 32.7662C34.0228 32.6075 33.9233 32.3476 34.0361 32.1559C34.1167 32.0191 34.2249 31.9082 34.341 31.8084C34.5041 31.6684 34.7404 31.6724 34.9137 31.804C35.1286 31.9672 35.1283 31.9665 35.337 31.7911C35.446 31.6996 35.5623 31.6183 35.6767 31.5345C35.7833 31.4568 35.7911 31.4254 35.7412 31.3034C35.6051 30.9705 35.6923 30.7177 35.9993 30.5531C36.0804 30.5077 36.1653 30.4698 36.2527 30.44C36.487 30.3649 36.7028 30.4529 36.8302 30.6727C36.963 30.9022 36.9623 30.9017 37.2124 30.8411C37.3445 30.809 37.4785 30.7863 37.6121 30.7608C37.7454 30.735 37.7657 30.7128 37.7733 30.5739C37.7763 30.5044 37.7863 30.4353 37.803 30.3682C37.8383 30.2338 37.9021 30.1158 38.0344 30.0629C38.2864 29.9617 38.541 29.9423 38.7884 30.0753C38.9343 30.1537 39.0024 30.2886 39.0043 30.4634C39.0071 30.7252 39.0087 30.7275 39.2515 30.769C39.4113 30.7961 39.5675 30.8369 39.7245 30.8757C39.8436 30.9055 39.8743 30.8937 39.9209 30.7729C40.0381 30.467 40.3303 30.3108 40.6747 30.489C40.7723 30.5395 40.8749 30.5765 40.9602 30.658C41.1323 30.8223 41.1443 31.0649 41.0736 31.2419C41.0635 31.2667 41.0514 31.2906 41.0417 31.3156C40.9945 31.4385 40.9895 31.5104 40.9895 31.5104C40.9895 31.5104 41.2306 31.6787 41.3372 31.7635Z" fill="#5F5F5F"/>
<path d="M41.5735 37.2532C41.6734 37.3541 43.011 38.1246 43.1264 38.1974C43.1607 38.2021 43.1871 38.226 43.2181 38.2393C43.242 38.2618 43.263 38.2848 43.2847 38.3098C43.3906 38.466 43.3887 38.6308 43.3275 38.8033C43.2885 38.8949 43.242 38.9826 43.1878 39.0651C43.0619 39.2648 42.8295 39.3275 42.6253 39.2191C42.5631 39.1861 42.5028 39.1496 42.4438 39.11C42.401 39.0819 42.3714 39.0894 42.3414 39.1313C42.1776 39.3593 41.9956 39.5722 41.7975 39.7674C41.7576 39.8067 41.7529 39.8409 41.7864 39.8866C41.8252 39.9378 41.8611 39.9917 41.8959 40.046C42.037 40.2665 41.9989 40.5208 41.7994 40.6842C41.7299 40.7409 41.659 40.7961 41.5853 40.8467C41.387 40.9822 41.1546 40.9441 41.0036 40.7521C40.9617 40.6985 40.9227 40.6423 40.8863 40.5842C40.8542 40.5334 40.822 40.522 40.7682 40.5543C40.5415 40.6901 40.302 40.7973 40.0576 40.8923C39.9688 40.927 39.9697 40.9284 39.987 41.0262C39.9931 41.0602 39.9981 41.0948 40.0042 41.1288C40.0612 41.4156 39.9962 41.571 39.7579 41.7181C39.6965 41.7541 39.6258 41.7485 39.5599 41.7667C39.4447 41.7958 39.3285 41.7934 39.2112 41.7874C39.1729 41.7675 39.1346 41.7459 39.0973 41.7241C38.9845 41.6253 38.9342 41.4949 38.9049 41.3456C38.8654 41.1431 38.8895 41.1761 38.7125 41.1847C38.478 41.1962 38.2431 41.1953 38.0086 41.1815C37.9176 41.1761 37.9176 41.1758 37.8965 41.2646C37.8869 41.306 37.8757 41.347 37.8698 41.3889C37.8318 41.6541 37.6292 41.8531 37.3059 41.7883C37.2269 41.7724 37.1487 41.7508 37.0714 41.7267C36.8504 41.6584 36.7225 41.4341 36.767 41.1955C36.7778 41.1351 36.7913 41.0747 36.8026 41.0141C36.8178 40.9317 36.8168 40.9272 36.7381 40.8963C36.5871 40.8364 36.4365 40.7753 36.2911 40.7015C36.2053 40.658 36.1203 40.6123 36.0356 40.5662C35.9475 40.5184 35.9482 40.5177 35.8865 40.6048C35.8534 40.6512 35.8227 40.6992 35.7884 40.7439C35.6376 40.9429 35.4 40.9846 35.1991 40.8455C35.1228 40.7924 35.0481 40.7357 34.9762 40.6758C34.7931 40.5227 34.7536 40.2712 34.8796 40.0636C34.9169 40.0018 34.9585 39.9428 35.0006 39.8845C35.0299 39.844 35.0318 39.8114 34.9942 39.7742C34.7933 39.5761 34.6092 39.3603 34.4435 39.1287C34.412 39.0847 34.3811 39.085 34.3404 39.1119C34.2908 39.1447 34.2393 39.1746 34.1877 39.2046C33.9563 39.3373 33.7155 39.2718 33.5796 39.0335C33.5311 38.948 33.4715 38.8696 33.4382 38.7738C33.3555 38.5364 33.4252 38.3166 33.632 38.1843C33.676 38.1562 33.7211 38.1302 33.7642 38.1021C33.8405 38.053 33.8426 38.0516 33.8088 37.9654C33.7389 37.787 33.6788 37.6044 33.6287 37.4188C33.6065 37.3375 33.5857 37.2549 33.5675 37.1722C33.5543 37.1118 33.5242 37.0884 33.4654 37.1015C33.4184 37.1107 33.3711 37.1172 33.3236 37.1212C33.0437 37.1523 32.8364 36.9758 32.8071 36.682C32.7991 36.6008 32.7906 36.5205 32.7851 36.4397C32.7778 36.3226 32.813 36.207 32.8842 36.1168C32.9553 36.0265 33.0565 35.9684 33.1671 35.9544C33.2288 35.9464 33.291 35.9413 33.3524 35.9312C33.4328 35.9174 33.4354 35.9155 33.4366 35.8272C33.4401 35.6343 33.4543 35.4417 33.4784 35.2501C33.4886 35.1661 33.5153 35.0842 33.5094 34.998C33.5034 34.939 33.4796 34.9025 33.4347 34.884C33.4039 34.8746 33.3966 34.8706 33.3508 34.8585C33.2602 34.8353 33.178 34.7941 33.1125 34.7241" fill="#414141"/>
<path d="M33.5133 35.0507C33.5237 34.9914 33.4996 34.9027 33.4419 34.8856C33.3925 34.8711 33.3136 34.84 33.2644 34.8243C33.0692 34.7622 32.9465 34.6 32.9252 34.3818C32.9004 34.2891 32.9779 33.9887 33.0132 33.8913C33.0921 33.6769 33.2854 33.5519 33.5031 33.5865C33.5502 33.5938 33.5965 33.6064 33.6409 33.624C33.7232 33.6577 33.7865 33.6312 33.8229 33.5488C33.9125 33.3461 34.0465 33.1452 34.1328 32.941C34.2165 32.7437 34.1572 32.7601 34.1865 32.7669C34.2579 32.8317 35.2993 33.3653 35.6276 33.6441C35.4139 33.8878 34.9386 34.9912 34.919 35.3604" fill="#414141"/>
<path d="M35.6399 33.6266C36.3048 32.8695 36.7806 32.5445 37.437 32.3481C37.8362 32.2275 38.2532 32.1837 38.6673 32.2186C39.3641 32.2779 39.9933 32.5342 40.5476 32.9872C41.0361 33.3869 41.3921 33.8932 41.6348 34.4905C41.7833 34.8557 41.8618 35.2375 41.8984 35.6332C41.9509 36.2 41.8358 36.833 41.6512 37.3612C41.6138 37.3961 40.9338 36.9056 40.861 36.8101C40.8444 36.7586 40.865 36.7113 40.8775 36.6635C40.9444 36.4055 40.9877 36.1433 40.9799 35.8753C40.9432 34.5865 40.1098 33.5233 38.9571 33.2637C38.1064 33.072 37.2044 33.2656 36.3785 34.1496C36.3577 34.1618 36.3514 34.1353 36.2112 34.0335C35.9758 33.8827 35.86 33.7881 35.699 33.6854C35.6068 33.6287 35.6115 33.6594 35.6399 33.6266Z" fill="#414141"/>
<path d="M41.6646 37.324C41.6423 37.3612 41.6225 37.3996 41.6048 37.4394C41.402 37.9542 41.0772 38.3768 40.6815 38.7348C40.1639 39.2034 39.5635 39.4956 38.8818 39.5895C38.7147 39.6127 38.5474 39.638 38.3786 39.6323C37.8905 39.616 37.4187 39.5214 36.9682 39.3147C36.6822 39.1826 36.4146 39.0105 36.1726 38.8029C35.7958 38.4819 35.4897 38.0961 35.265 37.6389C35.0584 37.2177 34.9395 36.7722 34.8891 36.3028C34.8452 35.8987 34.8797 35.5021 34.96 35.1064C35.0518 34.6553 35.2231 34.2395 35.4623 33.8541C35.4964 33.7994 35.5954 33.6748 35.6275 33.6437C35.8015 33.7387 36.2759 34.0688 36.352 34.1405C36.4 34.2065 36.3113 34.2933 36.2839 34.3357C36.1381 34.5602 36.018 34.7974 35.9407 35.058C35.6715 35.9654 35.7949 36.8101 36.3373 37.5693C36.7898 38.2028 37.405 38.55 38.1574 38.6296C39.2293 38.7432 40.3293 38.1019 40.782 36.9705C40.807 36.9079 40.8006 36.8094 40.9025 36.8045C40.968 36.8836 41.5877 37.2795 41.6646 37.324Z" fill="#5F5F5F"/>
<path d="M40.9029 36.8045C40.8175 37.0351 40.7221 37.2598 40.5883 37.4651C40.1645 38.1148 39.5861 38.518 38.8496 38.657C38.1036 38.7975 37.4207 38.6221 36.8135 38.1495C36.2796 37.7334 35.9387 37.1737 35.8073 36.4884C35.6518 35.6784 35.8151 34.9329 36.2703 34.2594C36.2874 34.2341 36.3034 34.2088 36.3204 34.1835C36.3377 34.1618 36.5639 33.8986 36.674 33.8015C37.1621 33.3707 37.7204 33.1499 38.3586 33.1373C39.5544 33.1132 40.6329 33.966 40.944 35.205C41.0686 35.7008 41.0653 36.1981 40.9298 36.6926C40.9197 36.7293 40.9116 36.7672 40.9029 36.8045Z" fill="#EDAE50"/>
<path d="M39.1001 35.92C39.1202 36.3439 38.7508 36.6722 38.4003 36.6677C38.0001 36.6628 37.6718 36.3322 37.6756 35.9127C37.6789 35.5028 37.9831 35.1638 38.4052 35.1626C38.7569 35.1617 39.1195 35.4932 39.1001 35.92Z" fill="#414141"/>
<path d="M39.1407 34.5101C39.2222 34.5014 39.2901 34.5319 39.3465 34.5955C39.3964 34.6518 39.4499 34.7048 39.4987 34.7625C39.6119 34.8957 39.5428 35.1398 39.3964 35.1877C39.3325 35.2088 39.2738 35.21 39.2174 35.171C39.0969 35.0878 38.9941 34.9822 38.9027 34.8664C38.8059 34.7435 38.8551 34.5859 38.9993 34.5324C39.0446 34.515 39.0926 34.5073 39.1407 34.5101Z" fill="#FCD38C"/>
<path d="M19.9462 41.7445C19.748 41.6345 19.6303 41.4638 19.595 41.2292C19.5829 41.1494 19.562 41.0712 19.5464 40.9916C19.5354 40.9359 19.5088 40.9172 19.4536 40.9218C19.1028 40.953 18.7502 40.957 18.3989 40.9336C18.3513 40.9305 18.3036 40.9277 18.2564 40.9218C18.2113 40.9165 18.1878 40.9361 18.1786 40.9818C18.1619 41.0649 18.1394 41.1468 18.1264 41.2306C18.0862 41.4891 17.9518 41.6668 17.7231 41.7668C17.5767 41.8087 17.4304 41.7939 17.2842 41.7654C17.1487 41.7389 17.0096 41.7265 16.8868 41.6516C16.8396 41.6151 16.789 41.5835 16.7481 41.538C16.6022 41.3756 16.5418 41.1859 16.5795 40.9647C16.5937 40.8811 16.6125 40.7987 16.6285 40.7154C16.6555 40.573 16.6553 40.5723 16.5294 40.5255C16.2427 40.418 15.9631 40.2909 15.6923 40.1448C15.6271 40.1099 15.561 40.0753 15.4987 40.0355C15.4511 40.0046 15.4195 40.0111 15.3886 40.0587C15.3411 40.1317 15.2884 40.2012 15.2413 40.275C15.0405 40.5892 14.6465 40.6812 14.3368 40.4295C14.2557 40.3635 14.17 40.3036 14.0886 40.238C13.8012 40.0067 13.7488 39.638 13.9582 39.3254C14.013 39.2435 14.0691 39.1622 14.1264 39.0819C14.1536 39.044 14.1531 39.0131 14.1187 38.982C14.1019 38.967 14.0869 38.9499 14.071 38.934C13.8027 38.6652 13.5549 38.3747 13.3298 38.0649C13.266 37.9769 13.2654 37.9774 13.1716 38.0343C13.108 38.0727 13.0448 38.1115 12.9812 38.1502C12.6471 38.3515 12.3151 38.263 12.1086 37.9182C12.0803 37.8741 12.0696 37.858 12.04 37.8051C12.0035 37.7304 11.9595 37.6606 11.9264 37.5836C11.7856 37.2549 11.8837 36.9185 12.1786 36.7328C12.2477 36.6893 12.318 36.6474 12.3878 36.6041C12.4808 36.5462 12.4818 36.5455 12.4418 36.4446C12.3133 36.1201 12.2073 35.7865 12.1246 35.4461C12.1109 35.3899 12.0959 35.3342 12.0849 35.2776C12.0739 35.2209 12.0426 35.2024 11.9901 35.2094C11.892 35.2225 11.7937 35.2378 11.695 35.2436C11.4417 35.2591 11.2462 35.153 11.1139 34.924C11.0589 34.8297 11.0382 34.7241 11.0289 34.615C11.0221 34.5338 11.0069 34.461 11.0017 34.3736C10.9803 34.0445 11.1592 33.631 11.5524 33.6015C11.6364 33.5952 11.72 33.5819 11.8039 33.572C11.9008 33.5606 11.9042 33.5596 11.9064 33.4625C11.9127 33.1768 11.9348 32.8917 11.9725 32.6086C11.9879 32.4939 12.0055 32.3797 12.0247 32.2657C12.0431 32.1568 12.0432 32.1545 11.9402 32.1189C11.8631 32.0924 11.786 32.0676 11.7101 32.0404C11.3804 31.9232 11.2101 31.5924 11.3026 31.2405C11.3368 31.1103 11.3787 30.9822 11.4238 30.8558C11.5393 30.5297 11.8556 30.3654 12.1727 30.4639C12.2677 30.4934 12.3628 30.5229 12.4551 30.5601C12.5141 30.5833 12.5404 30.5639 12.5652 30.5091C12.6237 30.3801 12.6873 30.2537 12.7489 30.1266C12.7709 30.0828 12.7911 30.0477 12.8111 30.0074C12.8772 29.8798 12.9473 29.7541 13.0314 29.6377C13.107 29.5682 25.8384 37.4558 25.8027 37.5466C25.7781 37.5932 25.7585 37.6379 25.7351 37.6829C25.6902 37.7669 25.6476 37.8524 25.5999 37.9345C25.4183 38.2459 25.0876 38.3405 24.779 38.1708C24.698 38.1263 24.6201 38.0748 24.5405 38.027C24.4576 37.9774 24.4567 37.9769 24.4004 38.0535C24.2747 38.2246 24.1433 38.3906 24.0061 38.5514C23.8833 38.6949 23.7534 38.831 23.6212 38.9649C23.5604 39.0265 23.5606 39.0283 23.6074 39.0981C23.6601 39.177 23.7159 39.2538 23.7682 39.3329C23.9711 39.6403 23.9167 40.0104 23.6348 40.2366C23.5445 40.3092 23.4527 40.3796 23.3594 40.448C23.0666 40.6617 22.7187 40.6035 22.5021 40.3043C22.447 40.2275 22.3947 40.1479 22.3397 40.0706C22.2899 40.0011 22.288 39.9999 22.2151 40.0418C21.916 40.2144 21.6057 40.364 21.2863 40.4894C21.2416 40.507 21.1965 40.5234 21.152 40.5412C21.0715 40.5735 21.07 40.5747 21.086 40.6688C21.1002 40.7524 21.1121 40.8371 21.1349 40.9181C21.2199 41.2215 21.0423 41.5879 20.6482 41.7167C20.4778 41.7726 20.1087 41.8131 19.9462 41.7445Z" fill="#414141"/>
<path d="M25.7777 37.5691C25.5104 37.4057 23.1305 35.861 22.9638 35.7641C22.8734 35.7158 22.9028 35.71 22.9577 35.6016C23.1523 35.1635 23.2833 34.697 23.3462 34.218C23.3916 33.8689 23.3892 33.5184 23.3619 33.1668C23.3363 32.8357 23.2772 32.5082 23.1857 32.1903C23.069 31.785 22.9003 31.406 22.6919 31.0436C22.4594 30.6393 22.1632 30.2942 21.836 29.976C21.5844 29.7314 21.3001 29.5326 20.9998 29.3601C20.5487 29.0988 20.0579 28.9227 19.5493 28.8394C19.2299 28.7872 18.9075 28.7614 18.5851 28.7837C17.8991 28.8312 17.2496 29.0213 16.6455 29.3711C16.1689 29.6543 15.7424 30.0219 15.3847 30.4581C15.2935 30.5695 15.1637 30.791 15.0743 30.9033C15.023 30.9677 14.169 30.3841 13.0072 29.66C13.0501 29.5806 13.0914 29.5155 13.1372 29.4462C13.1657 29.4029 13.1634 29.3699 13.1262 29.3357C13.0549 29.269 12.9839 29.202 12.9139 29.1339C12.6915 28.9164 12.6395 28.628 12.7788 28.3447C12.8106 28.2799 12.8681 28.1274 12.9558 28.0167C12.9982 27.9631 13.0449 27.9142 13.0907 27.8643C13.315 27.6199 13.7509 27.6157 13.9849 27.8409C14.2682 28.1132 14.231 28.05 14.4695 27.857C14.6734 27.6927 14.8797 27.5323 15.0954 27.3848C15.2114 27.3057 15.2189 27.2673 15.1602 27.1346C15.0948 26.9865 15.0359 26.8376 15.0485 26.6685C15.0642 26.4596 15.1447 26.2809 15.3067 26.1649C15.538 25.9994 15.7836 25.8632 16.0787 25.8716C16.3224 25.8788 16.4931 26.0065 16.6169 26.2156C16.661 26.2908 16.6953 26.3729 16.7309 26.4534C16.764 26.5289 16.8175 26.5535 16.8925 26.5327C17.2085 26.4456 17.5286 26.3795 17.8507 26.3246C17.9678 26.3047 17.9914 26.2685 17.9959 26.146C17.998 26.1034 17.998 26.0608 17.9959 26.0183C17.9709 25.6289 18.2572 25.302 18.5957 25.2794C18.7823 25.2669 18.9692 25.252 19.1544 25.291C19.4268 25.349 19.6949 25.6119 19.6679 25.9727C19.6642 26.0226 19.6669 26.0731 19.6679 26.1236C19.6703 26.2718 19.6968 26.3082 19.8359 26.3292C20.1373 26.3736 20.4358 26.4378 20.7296 26.5213C20.8852 26.5661 20.9093 26.5499 20.974 26.3967C21.0248 26.2767 21.0757 26.1565 21.1654 26.0602C21.3467 25.8662 21.5723 25.8349 21.8074 25.8896C21.9935 25.933 22.1684 26.022 22.3287 26.132C22.5898 26.3114 22.685 26.6336 22.5787 26.9471C22.5566 27.0124 22.53 27.0762 22.5022 27.1393C22.4471 27.2631 22.4565 27.3083 22.566 27.3813C22.796 27.5333 23.0174 27.6988 23.2293 27.8776C23.4613 28.075 23.4199 28.1047 23.676 27.8608C23.9002 27.6468 24.2465 27.6213 24.451 27.7678C24.6583 27.916 24.8386 28.1029 24.9583 28.3365C25.0648 28.5446 25.0505 28.9272 24.8384 29.1196C24.7747 29.1777 24.7183 29.2442 24.6592 29.3076C24.608 29.3629 24.601 29.423 24.6416 29.4858C24.8312 29.7801 25.0009 30.0879 25.1494 30.407C25.1859 30.4855 25.2485 30.5054 25.3256 30.4796C25.4163 30.4489 25.509 30.4243 25.6028 30.4066C25.8538 30.3602 26.1302 30.4763 26.259 30.7083C26.384 30.9331 26.4611 31.1798 26.4689 31.4437C26.4774 31.7338 26.3401 31.9344 26.1053 32.0681C26.0273 32.1114 25.9451 32.1456 25.8602 32.1704C25.7704 32.1973 25.7319 32.2549 25.7501 32.3514C25.8134 32.6971 25.8345 33.0476 25.8553 33.3983C25.8607 33.4913 25.9032 33.5425 25.9919 33.5451C26.0581 33.5472 26.1231 33.5601 26.1883 33.5692C26.5251 33.6156 26.7553 33.8916 26.7565 34.2505C26.7572 34.32 26.7539 34.3893 26.7473 34.4586C26.7362 34.5675 26.6991 34.7239 26.67 34.826C26.5859 35.123 26.301 35.2858 26.0077 35.2661C25.9127 35.2598 25.8182 35.2438 25.7231 35.2338C25.6359 35.2249 25.6314 35.2261 25.6099 35.3171C25.5447 35.5908 25.4735 35.8626 25.3802 36.1274C25.3369 36.2505 25.2922 36.373 25.2431 36.4938C25.2211 36.5472 25.2303 36.5802 25.2773 36.608C25.37 36.6633 25.4634 36.7171 25.5527 36.7782C25.7912 36.9407 25.8895 37.2362 25.8028 37.5183C25.7957 37.5358 25.7874 37.5529 25.7777 37.5691Z" fill="#666059"/>
<path d="M16.0705 31.4706C16.1806 31.3315 16.2851 31.1869 16.4057 31.0564C16.9746 30.4405 17.662 30.079 18.4736 29.9828C19.1914 29.8976 19.8724 30.0292 20.5014 30.4021C21.4697 30.9761 22.0473 31.851 22.2295 33.0043C22.3353 33.6741 22.2551 34.3282 22.0026 34.9561C21.9884 34.9915 21.9782 35.0287 21.9662 35.0652C21.9937 35.1256 21.967 35.1776 21.943 35.23C21.8205 35.4969 21.6594 35.7362 21.4729 35.9553C20.9367 36.5853 20.2803 37.003 19.4838 37.1474C18.4265 37.3392 17.4725 37.0814 16.6432 36.3613C15.9706 35.7769 15.5653 35.0205 15.4347 34.1135C15.3332 33.4077 15.4177 32.7198 15.6953 32.0629C15.7626 31.9037 15.8443 31.7532 15.9266 31.6022C15.9602 31.5392 16.004 31.4924 16.0705 31.4706Z" fill="#EDAE50"/>
<path d="M16.685 33.5507C16.6668 32.2497 17.7232 31.2583 18.8437 31.2522C19.9427 31.2463 21.0394 32.1683 21.0413 33.5622C21.0432 34.8561 20.0462 35.8397 18.8826 35.8523C17.6149 35.8661 16.6617 34.7641 16.685 33.5507Z" fill="#45423D"/>
<path d="M21.0035 31.429C21.0217 31.6213 20.7931 31.7719 20.6342 31.661C20.5264 31.5855 20.4246 31.5088 20.3392 31.4084C20.2162 31.2642 20.2442 31.1143 20.4072 31.02C20.5279 30.9501 20.6404 30.9452 20.7519 31.0453C20.8303 31.1157 20.9063 31.1865 20.9626 31.2782C20.9911 31.3228 21.0055 31.3756 21.0035 31.429Z" fill="#FCD38C"/>
<path d="M17.1228 33.5662C17.0958 32.6264 17.8188 31.7096 18.8681 31.7139C19.8483 31.7178 20.6135 32.5461 20.6036 33.5819C20.594 34.6031 19.7904 35.4037 18.8352 35.3913C17.8449 35.3785 17.096 34.5003 17.1228 33.5662Z" fill="#EDAE50"/>
<path d="M18.8578 34.3027C18.4674 34.3027 18.1419 33.9607 18.1448 33.5486C18.1473 33.1424 18.446 32.8025 18.8624 32.798C19.2421 32.7941 19.5737 33.1246 19.5716 33.5549C19.5697 33.9742 19.2569 34.3032 18.8578 34.3027Z" fill="#414141"/>
<path d="M19.6824 32.3069C19.7235 32.3069 19.7636 32.3116 19.7985 32.3357C19.9502 32.4417 20.0314 32.5893 20.026 32.783C20.0231 32.8827 19.8875 32.9873 19.7951 32.9652C19.6387 32.9279 19.5113 32.8463 19.4243 32.6995C19.349 32.5726 19.3639 32.4664 19.4767 32.3765C19.5377 32.3285 19.6074 32.3088 19.6824 32.3069Z" fill="#FCD38C"/>
<path d="M16.0708 31.4703C15.9571 31.66 15.8471 31.851 15.7592 32.0561C15.6115 32.4019 15.5157 32.7699 15.4749 33.1468C15.4209 33.6218 15.4582 34.1037 15.5846 34.5635C15.7111 35.0233 15.9241 35.4512 16.211 35.8225C16.6471 36.3865 17.1967 36.7752 17.8552 36.9919C18.2368 37.1174 18.6298 37.1753 19.0278 37.1474C20.0691 37.0751 20.9182 36.608 21.5672 35.7434C21.7034 35.561 21.8209 35.3641 21.9178 35.1558C21.9323 35.1249 21.9502 35.0956 21.9666 35.0654C22.0571 35.1101 22.7614 35.5894 22.8815 35.6779C22.9292 35.7127 22.9076 35.7591 22.8849 35.8017C22.7612 36.0344 22.6305 36.2624 22.4731 36.4722C22.1291 36.9306 21.7279 37.3216 21.2533 37.628C20.7927 37.9258 20.2866 38.1372 19.7576 38.2531C19.3483 38.344 18.9337 38.3575 18.5204 38.3304C17.9706 38.2948 17.4437 38.148 16.9421 37.9029C16.5985 37.7369 16.2765 37.5253 15.9839 37.2731C15.4084 36.7735 14.962 36.17 14.6732 35.4412C14.4887 34.9732 14.3732 34.4782 14.331 33.9735C14.2649 33.2208 14.3782 32.4965 14.6297 31.7922C14.7219 31.5342 14.8435 31.2924 14.9735 31.0545C14.9862 31.0314 15.0006 31.0082 15.0153 30.9864C15.0943 30.8682 15.1093 30.8644 15.2267 30.9349C15.4238 31.0534 15.803 31.3013 15.9961 31.4254C16.0219 31.4387 16.0469 31.4537 16.0708 31.4703Z" fill="#666059"/>
<path d="M22.1928 34.3168C22.2924 33.8499 22.3017 33.3665 22.2202 32.8957C22.1387 32.4249 21.968 31.9761 21.7184 31.5762C21.3012 31.0094 20.7771 30.5318 20.1954 30.2371C19.8323 30.0723 19.4433 29.9805 19.0482 29.9664C18.0053 29.9273 17.1112 30.2912 16.3828 31.0825C16.2683 31.2091 16.1607 31.3426 16.0607 31.4821C15.975 31.4283 15.1861 31.004 15.0751 30.9031C15.0311 30.8631 15.3751 30.4525 15.5518 30.2607C15.9382 29.8412 16.3749 29.4947 16.8767 29.2409C17.3463 28.9857 17.8832 28.8399 18.4248 28.7792C18.8401 28.7319 19.2596 28.7437 19.6719 28.8141C20.2154 28.9082 20.7166 29.1311 21.1918 29.4289C21.5177 29.631 21.8178 29.8758 22.0846 30.1579C22.609 30.7165 22.9949 31.3646 23.2124 32.1205C23.3509 32.6059 23.418 33.1108 23.4114 33.6175C23.4042 34.3734 23.2241 35.0678 22.9625 35.6271C22.9107 35.7381 22.9577 35.7353 22.8074 35.6271C22.6227 35.488 22.1618 35.1973 21.9673 35.0657C21.9552 35.0559 22.114 34.6892 22.1928 34.3168Z" fill="#45423D"/>
<path d="M17.3499 14.6155C17.2697 14.3468 17.2082 14.0727 17.1406 13.8004C17.1228 13.7287 17.1428 13.7094 17.2154 13.6909C21.2317 12.6619 26.1156 13.4481 28.6241 14.2486C29.0217 14.3989 29.4086 14.5735 29.7665 14.8124C29.9218 14.9162 30.069 15.0305 30.1851 15.1837C30.2172 15.2257 30.2463 15.2703 30.2718 15.3172C30.3326 15.431 30.3461 15.5458 30.2891 15.6703C30.157 15.9591 30.0133 16.2415 29.858 16.5173C29.7575 16.6969 29.6545 16.8748 29.5526 17.0536C29.5046 17.1404 29.4509 17.2234 29.3916 17.3021C29.3398 17.353 29.2815 17.3285 29.2257 17.3153C28.9799 17.2573 28.7319 17.2119 28.4877 17.1486C28.4698 17.1439 28.4513 17.1518 28.4331 17.1525C28.1774 17.0652 27.9075 17.0553 27.6477 16.9901C27.6137 16.9815 27.5841 17.0032 27.5515 16.9974C27.1249 16.91 26.6923 16.8659 26.2628 16.8037C26.1118 16.7818 25.9558 16.7934 25.8095 16.7365C25.7535 16.6742 25.7433 16.5927 25.7244 16.5142C25.6161 16.0508 25.4755 15.601 25.2179 15.2016C25.1786 15.1409 25.136 15.083 25.0913 15.0266C24.9572 14.8571 24.7972 14.7563 24.5799 14.7262C24.0131 14.6477 23.4455 14.5798 22.8762 14.529C21.9289 14.4439 20.9806 14.4294 20.0317 14.4436C19.5634 14.4504 19.0955 14.4832 18.6281 14.5257C18.241 14.5605 17.8549 14.6018 17.4699 14.6556C17.4222 14.6604 17.381 14.6574 17.3499 14.6155Z" fill="#EDAE50"/>
<path d="M30.6676 22.7065C30.401 22.7045 30.1341 22.6987 29.8675 22.7027C29.7824 22.7038 29.7635 22.6517 29.745 22.5873C29.6727 22.5641 29.6748 22.4945 29.6637 22.4365C29.5775 21.9899 29.4964 21.542 29.4025 21.097C29.1716 20.0029 28.9123 18.9166 28.597 17.8457C28.5427 17.6612 28.4843 17.4781 28.4311 17.2931C28.415 17.2369 28.384 17.1755 28.4363 17.1191C28.4557 17.0959 28.4814 17.0959 28.5067 17.1006C28.8036 17.1587 29.1 17.2167 29.3917 17.3005C29.5831 17.8681 29.7441 18.4456 29.8928 19.027C30.0946 19.8172 30.2679 20.6147 30.4293 21.415C30.4896 21.7139 30.6669 22.6991 30.6676 22.7065Z" fill="#45423D"/>
<path d="M17.3505 14.6156C17.7013 14.5525 18.0554 14.5158 18.4093 14.4824C18.6645 14.4583 18.921 14.4428 19.1768 14.4244C19.8877 14.3724 20.5992 14.3734 21.3104 14.3861C21.8271 14.3953 22.3433 14.4241 22.8591 14.4673C23.2026 14.4961 23.5456 14.5292 23.8878 14.5704C24.1753 14.6052 24.4605 14.6554 24.7481 14.6949C24.8411 14.7075 24.9111 14.7555 24.9775 14.8195C25.2065 15.0399 25.3682 15.3096 25.4951 15.6039C25.6464 15.9536 25.7501 16.3193 25.8189 16.6963C25.8029 16.7492 25.762 16.7499 25.7206 16.7473C25.5379 16.7357 25.3547 16.7221 25.1727 16.7042C25.0121 16.6886 24.8509 16.681 24.6905 16.6715C24.4349 16.6566 24.1789 16.6274 23.9219 16.6424C23.8228 16.6483 23.7251 16.622 23.6262 16.6203C23.4923 16.6183 23.4507 16.6488 23.4042 16.7795C23.1304 17.5508 22.9049 18.338 22.7068 19.1342C22.4006 20.3642 22.1671 21.6103 21.9707 22.8642C21.9181 23.1994 21.8752 23.5361 21.8283 23.8722C21.8187 23.9406 21.8117 24.0107 21.7704 24.0695C21.7381 24.1036 21.697 24.1059 21.6576 24.0951C21.4735 24.045 21.2906 23.9891 21.1069 23.9376C21.0925 23.9341 21.0792 23.9271 21.068 23.917C21.0568 23.9068 21.0482 23.894 21.0428 23.8796C21.0132 23.7956 21.0318 23.7104 21.0437 23.6278C21.2309 22.2713 21.4601 20.9234 21.7616 19.5898C21.9748 18.6466 22.2178 17.713 22.529 16.7999C22.5762 16.6619 22.5497 16.6217 22.4121 16.6201C21.8664 16.6137 21.3217 16.6337 20.7763 16.6612C20.5022 16.6751 20.2283 16.6869 19.9549 16.7111C19.9367 16.7111 19.9183 16.7118 19.8999 16.7119C19.6145 16.7139 19.6079 16.7205 19.5179 17.0002C18.9942 18.6268 18.6281 20.2942 18.3453 21.9838C18.2607 22.4891 18.1865 22.9961 18.1112 23.5029C18.1044 23.5493 18.0995 23.595 18.0718 23.6339C18.0454 23.6788 18.0017 23.6848 17.9579 23.6919C17.7304 23.7267 17.5015 23.751 17.275 23.7933C17.224 23.803 17.1614 23.8144 17.1511 23.7279C17.1891 23.4608 17.2271 23.1937 17.2652 22.9266C17.3639 22.2318 17.4757 21.5394 17.6005 20.8495C17.7642 19.9456 17.9514 19.0488 18.1827 18.1628C18.2928 17.7425 18.4066 17.3231 18.5451 16.9119C18.5935 16.7678 18.5933 16.7678 18.4886 16.6683C18.2359 16.4273 17.9841 16.1853 17.7301 15.9458C17.6834 15.9027 17.6508 15.8452 17.6366 15.7815C17.5506 15.4303 17.4604 15.0802 17.3716 14.7297C17.3563 14.6939 17.3489 14.6549 17.3505 14.6156Z" fill="#45423D"/>
<path d="M17.3507 14.6149C17.364 14.6517 17.3792 14.688 17.3715 14.7291C17.3496 14.6944 17.3219 14.6603 17.3507 14.6149Z" fill="#A9A9A9"/>
<path d="M23.1812 24.7004C22.7592 24.4616 22.3167 24.2734 21.8642 24.1104C21.823 24.0955 21.7797 24.0845 21.7483 24.0489C21.7949 23.7088 21.8379 23.3681 21.8886 23.0287C22.0061 22.2429 22.1433 21.461 22.3002 20.6831C22.5392 19.5039 22.8251 18.3383 23.201 17.1986C23.2612 17.0162 23.3235 16.8346 23.3861 16.6532C23.4177 16.5614 23.4191 16.5611 23.5124 16.5639C24.0329 16.5794 24.5533 16.6004 25.0731 16.6347C25.3218 16.6511 25.5697 16.6752 25.8181 16.6959C26.2285 16.7375 26.6374 16.7907 27.0456 16.8516C27.2191 16.8776 27.3926 16.9015 27.5649 16.9353C27.6639 16.977 27.7254 17.0568 27.7852 17.1484C28.0126 17.4973 28.1936 17.8741 28.3444 18.2624C28.5021 18.6685 28.6463 19.0827 28.7436 19.5119C28.7819 19.6809 28.8365 19.8455 28.8758 20.0139C29.0048 20.568 29.1476 21.1184 29.2518 21.6789C29.3052 21.9663 29.362 22.2535 29.4322 22.5375C29.4511 22.6131 29.482 22.6986 29.3896 22.753C29.3797 22.7646 29.3717 22.7791 29.3594 22.786C29.196 22.8771 29.0857 23.0253 28.9783 23.1765C28.7989 23.4289 28.6214 23.6827 28.4432 23.936C28.3931 23.9592 28.3515 23.9399 28.3106 23.9089C28.096 23.747 27.8792 23.5878 27.6606 23.4315C27.5495 23.3517 27.541 23.3118 27.6155 23.1942C27.7214 23.0271 27.835 22.8658 27.9442 22.7011C27.9863 22.6378 28.0312 22.5762 28.0655 22.5077C28.1272 22.3836 28.1045 22.2597 28.0097 22.1856C27.9147 22.1115 27.7963 22.1265 27.7053 22.2341C27.5904 22.3699 27.4999 22.5255 27.4018 22.675C27.0903 23.1479 26.7783 23.6204 26.4655 24.0926C26.4362 24.1369 26.4062 24.1813 26.3864 24.2319C26.3405 24.3467 26.3724 24.4651 26.4651 24.5288C26.5608 24.5947 26.6712 24.5817 26.7523 24.4838C26.8657 24.3469 26.9558 24.1909 27.0546 24.0428C27.1174 23.9478 27.1803 23.8527 27.2453 23.7592C27.2905 23.6943 27.3406 23.6846 27.4058 23.7287C27.6434 23.8897 27.8703 24.0669 28.1021 24.2365C28.1409 24.2649 28.1792 24.2986 28.1778 24.3568C28.1052 24.4813 28.0329 24.6061 27.9598 24.7301C27.9232 24.7924 27.884 24.853 27.8478 24.9158C27.697 25.1753 27.6923 25.4437 27.8223 25.7101C28.1723 26.4276 28.5359 27.1373 28.9464 27.8191C28.9975 27.9041 29.0523 27.986 29.1036 28.0703C29.2483 28.3077 29.4643 28.403 29.7186 28.4112C29.9638 28.4187 30.2084 28.3903 30.4526 28.3679C30.4469 29.442 30.1552 30.4246 29.609 31.3289C29.5324 31.4554 29.4497 31.5095 29.3005 31.505C28.9051 31.4924 28.5092 31.5027 28.1135 31.5038C28.0336 31.4921 28.0364 31.4177 28.0253 31.3617C27.9785 31.1314 27.9168 30.9054 27.8516 30.6802C27.6013 29.8112 27.2385 28.9826 26.7733 28.2183C26.623 27.971 26.4551 27.7376 26.2977 27.4962C26.1514 27.2949 25.9935 27.1034 25.8307 26.9175C25.5404 26.5864 25.2393 26.2665 24.9097 25.9776C24.4331 25.5622 23.9225 25.192 23.384 24.8712C23.3094 24.824 23.22 24.7946 23.1812 24.7004Z" fill="#B9E1E1"/>
<path d="M29.3665 22.7802C29.397 22.7105 29.3944 22.6145 29.3786 22.5489C29.2394 21.9774 28.257 17.9933 27.7016 17.1165C27.6342 17.0102 27.6184 16.9821 27.5654 16.9355C27.8264 16.9569 28.0821 17.0149 28.3407 17.0529C28.3606 17.0554 28.3795 17.0626 28.3963 17.0743C28.4128 17.0858 28.4265 17.1014 28.4364 17.1197C28.7834 18.2298 29.081 19.3544 29.3294 20.4934C29.4816 21.1875 29.6379 21.9333 29.762 22.6337L29.7639 22.6383C29.7889 22.6871 29.7953 22.6736 29.6499 22.6928C29.5599 22.705 29.4386 22.7473 29.3665 22.7802Z" fill="#DCF9FB"/>
<path d="M21.0678 23.8655C20.8419 23.8191 20.6162 23.7684 20.3898 23.7276C20.1196 23.6794 19.8472 23.6461 19.5737 23.6279C19.3149 23.6101 19.0583 23.6047 18.799 23.6041C18.6533 23.6041 18.5057 23.6191 18.3591 23.6077C18.2991 23.5592 18.3099 23.4934 18.3186 23.4274C18.4429 22.4826 18.5875 21.5419 18.776 20.6078C18.9082 19.9498 19.057 19.2966 19.2401 18.6528C19.415 18.0378 19.6188 17.4336 19.9346 16.8798C19.9821 16.7965 19.9896 16.7276 19.9393 16.6495C19.9741 16.6347 20.0111 16.6349 20.0476 16.6331C20.8787 16.5934 21.7097 16.5504 22.542 16.5584C22.5779 16.5584 22.6152 16.5495 22.6502 16.5683C22.6641 16.6099 22.6408 16.6439 22.6288 16.6786C22.2618 17.7345 21.9845 18.8187 21.7457 19.914C21.5431 20.8432 21.375 21.7794 21.23 22.7203C21.1716 23.1016 21.122 23.4839 21.0678 23.8655Z" fill="#B9E1E1"/>
<path d="M20.0117 16.6354C20.1605 16.6171 20.1464 16.6257 20.0572 16.7863C19.8163 17.2198 19.6134 17.6655 19.4585 18.1358C19.3686 18.4083 19.2815 18.6834 19.2142 18.9646C19.1407 19.2714 19.054 19.5746 18.9859 19.883C18.9168 20.1951 18.8585 20.5096 18.7947 20.8229C18.7292 21.1437 18.6625 21.4642 18.6127 21.7881C18.5356 22.2909 18.4612 22.794 18.3894 23.2975C18.3748 23.4 18.3563 23.5031 18.3593 23.608C18.3222 23.6256 18.068 23.6532 18.0486 23.608C18.0653 23.3612 18.1093 23.1182 18.1455 22.8743C18.2351 22.2719 18.3359 21.6714 18.4477 21.0729C18.7086 19.6898 19.0301 18.3229 19.461 16.9871C19.4882 16.9031 19.5204 16.8207 19.5445 16.7358C19.5586 16.686 19.5867 16.6676 19.6317 16.6662C19.7349 16.6607 19.9934 16.6346 20.0117 16.6354Z" fill="#DCF9FB"/>
<path d="M33.7523 33.6493C33.4958 33.6284 33.2103 33.4161 33.0063 33.9648C32.8035 34.5087 33.1016 34.7182 33.0567 34.7C33.0345 34.6969 33.0122 34.6962 32.9898 34.6979C32.822 34.7 32.6485 34.6707 32.4809 34.6705C32.4216 34.6417 32.4355 34.5906 32.4454 34.541C32.5298 34.1133 32.6591 33.697 32.8309 33.2995C33.0583 32.7781 33.3365 32.29 33.6852 31.8468C34.17 31.2311 34.7377 30.7212 35.3981 30.3251C36.0852 29.9125 36.8229 29.6576 37.6046 29.5464C37.9821 29.4928 38.3629 29.4729 38.7446 29.501C38.8892 29.5117 39.0025 29.4495 39.0802 29.3237C39.1121 29.2725 39.1471 29.2336 39.2015 29.2132C39.2644 29.2125 39.3216 29.2406 39.3816 29.2547C39.5137 29.2861 39.5274 29.2809 39.5853 29.1549C39.6789 28.9515 39.7761 28.7499 39.8971 28.5619C39.9267 28.5418 39.9515 28.5144 39.9694 28.4823C40.1261 28.2295 40.3266 28.0204 40.5622 27.8488C40.5689 27.8455 40.5764 27.8441 40.5835 27.8451C40.6688 27.8451 40.6911 27.9137 40.7116 27.9806C40.8019 28.2749 40.9033 28.564 41.0288 28.8443C41.2366 29.3083 41.4931 29.7377 41.8225 30.1165C41.8715 30.1731 41.9336 30.2235 41.9048 30.3155C41.7334 30.6327 41.5618 30.9499 41.3902 31.2669C41.3649 31.3135 41.3373 31.3587 41.3106 31.4046C41.2628 31.4844 41.2089 31.56 41.1496 31.6307C41.1342 31.6188 41.1179 31.6085 41.1007 31.5996C41.0908 31.5947 41.0721 31.5771 41.0624 31.5715C40.8828 31.4687 40.9083 31.4619 40.9979 31.2699C41.0539 31.1489 41.0832 31.0262 41.0477 30.8897C41.0336 30.8333 41.0087 30.7806 40.9745 30.735C40.9402 30.6893 40.8974 30.6516 40.8487 30.6243C40.7338 30.5585 40.6145 30.4964 40.4833 30.4676C40.2992 30.4274 40.1068 30.5173 40.0181 30.6926C39.9888 30.7507 39.9683 30.813 39.9411 30.8719C39.9021 30.9583 39.8796 30.9703 39.7945 30.9448C39.5686 30.8769 39.3405 30.8214 39.1065 30.794C39.0845 30.7912 39.0637 30.7823 39.0419 30.7802C38.9795 30.7725 38.9531 30.7338 38.9538 30.6704C38.9538 30.6086 38.9498 30.5465 38.9538 30.4847C38.9682 30.2508 38.8268 30.0928 38.6217 30.0502C38.4737 30.0193 38.321 30.0214 38.174 30.0563C37.9859 30.1008 37.8745 30.2218 37.8483 30.4276C37.8377 30.5037 37.8315 30.5807 37.8296 30.6577C37.8287 30.7582 37.8221 30.7666 37.7259 30.7865C37.6072 30.8111 37.4876 30.8296 37.3687 30.8532C37.2463 30.878 37.1252 30.9087 37.0054 30.9455C36.9274 30.9693 36.9092 30.9597 36.8766 30.8832C36.8468 30.8127 36.8187 30.7415 36.7801 30.6755C36.6785 30.5013 36.4946 30.421 36.3065 30.4721C36.1713 30.5093 36.0427 30.569 35.9257 30.6493C35.755 30.7654 35.6926 30.9846 35.765 31.191C35.7865 31.2524 35.8179 31.3097 35.8432 31.3699C35.8749 31.4455 35.872 31.4636 35.8092 31.5041C35.5867 31.6476 35.3809 31.815 35.1762 31.9842C35.1164 32.0339 35.0998 32.0343 35.044 31.98C34.9942 31.9287 34.9412 31.8808 34.8859 31.8365C34.7285 31.7166 34.5134 31.7152 34.3654 31.8468C34.2624 31.9386 34.1648 32.0385 34.0912 32.1612C33.9799 32.3469 34.0057 32.5674 34.1574 32.7182C34.2187 32.7793 34.225 32.784 34.3248 32.8558C34.1716 33.0171 33.8721 33.4533 33.7844 33.6249" fill="#414141"/>
<path d="M31.7021 34.6487C31.0859 34.648 30.4697 34.6473 29.8535 34.6466C28.874 34.6466 27.8948 34.6466 26.9153 34.6466C26.6893 34.6466 26.6855 34.6391 26.717 34.4057C26.7389 34.2355 26.743 34.0658 26.6522 33.911C26.5546 33.7441 26.4165 33.6371 26.2312 33.6071C26.1407 33.5917 26.0495 33.5818 25.958 33.5779C25.8478 33.5746 25.8277 33.5458 25.8237 33.4287C25.8105 33.0504 25.7812 32.6744 25.7122 32.3017C25.6847 32.1542 25.6923 32.1418 25.8327 32.1011C25.9462 32.068 26.0568 32.0271 26.1579 31.9629C26.4099 31.8033 26.4837 31.5305 26.4234 31.2503C26.3957 31.1225 26.3539 30.9979 26.3132 30.8738C26.2076 30.5519 25.9277 30.3845 25.6105 30.447C25.5018 30.4686 25.3976 30.5051 25.2928 30.54C25.2068 30.569 25.1959 30.566 25.156 30.4779C24.9894 30.1078 24.7928 29.7533 24.5684 29.4186C24.5262 29.3563 24.5284 29.3366 24.5926 29.2858C24.6808 29.2153 24.7521 29.1262 24.8338 29.0489C25.0304 28.8632 25.0269 28.4725 24.9093 28.2859C24.7985 28.1103 24.6581 27.961 24.5053 27.8299C24.3131 27.6641 23.9761 27.6582 23.7624 27.8605C23.6888 27.9303 23.6054 27.9884 23.5403 28.0677C23.5013 28.1155 23.4652 28.1164 23.4191 28.0754C23.3102 27.978 23.2002 27.8818 23.0872 27.7898C22.91 27.6456 22.7237 27.5159 22.5347 27.3892C22.3709 27.2794 22.3785 27.304 22.4618 27.1223C22.4965 27.0499 22.5271 26.9754 22.5532 26.899C22.6485 26.6019 22.5621 26.2763 22.2582 26.1138C22.1272 26.0442 21.9955 25.9724 21.8542 25.9319C21.656 25.875 21.4625 25.8855 21.2882 26.0218C21.2175 26.0779 21.1608 26.1512 21.123 26.2354C21.0761 26.3359 21.0349 26.4393 20.99 26.5407C20.956 26.6172 20.9485 26.622 20.8717 26.5965C20.5772 26.4991 20.2761 26.4325 19.9715 26.3815C19.8992 26.3699 19.8266 26.3583 19.7541 26.3474C19.6491 26.3314 19.641 26.3228 19.6391 26.2067C19.6377 26.1101 19.638 26.0135 19.6391 25.9166C19.6416 25.6483 19.507 25.4757 19.2891 25.3637C19.2265 25.3304 19.1579 25.3113 19.0879 25.3076C18.9233 25.3017 18.7584 25.2907 18.5941 25.3192C18.2808 25.3745 18.0862 25.6049 18.0765 25.9386C18.074 26.0236 18.0765 26.1086 18.0755 26.1939C18.0739 26.3242 18.0689 26.3281 17.9498 26.3481C17.5839 26.4091 17.2191 26.4758 16.8636 26.5891C16.7788 26.616 16.7687 26.6102 16.7299 26.522C16.693 26.4379 16.657 26.3533 16.6198 26.2692C16.4733 25.9349 16.1336 25.8269 15.8206 25.9471C15.7033 25.9918 15.5889 26.0444 15.4779 26.1043C15.2959 26.2035 15.1758 26.3567 15.1365 26.5748C15.1163 26.6894 15.1265 26.8075 15.166 26.9163C15.2002 27.0145 15.2455 27.1072 15.2882 27.2013C15.3244 27.2811 15.3203 27.2993 15.2511 27.3436C14.9589 27.5304 14.6859 27.7453 14.4195 27.9701C14.3853 27.9991 14.3534 28.0317 14.3204 28.0614C14.2634 28.1117 14.2459 28.1117 14.1882 28.0593C14.1244 28.0012 14.0587 27.9453 13.999 27.8828C13.774 27.647 13.3527 27.6484 13.1343 27.8989C13.0699 27.9727 13.0085 28.0497 12.9424 28.1218C12.8625 28.2087 12.8572 28.2056 12.7752 28.126C12.7056 28.0584 12.5415 27.9064 12.5298 27.8973C12.4205 27.7687 12.425 27.7678 12.5357 27.6362C13.4768 26.5171 14.6698 25.6652 16.0051 25.1588C16.6781 24.9035 17.3708 24.7371 18.0825 24.6725C18.5172 24.6344 18.954 24.6301 19.3893 24.6595C19.9788 24.6967 20.5631 24.7987 21.1325 24.9637C21.5997 25.0983 22.0541 25.2779 22.49 25.5004C22.7878 25.6483 23.0767 25.8155 23.355 26.0009C23.7449 26.261 24.1139 26.5542 24.4585 26.8776C24.7882 27.1895 25.0977 27.5243 25.385 27.8797C25.424 27.9308 25.4604 27.9839 25.4942 28.0389C25.763 28.3585 25.9788 28.7179 26.1804 29.0852C26.5855 29.8212 26.8886 30.6144 27.0802 31.4406C27.1474 31.7297 27.1918 32.0231 27.2414 32.3157C27.2845 32.5709 27.4622 32.6583 27.6804 32.5346C27.9539 32.3799 28.1276 32.0114 28.0879 31.6853C28.0791 31.6146 28.0328 31.5345 28.1049 31.468C28.1621 31.4341 28.225 31.4369 28.2874 31.4366C28.6176 31.4357 28.9475 31.4322 29.2775 31.4383C29.4137 31.4409 29.5049 31.3872 29.5779 31.2683C29.8507 30.8228 30.0587 30.3368 30.1946 29.8264C30.3019 29.4279 30.379 29.0236 30.405 28.6092C30.4083 28.5668 30.4076 28.524 30.4031 28.4816C30.3974 28.4313 30.4092 28.3899 30.4534 28.3634C30.525 28.362 30.6818 28.3526 30.6888 28.3519C30.9628 28.3348 30.9628 28.3351 30.9633 28.6251C30.9633 28.8457 30.9621 29.066 30.964 29.2858C30.9656 29.4874 31.0167 29.5494 31.2037 29.5991C31.6513 29.7192 32.1044 29.758 32.5661 29.7327C32.7795 29.721 32.988 29.6808 33.1998 29.663C33.2435 29.6578 33.2863 29.6461 33.3269 29.6283C33.4555 29.5764 33.4933 29.5239 33.4952 29.3767C33.4985 29.1025 33.4943 28.8281 33.4976 28.5537C33.4983 28.494 33.4867 28.4283 33.5371 28.3798C33.6203 28.3124 33.6997 28.3639 33.7739 28.3966C33.9576 28.4779 34.0956 28.6221 34.2225 28.7783C34.4575 29.0672 34.6317 29.3973 34.7971 29.7332C34.8115 29.7601 34.8177 29.7913 34.8146 29.8222C34.8089 29.8973 34.7572 29.9348 34.7045 29.9708C34.2717 30.2654 33.8833 30.6151 33.5259 31.0054C33.1163 31.4528 32.7764 31.9529 32.4885 32.4934C32.1541 33.1211 31.9269 33.7902 31.7927 34.4956C31.7811 34.5548 31.7924 34.6386 31.7021 34.6487Z" fill="#45423D"/>
<path d="M31.7016 34.6487C31.7293 34.5169 31.756 34.3849 31.7853 34.2542C32.0247 33.1792 32.4847 32.2198 33.1489 31.3676C33.59 30.7982 34.113 30.3052 34.6992 29.9065C34.7328 29.8833 34.7699 29.8648 34.7909 29.8252C34.8172 29.7789 36.8161 28.4236 39.0517 28.859C39.1845 28.9609 39.2003 29.1566 39.128 29.3341C39.0573 29.5073 38.9257 29.5616 38.7148 29.5565C38.5203 29.5513 38.326 29.5403 38.1324 29.5515C37.8065 29.5689 37.4827 29.6122 37.1631 29.6812C36.2878 29.8746 35.4908 30.2492 34.7756 30.8146C33.94 31.475 33.3094 32.3104 32.8766 33.311C32.701 33.7195 32.5689 34.1475 32.4823 34.5867C32.4769 34.6129 32.4053 35.0373 32.3831 35.2249C32.3632 35.3988 32.284 35.5203 32.1245 35.5777C31.8902 35.662 31.6399 35.4819 31.635 35.2211C31.6321 35.0898 31.6591 34.9608 31.6778 34.8313C31.6853 34.7798 31.6934 34.6571 31.7016 34.6487Z" fill="#A19D98"/>
<path d="M29.7944 33.7448C29.3948 33.7448 28.9951 33.746 28.5956 33.7441C28.4084 33.7431 28.2727 33.6469 28.1954 33.4704C28.1181 33.2936 28.142 33.1223 28.2541 32.9689C28.3432 32.8477 28.4706 32.8011 28.6119 32.7964C28.7072 32.7933 28.8027 32.7952 28.8984 32.7952C29.573 32.7957 30.2476 32.7962 30.9222 32.7966C31.05 32.7966 31.1692 32.8198 31.2706 32.9113C31.4105 33.0378 31.4674 33.2428 31.4091 33.4255C31.3807 33.5179 31.3252 33.5987 31.2507 33.6563C31.176 33.7137 31.0862 33.745 30.9938 33.7455C30.5941 33.7476 30.1941 33.7448 29.7944 33.7448Z" fill="#FCBE4F"/>
<path d="M17.151 23.7267C17.176 23.7477 17.2046 23.7483 17.234 23.7421C17.4841 23.6906 17.7369 23.6609 17.99 23.6333C18.0121 23.6307 18.001 23.6311 18.0635 23.6248C18.9523 23.5552 20.1371 23.6065 21.0688 23.8657C21.2742 23.9256 21.4811 23.9702 21.6868 24.0296C21.7078 24.0309 22.7143 24.4186 23.1053 24.64C23.1403 24.6664 23.1573 24.6804 23.1824 24.7006C23.1984 24.8905 23.1424 25.0333 23.0371 25.1629C22.8905 25.3435 22.6967 25.473 22.48 25.5551C22.2012 25.4274 21.9237 25.2967 21.6358 25.192C21.1263 25.0066 20.6014 24.8722 20.068 24.7904C19.6033 24.7207 19.134 24.6908 18.6646 24.7011C18.1109 24.7108 17.5596 24.7806 17.0194 24.9093C15.3428 25.306 13.8225 26.2364 12.6648 27.5742C12.6278 27.6171 12.59 27.6592 12.5529 27.7018C12.4758 27.791 12.4421 27.8488 12.3853 27.9195C12.2909 28.0375 12.199 28.1579 12.1071 28.278C11.8923 28.5582 11.5148 28.5732 11.2797 28.2794C11.1205 28.0804 11.1475 27.7805 11.2771 27.5915C11.4183 27.3893 11.5693 27.1947 11.7294 27.0087C11.8931 26.8158 12.0525 26.6188 12.2319 26.4416C12.4834 26.1935 12.7338 25.9434 13.0072 25.7221C13.9411 24.9665 14.9646 24.3903 16.0927 24.0264C16.3908 23.93 16.6935 23.8504 16.9997 23.7879C17.0536 23.7772 17.1103 23.7731 17.151 23.7267Z" fill="#EDAE50"/>
<path d="M26.3287 27.4623C26.6019 27.803 26.8243 28.1801 27.039 28.5624C27.2916 29.0119 27.5015 29.4834 27.6795 29.9711C27.8426 30.4187 27.9837 30.8734 28.0775 31.3433C28.0887 31.3962 28.1019 31.4477 28.1142 31.5008C28.1388 31.645 28.1669 31.7878 28.1369 31.9363C28.0757 32.2411 27.9315 32.4796 27.6563 32.6124C27.4257 32.7238 27.2257 32.6075 27.1879 32.3429C27.0888 31.6467 26.9269 30.967 26.6802 30.3113C26.388 29.5354 26.0056 28.8143 25.5189 28.1541C25.4967 28.1239 25.4761 28.0919 25.4548 28.0607C25.5075 27.8765 25.6165 27.7276 25.7215 27.5745C25.7805 27.4885 25.8715 27.5026 25.9477 27.4773C26.0706 27.4366 26.1996 27.4033 26.3287 27.4623Z" fill="#EDAE50"/>
<path d="M26.2657 27.4466C25.6632 27.3953 25.4739 28.0213 25.4545 28.0607C25.1943 27.7268 24.9198 27.407 24.6209 27.1104C24.0136 26.5057 23.3245 25.9994 22.5761 25.6081C22.5431 25.591 22.5112 25.5732 22.4788 25.555C22.5068 25.5202 22.7548 25.469 22.9615 25.1721C23.1364 24.9209 23.1776 24.7506 23.1811 24.7005C23.3784 24.7786 23.5506 24.9055 23.7295 25.0181C24.0388 25.2112 24.3361 25.4248 24.6196 25.6576C24.8758 25.8697 25.1244 26.0906 25.3611 26.328C25.5233 26.4905 25.6753 26.6626 25.8287 26.8329C26.0071 27.0311 26.187 27.2304 26.3281 27.4625" fill="#FCD38C"/>
<path d="M41.8953 30.3131C41.8305 30.1994 41.7322 30.116 41.653 30.0142C41.2273 29.467 40.9222 28.8511 40.7071 28.1832C40.6825 28.1064 40.6601 28.0289 40.6352 27.9521C40.6248 27.9195 40.617 27.8823 40.5731 27.8835C40.0304 27.3939 39.3752 27.1209 38.7337 26.8219C37.7646 26.3707 36.7525 26.0607 35.7288 25.7874C34.9258 25.5731 34.1125 25.4142 33.2965 25.2672C33.2223 25.2538 33.1429 25.2473 33.0916 25.1743C33.0781 25.1214 33.0781 25.0673 33.0781 25.0134C33.077 24.374 33.0772 23.7347 33.0791 23.0953C33.0791 23.0257 33.0588 22.9456 33.1301 22.8941C33.2909 22.9358 33.457 22.9358 33.6204 22.9597C33.9286 23.0047 34.2389 23.0382 34.5469 23.0873C34.9457 23.1502 35.3456 23.2061 35.7413 23.2897C36.0143 23.3477 36.2889 23.3965 36.5615 23.4578C36.881 23.5296 37.2004 23.6023 37.5157 23.6869C38.0416 23.8276 38.5673 23.9705 39.0797 24.1604C39.2837 24.2359 39.486 24.3175 39.6926 24.3846C39.903 24.4528 40.068 24.589 40.2249 24.7424C40.5665 25.076 40.9071 25.4105 41.2366 25.7573C41.4568 25.9893 41.6781 26.2198 41.8882 26.4625C41.9792 26.5676 42.0799 26.6638 42.1747 26.7661C42.3383 26.9431 42.4905 27.1312 42.6583 27.3045C42.7928 27.4438 42.8724 27.6192 42.8824 27.8198C42.8963 28.1019 42.8876 28.3817 42.8197 28.6591C42.6945 29.1695 42.4638 29.6199 42.1508 30.027C42.0723 30.1284 41.9913 30.2281 41.8953 30.3131Z" fill="#EDAE50"/>
<path d="M28.1782 24.3544L27.4199 23.8002C27.4074 23.7923 27.3953 23.7833 27.3842 23.7733C27.3384 23.7269 27.3107 23.7482 27.2819 23.7965C27.2389 23.8682 27.1906 23.9365 27.1443 24.0061C27.0346 24.1702 26.9273 24.3362 26.8146 24.4979C26.7309 24.618 26.6248 24.655 26.5075 24.6164C26.3322 24.5584 26.253 24.3594 26.34 24.1871C26.3671 24.1328 26.4033 24.0833 26.4369 24.0327C26.8226 23.4503 27.2086 22.8679 27.5948 22.2856C27.6189 22.247 27.6457 22.2101 27.6747 22.1754C27.7754 22.0612 27.9281 22.0433 28.0437 22.129C28.0997 22.1704 28.1394 22.2322 28.1553 22.3025C28.1709 22.3728 28.1612 22.4468 28.1283 22.5101C28.094 22.578 28.0501 22.6406 28.0082 22.7038C27.8884 22.8841 27.7674 23.0635 27.6471 23.2433C27.5991 23.315 27.5979 23.3165 27.6667 23.3669C27.925 23.5568 28.1841 23.7461 28.4431 23.9348L28.1782 24.3544Z" fill="#45423E"/>
<path d="M31.3046 22.7506C31.3401 22.777 31.3377 22.8171 31.3377 22.8551C31.3386 23.5327 31.3386 24.2101 31.3377 24.8875C31.3386 24.9107 31.3349 24.9337 31.3266 24.9552C31.2812 25.0132 31.2164 25.0109 31.1552 25.0111C30.9283 25.0123 30.7016 24.9995 30.475 24.9949C29.8417 24.9805 29.2085 24.9892 28.5743 24.9905C28.5304 24.9905 28.4862 24.993 28.4453 25.0137C28.4212 25.0253 28.3992 25.042 28.4027 25.0739C28.4061 25.1058 28.4316 25.1156 28.4571 25.1227C28.4748 25.1275 28.493 25.1298 28.5115 25.1293C28.8223 25.1223 29.1331 25.1358 29.4446 25.1153C29.7436 25.0955 30.0441 25.1015 30.3445 25.1205C30.6035 25.1369 30.8636 25.1437 31.1231 25.1536C31.1893 25.156 31.2552 25.1513 31.3141 25.1927C31.3434 25.348 31.3895 25.5016 31.358 25.6632C31.3573 25.678 31.3535 25.6924 31.3464 25.7052C31.298 25.766 31.2226 25.7673 31.1597 25.7949C31.0406 25.8471 30.9813 25.9323 30.985 26.0708C31.0021 26.7036 30.9548 27.3357 30.9631 27.9682C30.964 28.0415 30.9654 28.1146 30.9732 28.1878C30.9898 28.3459 30.9484 28.3978 30.7969 28.414C30.7569 28.4182 30.7165 28.4194 30.6759 28.4206C30.6054 28.4215 30.535 28.422 30.4648 28.4161C30.2589 28.4501 30.0505 28.4524 29.8429 28.4674C29.4581 28.4945 29.1757 28.3297 28.9752 27.98C28.697 27.4949 28.4162 27.0114 28.1617 26.5117C28.0475 26.2875 27.9414 26.0591 27.821 25.838C27.6277 25.4827 27.6258 25.1354 27.8515 24.7954C27.9501 24.6472 28.022 24.4803 28.1397 24.346C28.2049 24.1844 28.3106 24.0498 28.4056 23.9078C28.6235 23.5693 28.8535 23.24 29.1012 22.9248C29.1768 22.8286 29.282 22.7693 29.3789 22.7003C29.5075 22.6636 29.9739 22.6539 30.0921 22.6498C30.2263 22.6451 30.361 22.648 30.4953 22.6498C30.5593 22.6503 31.1812 22.6858 31.3046 22.7506Z" fill="#EDAE50"/>
<path d="M39.2063 29.2652C39.1647 29.2409 39.1389 29.2071 39.1417 29.1538C39.1502 28.9913 39.0505 28.9112 38.9283 28.8515C38.7659 28.789 37.5273 28.6663 36.2961 29.117C35.8631 29.2647 35.4454 29.449 35.0526 29.6929C34.9803 29.7379 34.9001 29.7685 34.8323 29.8224C34.8228 29.8299 34.8046 29.825 34.7905 29.8259C34.6938 29.6805 34.63 29.5159 34.543 29.3647C34.4083 29.1308 34.2657 28.9037 34.0835 28.7066C33.9405 28.5516 33.7783 28.4329 33.5734 28.3894C33.5172 28.3941 33.5086 28.3505 33.5018 28.3084C33.4956 28.2585 33.4935 28.2082 33.4954 28.1581C33.4954 27.8071 33.4895 27.456 33.4968 27.1051C33.5037 26.773 33.4675 26.4427 33.472 26.1109C33.4737 25.9847 33.4169 25.899 33.3068 25.85C33.2628 25.8304 33.2203 25.8079 33.1792 25.7827C33.1477 25.7632 33.1137 25.7431 33.1274 25.6935L33.1316 25.4426C33.168 25.3893 33.2177 25.3968 33.2706 25.4052C33.88 25.5018 34.4853 25.6211 35.0864 25.7632C35.809 25.9354 36.5275 26.1244 37.2309 26.3707C37.7949 26.568 38.353 26.7824 38.8933 27.0449C39.1495 27.1694 39.4109 27.2839 39.6449 27.4524C39.7331 27.5159 39.8038 27.6004 39.8709 27.6882C40.0305 27.897 39.99 28.1396 39.9751 28.3772C39.9707 28.4514 39.9371 28.5205 39.9312 28.5952C39.7931 28.8162 39.6754 29.0503 39.5795 29.2947C39.5599 29.3455 39.5336 29.3645 39.4785 29.3448C39.3899 29.3132 39.2975 29.2914 39.2063 29.2652Z" fill="#EDAE50"/>
<path d="M39.9328 28.5954C39.9021 28.5334 39.9071 28.4662 39.9184 28.4025C39.9425 28.2681 39.934 28.1333 39.934 27.9984C39.934 27.8662 39.8645 27.7636 39.7887 27.6695C39.6932 27.5517 39.5762 27.4555 39.4447 27.3865C38.8297 27.0572 38.1929 26.7831 37.5413 26.5451C37.0704 26.3729 36.5954 26.2158 36.1127 26.0856C35.5024 25.9211 34.89 25.7693 34.2702 25.6447C33.914 25.5732 33.5552 25.5196 33.1988 25.4499C33.1773 25.4457 33.1548 25.4449 33.1333 25.4424C33.1333 25.3573 33.1333 25.2725 33.1333 25.1878C33.3522 25.2098 33.5677 25.2556 33.7838 25.2966C34.0648 25.3498 34.3454 25.4063 34.6255 25.4662C34.9193 25.5297 35.2136 25.5913 35.5043 25.6726C35.7269 25.7348 35.9522 25.7877 36.1756 25.849C36.7218 25.9989 37.2614 26.1712 37.7944 26.3657C38.2275 26.5237 38.6463 26.7196 39.0673 26.909C39.4679 27.0899 39.8565 27.2994 40.2302 27.5356C40.3399 27.6047 40.4406 27.6894 40.5441 27.769C40.5807 27.7971 40.6138 27.831 40.5741 27.8835C40.4344 28.0139 40.2902 28.1389 40.1664 28.2876C40.0839 28.3866 40.0111 28.4927 39.9328 28.5954Z" fill="#FCD38C"/>
<path d="M31.3042 24.9561L31.3049 25.2106C30.5717 25.1471 29.2046 25.1471 28.5146 25.1881C28.4621 25.1854 28.4099 25.1797 28.3579 25.171C28.3194 25.1619 28.2601 25.1096 28.261 25.0768C28.2629 25.0167 28.2957 24.9877 28.3383 24.9654C28.3915 24.9373 28.4624 24.9321 28.5222 24.9321C29.1824 24.9321 29.8428 24.9217 30.5027 24.9384C30.7695 24.9451 31.0371 24.9493 31.3042 24.9561Z" fill="#FCD38C"/>
<path d="M42.6212 28.0425C42.6248 28.292 42.5773 28.5217 42.5094 28.7474C42.3896 29.1466 42.1946 29.5027 41.9462 29.8278C41.8958 29.8939 41.8932 29.8941 41.8408 29.8288C41.5992 29.5298 41.4061 29.1983 41.2404 28.8476C41.1161 28.5842 41.0142 28.3112 40.9229 28.0338C40.8948 27.9477 40.8981 27.9324 40.9799 27.8882C41.2657 27.7337 41.5652 27.6239 41.8847 27.5759C42.0303 27.5539 42.1771 27.5543 42.3227 27.5354C42.3374 27.5342 42.352 27.5337 42.3667 27.5344C42.5052 27.5373 42.5269 27.5558 42.5789 27.6887C42.625 27.807 42.6241 27.9299 42.6212 28.0425Z" fill="#FEFEFE"/>
<path d="M33.1174 22.9512C33.1174 23.6888 33.1254 25.3067 33.1427 25.7605C33.1018 25.8153 33.0486 25.7953 33.0008 25.7809C32.4844 25.6221 31.9646 25.6456 31.4432 25.7461C31.3992 25.7545 31.3564 25.766 31.3193 25.728L31.3165 25.7317C31.2924 25.6969 31.3165 22.0924 31.3134 21.8617C31.312 21.7626 31.3278 21.6727 31.3746 21.5857C31.4321 21.4787 31.4822 21.3675 31.5356 21.2579C31.5429 21.25 31.5529 21.245 31.5635 21.244C32.1646 21.5145 32.6612 21.8283 33.1138 22.316C33.1072 22.4923 33.1138 22.7282 33.1174 22.9512Z" fill="#414141"/>
<path d="M31.5658 21.2019H31.5568L31.5481 21.2001C31.5914 21.0909 31.5939 20.9765 31.5935 20.8603C31.5921 20.5131 31.5975 20.1658 31.5944 19.8187C31.5932 19.6921 31.6294 19.5896 31.7046 19.4906C32.0745 19.0021 32.4768 18.5416 32.9079 18.1123C33.1819 17.8394 33.4728 17.5859 33.7924 17.3719C33.8531 17.3872 33.8271 17.4289 33.8134 17.4609C33.6175 17.9162 33.6451 18.3937 33.7068 18.8676C33.7338 19.0765 33.7888 19.2917 33.9536 19.4451C33.9654 19.4548 33.9732 19.4687 33.9758 19.4842C33.9782 19.4997 33.9751 19.5156 33.9671 19.5288C33.5948 19.7111 33.3024 19.9942 33.0556 20.334C33.0192 20.3842 32.9923 20.4372 33.0013 20.5033C32.985 20.917 32.9885 21.3303 33.0022 22.011C33.0015 22.0183 33.0006 22.0256 32.9994 22.0328C32.9443 22.0721 32.9084 22.0277 32.8743 21.9973C32.7273 21.8655 32.5846 21.7287 32.426 21.6111C32.2527 21.4824 32.0752 21.3623 31.883 21.2667C31.7819 21.2166 31.679 21.1827 31.5658 21.2019Z" fill="#A19D98"/>
<path d="M34.032 17.321C34.1062 17.3602 34.1443 17.4255 34.163 17.5094C34.2109 17.7227 34.2426 17.9397 34.2578 18.1584C34.2835 18.5322 34.2322 18.894 34.1433 19.2529C34.1249 19.3276 34.1036 19.4013 34.0566 19.463C34.0098 19.4714 33.9954 19.4357 33.9765 19.4014C33.7576 19.0055 33.7179 18.5735 33.7451 18.1285C33.7486 18.0675 33.7581 18.0065 33.7619 17.945C33.7741 17.7086 33.8708 17.4858 34.032 17.321Z" fill="#A19D98"/>
<path d="M33.3574 25.8054C33.4716 25.8582 33.5276 25.9357 33.5321 26.0796C33.5553 26.8048 33.5491 27.53 33.5508 28.255C33.5508 28.3014 33.5555 28.4948 33.555 28.5486C33.5534 28.8494 33.5484 29.1503 33.5524 29.4511C33.5539 29.5569 33.5123 29.6173 33.4253 29.6555C32.7001 29.8646 31.7584 29.854 31.098 29.6323C30.9491 29.5848 30.9096 29.5263 30.9085 29.3643C30.9068 29.1522 30.9085 28.9401 30.9085 28.7277C30.9085 28.6392 30.9099 28.5505 30.9085 28.4615C30.9068 28.3728 30.9304 26.9976 30.9304 26.9553C30.9304 26.6312 30.9328 26.307 30.9295 25.9829C30.9285 25.881 30.9642 25.8198 31.0545 25.7772C32.1033 25.4281 32.6538 25.5297 33.3574 25.8054Z" fill="#A19D98"/>
<path d="M31.126 27.7149V26.1507C31.126 26.1237 31.1253 26.0967 31.126 26.0695C31.1284 25.9621 31.1372 25.9477 31.2352 25.9099C31.604 25.7609 32.6823 25.6199 33.2578 26.02C33.3486 26.0703 33.3633 26.1217 33.367 26.2434C33.3819 26.5174 33.3562 28.5526 33.3571 29.3364C33.3571 29.3521 33.3571 29.3673 33.3571 29.3828C33.3543 29.4947 33.3472 29.5001 33.2394 29.5235C32.5681 29.6705 31.9006 29.6511 31.236 29.4771C31.1374 29.4514 31.1322 29.4488 31.1322 29.3366C31.1312 28.9773 31.1312 28.6181 31.1322 28.259C31.1322 28.0773 31.1322 27.8959 31.1322 27.7142L31.126 27.7149Z" fill="#45423D"/>
<path d="M31.5413 21.2238C31.5541 21.1246 31.6115 21.1142 31.7224 21.1416C31.8554 21.1834 31.9828 21.2433 32.1012 21.32C32.3648 21.4857 32.6172 21.6681 32.8387 21.8943C32.8881 21.9449 32.9455 21.9872 32.9992 22.0328C33.0068 22.0661 33.0238 22.0962 33.0481 22.119C33.1181 22.1852 33.1275 22.2618 33.1134 22.3585C32.9971 22.3411 32.9318 22.268 32.8581 22.1823C32.6581 21.9503 32.4244 21.7624 32.1766 21.5914C32.024 21.486 31.7902 21.3709 31.6207 21.2997C31.5626 21.2753 31.5344 21.2768 31.5413 21.2238Z" fill="#DCF9FB"/>
<path d="M34.0328 17.321C34.072 17.3435 34.0971 17.3538 33.9964 17.4478C33.8688 17.5682 33.7844 17.8719 33.7929 18.3699C33.8012 18.7001 33.8054 18.994 34.0574 19.463C34.0361 19.4978 34.0082 19.5234 33.9673 19.5287C33.5404 19.0867 33.5818 17.7266 33.7926 17.3718C33.8799 17.2765 33.9309 17.2657 34.0328 17.321Z" fill="#DCF9FB"/>
</g>
<rect x="0.55" y="0.55" width="53.9" height="53.9" rx="26.95" stroke="#CED3E6" stroke-width="1.1"/>
</svg>