<svg xmlns="http://www.w3.org/2000/svg" xmlns:xlink="http://www.w3.org/1999/xlink" viewBox="0 0 512 512"><defs><linearGradient id="a" x1="11.12" y1="-352.87" x2="500.88" y2="-203.13" gradientTransform="matrix(1, 0, 0, -1, 0, -22)" gradientUnits="userSpaceOnUse"><stop offset="7.633600e-02" stop-color="#ffd234"/><stop offset="0.8964" stop-color="#485dff"/></linearGradient></defs><circle cx="256" cy="256" r="256" fill="url(#a)"/><path d="M133.33,388.27V378l94.08-111.58L135.47,128v-8.75h218l5.76,70.83H347.09v-1.92a69.22,69.22,0,0,0-5.76-29,34.9,34.9,0,0,0-14.5-14.94A68.7,68.7,0,0,0,296.75,140h-109l79.36,114.77L181.76,355.41l106.67-2.56a88.28,88.28,0,0,0,42.66-5.76,53.56,53.56,0,0,0,21.34-35.41V310l11.3,2.35-12.58,75.95Z" fill="#fff"/><path d="M186,454.19a40.8,40.8,0,0,1-32.22-11.31,18.14,18.14,0,0,1-4.48-15.15h0a11.75,11.75,0,0,1,11.52-8.32h3.84a42.57,42.57,0,0,1,13.44,10.46c7,8.1,7,8.1,16.43,8.1s9.39,0,14.51-5.54a113.15,113.15,0,0,0,21.33-69.55c0-5.76,0-12.8,1.49-20.05S233.17,326,233.6,320c1.07-11.52,2.77-37.33,3.84-56.53,3.84-73.82,14.08-135.26,26.88-160.22a73,73,0,0,1,45.87-42.66,71.31,71.31,0,0,1,17.92-2.35A83.39,83.39,0,0,1,344.32,60c9.39,3,21.33,13.44,21.33,19.2A13.64,13.64,0,0,1,353.92,93a29.64,29.64,0,0,1-19.41-10.45A23.69,23.69,0,0,0,320,74.24a16.83,16.83,0,0,0-13,6.4,94.62,94.62,0,0,0-16,37.12v6c0,2.14-1.71,9.39-2.35,11.74s-2.13,22.82-3.2,45.65A1411.06,1411.06,0,0,1,272.21,342.4,172.65,172.65,0,0,1,259,399.15c-15.15,32.64-36.27,51.62-60.8,54.4A83.85,83.85,0,0,1,186,454.19Z" fill="#fff"/></svg>