<svg width="201" height="201" viewBox="0 0 201 201" fill="none" xmlns="http://www.w3.org/2000/svg">
<path d="M146.627 78.062C131.923 61.1117 106.262 59.2911 89.3113 73.9957L46.2768 111.328C47.9258 115.63 50.3398 119.722 53.5332 123.403C68.2378 140.353 93.8991 142.174 110.849 127.469L153.884 90.1365C152.235 85.8351 149.821 81.7431 146.627 78.062Z" fill="#1E3675"/>
<path fill-rule="evenodd" clip-rule="evenodd" d="M142.561 135.378C155.83 123.867 159.828 105.641 153.884 90.1365L110.849 127.469C93.8991 142.174 68.2378 140.353 53.5332 123.403C50.3398 119.722 47.9258 115.63 46.2768 111.328L38.1593 118.371C21.209 133.075 19.3884 158.736 34.093 175.687C48.7975 192.637 74.4588 194.457 91.4091 179.753L142.561 135.378Z" fill="#E0005E"/>
<path d="M89.3113 73.9957C106.262 59.2911 131.923 61.1117 146.627 78.062C149.821 81.7431 152.235 85.8351 153.884 90.1365L162.001 83.0944C178.952 68.3899 180.772 42.7286 166.068 25.7783C151.363 8.828 125.702 7.00747 108.752 21.712L57.5995 66.0869C44.3304 77.598 40.333 95.8236 46.2768 111.328L89.3113 73.9957Z" fill="#0ABBE2"/>
</svg>
