<svg width="394" height="100" viewBox="0 0 394 100" fill="none" xmlns="http://www.w3.org/2000/svg">
<path d="M394 0H0V100H394V0Z" fill="#09162E"/>
<path d="M101 84L61.6884 16L22.375 84H101ZM34.0622 47.875L52.125 16H16L34.0622 47.875ZM84.945 74.999H38.4312L61.6884 34.769L84.945 74.999Z" fill="white"/>
<path d="M326.214 63.458C327.644 63.458 329.038 63.4084 330.398 63.3094C331.76 63.2118 332.996 63.0834 334.114 62.9268C335.228 62.7688 336.208 62.6216 337.058 62.484C337.902 62.3462 338.55 62.2178 339 62.1V42.8568C339 41.2446 338.778 39.7502 338.328 38.3722C337.882 36.9952 337.166 35.8044 336.19 34.801C335.204 33.796 333.92 33.0094 332.34 32.4394C330.756 31.8694 328.824 31.583 326.552 31.583C324.32 31.583 322.412 31.7222 320.828 31.9964C319.244 32.2722 318.072 32.5664 317.316 32.8808L317.918 36.2458C318.498 36.0492 319.414 35.795 320.66 35.4792C321.912 35.1648 323.806 35.007 326.35 35.007C328.132 35.007 329.572 35.2518 330.666 35.7444C331.76 36.238 332.608 36.887 333.212 37.6936C333.81 38.4992 334.202 39.4036 334.38 40.4086C334.532 41.2662 334.606 42.1506 334.63 43.0524H334.646V43.466C334.646 43.4806 334.65 43.4926 334.65 43.5074V45.3964H334.646V48.7604H334.65V59.503C333.756 59.6608 332.674 59.7892 331.402 59.8868C330.132 59.9858 328.646 60.0342 326.95 60.0342C325.57 60.0342 324.33 59.9256 323.236 59.7088C322.146 59.4936 321.206 59.1498 320.426 58.6774C319.646 58.205 319.042 57.5762 318.62 56.7866C318.194 56 317.984 55.0382 317.984 53.8954C317.984 52.5962 318.296 51.5554 318.92 50.7672C319.544 49.9804 320.348 49.3598 321.332 48.9072C322.31 48.4552 323.382 48.1608 324.542 48.0214C325.704 47.8852 326.82 47.817 327.89 47.817C328.73 47.817 329.48 47.841 330.158 47.8852V44.6178C330.102 44.6138 330.05 44.6044 329.996 44.599C329.304 44.5386 328.646 44.5092 328.022 44.5092C325.928 44.5092 323.986 44.6874 322.2 45.0418C320.416 45.3964 318.876 45.957 317.582 46.7236C316.29 47.492 315.284 48.4644 314.57 49.646C313.858 50.826 313.5 52.2418 313.5 53.8954C313.5 55.628 313.824 57.0932 314.47 58.292C315.114 59.4936 316.01 60.477 317.148 61.245C318.286 62.0116 319.622 62.5722 321.162 62.9268C322.702 63.28 324.388 63.458 326.214 63.458ZM215.718 63.458C217.142 63.458 218.538 63.4084 219.898 63.3094C221.26 63.2118 222.498 63.0834 223.614 62.9268C224.728 62.7688 225.71 62.6216 226.558 62.484C227.406 62.3462 228.054 62.2178 228.5 62.1V42.8568C228.5 41.2446 228.278 39.7502 227.832 38.3722C227.386 36.9952 226.67 35.8044 225.69 34.801C224.708 33.796 223.424 33.0094 221.84 32.4394C220.256 31.8694 218.328 31.583 216.052 31.583C213.82 31.583 211.912 31.7222 210.328 31.9964C208.744 32.2722 207.574 32.5664 206.816 32.8808L207.416 36.2458C207.996 36.0492 208.912 35.795 210.162 35.4792C211.41 35.1648 213.306 35.007 215.848 35.007C217.636 35.007 219.07 35.2518 220.168 35.7444C221.26 36.238 222.106 36.887 222.712 37.6936C223.312 38.4992 223.7 39.4036 223.884 40.4086C224.036 41.2662 224.106 42.1506 224.13 43.0524H224.15V59.503C223.256 59.6608 222.178 59.7892 220.904 59.8868C219.632 59.9858 218.148 60.0342 216.454 60.0342C215.068 60.0342 213.83 59.9256 212.738 59.7088C211.644 59.4936 210.706 59.1498 209.926 58.6774C209.144 58.205 208.544 57.5762 208.12 56.7866C207.696 56 207.486 55.0382 207.486 53.8954C207.486 52.5962 207.796 51.5554 208.422 50.7672C209.044 49.9804 209.848 49.3598 210.83 48.9072C211.814 48.4552 212.884 48.1608 214.042 48.0214C215.204 47.8852 216.318 47.817 217.388 47.817C218.23 47.817 218.976 47.841 219.658 47.8852V44.6178C219.602 44.6138 219.554 44.6044 219.496 44.599C218.804 44.5386 218.148 44.5092 217.524 44.5092C215.426 44.5092 213.484 44.6874 211.702 45.0418C209.916 45.3964 208.378 45.957 207.084 46.7236C205.788 47.492 204.784 48.4644 204.07 49.646C203.356 50.826 203 52.2418 203 53.8954C203 55.628 203.324 57.0932 203.97 58.292C204.618 59.4936 205.51 60.477 206.646 61.245C207.784 62.0116 209.126 62.5722 210.662 62.9268C212.202 63.28 213.886 63.458 215.718 63.458ZM162.593 63.458C164.019 63.458 165.413 63.4084 166.775 63.3094C168.135 63.2118 169.374 63.0834 170.49 62.9268C171.603 62.7688 172.588 62.6216 173.434 62.484C174.281 62.3462 174.929 62.2178 175.375 62.1V42.8568C175.375 41.2446 175.152 39.7502 174.708 38.3722C174.26 36.9952 173.545 35.8044 172.565 34.801C171.584 33.796 170.3 33.0094 168.716 32.4394C167.131 31.8694 165.202 31.583 162.926 31.583C160.694 31.583 158.788 31.7222 157.204 31.9964C155.619 32.2722 154.449 32.5664 153.69 32.8808L154.293 36.2458C154.872 36.0492 155.786 35.795 157.037 35.4792C158.285 35.1648 160.182 35.007 162.726 35.007C164.51 35.007 165.949 35.2518 167.043 35.7444C168.135 36.238 168.985 36.887 169.586 37.6936C170.189 38.4992 170.578 39.4036 170.758 40.4086C170.909 41.2662 170.982 42.1506 171.007 43.0524H171.024L171.025 43.4866L171.026 43.5074V45.3964H171.024V48.7604H171.026V59.503C170.132 59.6608 169.052 59.7892 167.779 59.8868C166.508 59.9858 165.024 60.0342 163.329 60.0342C161.945 60.0342 160.706 59.9256 159.614 59.7088C158.52 59.4936 157.582 59.1498 156.802 58.6774C156.021 58.205 155.419 57.5762 154.996 56.7866C154.572 56 154.36 55.0382 154.36 53.8954C154.36 52.5962 154.672 51.5554 155.297 50.7672C155.92 49.9804 156.723 49.3598 157.706 48.9072C158.688 48.4552 159.757 48.1608 160.919 48.0214C162.078 47.8852 163.196 47.817 164.266 47.817C165.104 47.817 165.853 47.841 166.533 47.8852V44.6178C166.478 44.6138 166.429 44.6044 166.374 44.599C165.681 44.5386 165.024 44.5092 164.399 44.5092C162.301 44.5092 160.36 44.6874 158.577 45.0418C156.792 45.3964 155.252 45.957 153.958 46.7236C152.662 47.492 151.659 48.4644 150.945 49.646C150.232 50.826 149.875 52.2418 149.875 53.8954C149.875 55.628 150.199 57.0932 150.845 58.292C151.492 59.4936 152.384 60.477 153.521 61.245C154.661 62.0116 156 62.5722 157.54 62.9268C159.079 63.28 160.762 63.458 162.593 63.458ZM351.874 74.083V61.2504C352.638 61.7686 353.86 62.3156 355.542 62.8934C357.226 63.4684 359.214 63.758 361.498 63.758C364.012 63.758 366.244 63.36 368.196 62.5642C370.148 61.7686 371.796 60.6646 373.144 59.2508C374.488 57.8382 375.512 56.1482 376.204 54.1768C376.9 52.2066 377.25 50.0486 377.25 47.7008C377.25 45.1936 376.832 42.9462 376.004 40.956C375.172 38.9666 374.006 37.2756 372.506 35.8818C371.002 34.4896 369.204 33.4258 367.12 32.6884C365.034 31.9522 362.712 31.583 360.154 31.583C357.056 31.583 354.5 31.7628 352.482 32.1216C350.462 32.4788 348.8 32.8578 347.5 33.2554V74.083H351.874ZM186.254 63.458V36.0592C186.624 35.8988 187.398 35.6974 188.576 35.4546C189.753 35.2134 191.312 35.0914 193.254 35.0914C195.101 35.0914 196.59 35.1832 197.724 35.364C198.855 35.5466 199.605 35.7164 199.975 35.8768L200.874 32.4906C200.366 32.2892 199.456 32.0888 198.139 31.886C196.822 31.6844 195.425 31.583 193.945 31.583C191.036 31.583 188.563 31.816 186.529 32.2794C184.497 32.743 182.903 33.1982 181.75 33.6408V63.458H186.254ZM118.126 74.083V61.2504C118.887 61.7686 120.11 62.3156 121.793 62.8934C123.476 63.4684 125.461 63.758 127.749 63.758C130.262 63.758 132.495 63.36 134.447 62.5642C136.4 61.7686 138.049 60.6646 139.394 59.2508C140.74 57.8382 141.761 56.1482 142.456 54.1768C143.153 52.2066 143.5 50.0486 143.5 47.7008C143.5 45.1936 143.085 42.9462 142.256 40.956C141.424 38.9666 140.258 37.2756 138.756 35.8818C137.251 34.4896 135.457 33.4258 133.371 32.6884C131.282 31.9522 128.962 31.583 126.404 31.583C123.308 31.583 120.75 31.7628 118.73 32.1216C116.711 32.4788 115.051 32.8578 113.75 33.2554V74.083H118.126ZM245.086 63.458C249.16 63.458 252.374 62.7386 254.726 61.2992C257.074 59.8596 258.25 57.7414 258.25 54.941C258.25 53.4634 257.958 52.2344 257.378 51.2526C256.792 50.2726 256.034 49.4354 255.094 48.7352C254.152 48.035 253.064 47.4356 251.838 46.938C250.604 46.4416 249.316 45.9538 247.974 45.4766C246.676 44.9982 245.524 44.5616 244.514 44.1618C243.508 43.765 242.656 43.3352 241.962 42.8758C241.266 42.4138 240.742 41.8834 240.386 41.2812C240.024 40.6802 239.846 39.9598 239.846 39.117C239.846 39.07 239.852 33.5264 239.856 31.9794L239.858 31.583H235.44C235.432 31.7386 235.416 37.9838 235.414 39.2498V39.4692C235.414 40.7878 235.682 41.908 236.22 42.8268C236.76 43.7474 237.472 44.537 238.37 45.1964C239.264 45.856 240.294 46.435 241.456 46.9352C242.622 47.4356 243.852 47.925 245.154 48.4048C246.764 49.0042 248.12 49.5238 249.218 49.964C250.312 50.4032 251.198 50.864 251.868 51.3438C252.542 51.8238 253.02 52.3622 253.316 52.9628C253.604 53.5624 253.75 54.2828 253.75 55.122C253.75 56.8808 252.932 58.1302 251.298 58.8698C249.666 59.6108 247.594 59.9792 245.086 59.9792C243.696 59.9792 242.476 59.9002 241.426 59.7398C240.372 59.5808 239.468 59.389 238.704 59.1702C237.942 58.9512 237.338 58.7486 236.892 58.5708C236.444 58.3898 236.152 58.2608 236.018 58.1806L234.874 61.718C235.414 61.9598 236.488 62.3092 238.102 62.7672C239.712 63.2284 242.04 63.458 245.086 63.458ZM276.764 63.458C277.458 62.1224 278.192 60.6212 278.964 58.9516C279.732 57.2834 280.528 55.5004 281.344 53.6028C282.162 51.7036 282.954 49.7082 283.716 47.6132C284.484 45.5212 285.214 43.3792 285.908 41.1882C286.606 43.3742 287.34 45.5106 288.108 47.6002C288.876 49.6884 289.67 51.6816 290.492 53.5778C291.312 55.4756 292.11 57.2574 292.884 58.9242C293.658 60.5912 294.4 62.103 295.106 63.458H299.316C301.698 59.1266 303.888 54.5472 305.872 49.7172C307.86 44.8886 309.694 39.5514 311.374 33.708H306.898C306.386 35.7452 305.746 37.9442 304.974 40.3064C304.204 42.6688 303.372 45.011 302.488 47.329C301.596 49.648 300.712 51.8512 299.822 53.939C298.934 56.0286 298.092 57.8 297.298 59.2568C296.36 57.3382 295.438 55.2854 294.532 53.0966C293.618 50.9092 292.758 48.6934 291.948 46.4512C291.136 44.2064 290.392 42.002 289.72 39.8356C289.046 37.6678 288.504 35.6266 288.088 33.708H284.174C283.62 35.624 282.996 37.6652 282.302 39.8342C281.604 42.0032 280.864 44.1996 280.078 46.4252C279.292 48.6516 278.45 50.8598 277.554 53.0496C276.658 55.241 275.762 57.2902 274.87 59.198C274.078 57.7412 273.224 55.9752 272.316 53.9014C271.402 51.8288 270.504 49.6324 269.614 47.312C268.726 44.9928 267.894 42.6544 267.126 40.2946C266.354 37.938 265.708 35.7426 265.194 33.708H260.374C262.046 39.5408 263.868 44.8756 265.85 49.7092C267.828 54.5418 270.01 59.1252 272.4 63.458H276.764ZM361.202 61.333C360.144 61.333 359.134 61.241 358.17 61.061C357.202 60.88 356.304 60.6466 355.476 60.3636C354.646 60.0822 353.922 59.7802 353.302 59.4562C352.682 59.1336 352.164 58.8302 351.75 58.5472V36.6816C352.44 36.4798 353.466 36.2874 354.82 36.1048C356.178 35.9238 357.96 35.833 360.168 35.833C364.032 35.833 367.134 36.9342 369.48 39.1348C371.83 41.3358 373 44.4948 373 48.6138C373 50.3494 372.794 51.9968 372.38 53.5496C371.966 55.1052 371.298 56.4564 370.378 57.608C369.46 58.7584 368.252 59.6674 366.758 60.3334C365.262 60.9992 363.412 61.333 361.202 61.333ZM127.452 61.333C126.392 61.333 125.382 61.241 124.416 61.061C123.449 60.88 122.553 60.6466 121.725 60.3636C120.897 60.0822 120.172 59.7802 119.552 59.4562C118.932 59.1336 118.414 58.8302 118 58.5472V36.6816C118.688 36.4798 119.714 36.2874 121.07 36.1048C122.427 35.9238 124.209 35.833 126.415 35.833C130.28 35.833 133.385 36.9342 135.729 39.1348C138.076 41.3358 139.25 44.4948 139.25 48.6138C139.25 50.3494 139.043 51.9968 138.629 53.5496C138.215 55.1052 137.548 56.4564 136.628 57.608C135.706 58.7584 134.5 59.6674 133.005 60.3334C131.509 60.9992 129.658 61.333 127.452 61.333Z" fill="white"/>
</svg>
