<svg xmlns="http://www.w3.org/2000/svg" fill="none" viewBox="0 0 73 41"><g fill="#000" clip-path="url(#a)"><path d="M19.488 32.985V19.907h-6.002v13.078h-3.75V19.907H3.72v13.078H0v-16.81h3.719v1.11l.493-.385c.247-.185.51-.355.803-.463.4-.17.817-.262 1.28-.262h3.827c.447 0 .864.092 1.265.262.386.154.74.386 1.05.679.138.138.277.277.4.447l.248.34.246-.34c.108-.154.247-.309.386-.447a3.312 3.312 0 0 1 1.05-.679c.4-.17.817-.262 1.28-.262h3.827c.463 0 .91.092 1.311.277.401.17.756.401 1.05.71.308.293.555.648.725 1.064.185.401.277.848.277 1.31v13.45h-3.75ZM28.483 32.982c-.447 0-.88-.092-1.296-.262a3.474 3.474 0 0 1-1.065-.71l-.015-.015a3.89 3.89 0 0 1-.71-1.064v-.015a3.337 3.337 0 0 1-.247-1.296V19.518c0-.462.093-.894.263-1.31.185-.417.416-.772.71-1.065a3.3 3.3 0 0 1 1.064-.71 3.107 3.107 0 0 1 1.296-.277h7.653c.463 0 .91.093 1.312.278.401.17.756.4 1.05.71.308.292.555.647.724 1.063.186.401.278.849.278 1.311v6.956H28.87v2.76h10.616l-3.734 3.748h-7.268Zm7.268-10.24v-2.823h-6.882v2.823h6.882ZM44.762 32.985c-.448 0-.88-.093-1.297-.262h-.015a3.316 3.316 0 0 1-1.05-.71 3.343 3.343 0 0 1-.724-1.064v-.015a3.285 3.285 0 0 1-.247-1.296V11.24h3.734v4.935H52.6l-3.734 3.733h-3.703v9.33h5.277v3.748h-5.678ZM62.97 32.985V31.86l-.494.401a3.326 3.326 0 0 1-2.068.74h-4.706c-.447 0-.88-.092-1.296-.261a3.474 3.474 0 0 1-1.065-.71l-.015-.015a3.591 3.591 0 0 1-.71-1.05v-.014a3.339 3.339 0 0 1-.247-1.296v-4.04c0-.463.093-.895.263-1.296.185-.401.416-.756.71-1.064a3.248 3.248 0 0 1 1.08-.725 3.109 3.109 0 0 1 1.295-.278h7.252v-2.329H55.81l3.719-3.747h3.826c.463 0 .91.092 1.312.277.4.17.756.401 1.049.71.309.293.556.648.725 1.064.185.401.278.848.278 1.31v13.45h-3.75Zm0-3.732v-3.27h-6.882v3.27h6.881ZM72.32 8h-3.704v24.984h3.703V8Z"/></g><defs><clipPath id="a"><rect width="72.319" height="41" fill="#fff" rx="4"/></clipPath></defs></svg>
