<svg viewBox="0 0 360 360" fill="hsl(64, 100%, 45%)" xmlns="http://www.w3.org/2000/svg">
	<g clip-path="url(#clip0_908_541)">
		<rect width="360" height="360" />
		<path d="M343.789 368.418L230.574 176.218L209.194 398.26L185.305 395.96L206.685 173.917L58.8734 340.987L40.8984 325.085L188.71 158.014L-29.0789 206.297L-34.2734 182.866L183.513 134.584L-21.0587 45.6335L-11.4887 23.624L193.086 112.576L79.8691 -79.6287L100.548 -91.8096L213.764 100.393L235.145 -121.646L259.034 -119.346L237.654 102.693L385.461 -64.3724L403.436 -48.4695L255.629 118.596L473.4 70.3172L478.595 93.7483L260.821 142.028L465.382 230.974L455.812 252.983L251.254 164.039L364.468 356.238L343.789 368.418Z" fill="hsl(180, 34%, 12%)" class="star" />
		<path fill-rule="evenodd" clip-rule="evenodd" d="M360 0H0V360H360V0ZM180 328C261.738 328 328 261.738 328 180C328 98.2619 261.738 32 180 32C98.2619 32 32 98.2619 32 180C32 261.738 98.2619 328 180 328Z" />
	</g>
	<defs>
		<clipPath id="clip0_908_541">
			<rect width="360" height="360" fill="white"/>
		</clipPath>
	</defs>
</svg>
