<svg viewBox="0 0 512 512" width="512" height="512" fill="#20133A" xmlns="http://www.w3.org/2000/svg">
	<rect width="512" height="512" rx="64" fill="#BCFF5E"/>
	<path fill-rule="evenodd" clip-rule="evenodd" d="M134.661 373.209C136.322 373.306 137.996 373.355 139.682 373.355H293.657C339.873 373.355 377.339 336.354 377.339 290.711V138.791C421.218 141.355 456 177.311 456 221.289V373.355C456 418.999 418.534 456 372.318 456H218.343C172.127 456 134.661 418.999 134.661 373.355V373.209ZM134.661 373.209C90.7824 370.645 56 334.689 56 290.711L56 138.645C56 93.0013 93.4657 56 139.682 56H293.657C339.873 56 377.339 93.0012 377.339 138.645V138.791C375.678 138.694 374.004 138.645 372.318 138.645H218.343C172.127 138.645 134.661 175.646 134.661 221.289V373.209Z" />
	<path d="M149.727 256.838L215.573 243.841L170.024 195.035L231.016 222.812L223.162 156.838L256.003 214.779L288.844 156.838L280.99 222.812L341.982 195.035L296.433 243.841L362.279 256.838L296.433 269.835L341.982 318.641L280.99 290.864L288.844 356.838L256.003 298.896L223.162 356.838L231.016 290.864L170.024 318.641L215.573 269.835L149.727 256.838Z" />
</svg>
