<svg width="256" height="256" xmlns="http://www.w3.org/2000/svg">
 <g>
  <title>background</title>
  <rect x="-1" y="-1" width="258" height="258" id="canvas_background" fill="none"/>
 </g>

 <g>
  <title>Layer 1</title>
  <g stroke="null" id="svg_1">
   <path stroke="null" id="Fill-4" class="st0" d="m46.628051,151.373136c12.426618,0 22.367912,-9.885055 22.367912,-22.241373c0,-12.603445 -10.189826,-22.735626 -22.864976,-22.488499c-13.172215,0.247126 -23.113509,10.132181 -22.864976,22.488499c0,12.850571 10.189826,22.241373 23.362041,22.241373m81.518611,-82.540206c12.426618,-0.247126 22.367912,-10.132181 22.367912,-22.488499c0,-12.356318 -10.935423,-22.735626 -23.362041,-22.488499c-12.923682,0.494253 -23.113509,10.626434 -22.616444,22.982752c0.248532,12.603445 10.686891,22.241373 23.610573,21.994246m81.767144,80.810321c12.426618,0.494253 22.864976,-8.896549 23.362041,-21.252867c0.497065,-12.603445 -9.444229,-23.229878 -21.870847,-23.477005c-13.172215,-0.247126 -23.610573,9.143676 -23.859106,21.74712c-0.248532,12.850571 9.195697,22.735626 22.367912,22.982752m-80.524482,82.787332c12.426618,0 22.367912,-9.885055 22.616444,-21.994246c0.248532,-12.109192 -9.941294,-22.488499 -22.119379,-22.735626c-13.172215,-0.247126 -23.859106,9.885055 -23.859106,22.488499c0,12.109192 10.686891,21.994246 23.362041,22.241373m81.518611,-67.218371c-10.935423,-0.247126 -20.379653,-3.459769 -28.332688,-11.614939c-9.195697,-9.143676 -20.379653,-10.379307 -28.58122,-3.212643c-8.698632,7.413791 -9.195697,18.781604 -0.497065,29.160911c9.444229,11.367813 16.651668,23.229878 12.923682,38.798839c-3.479453,14.580456 -15.160473,26.195395 -29.57535,28.666658c-15.906071,2.965516 -31.812141,-3.459769 -40.013709,-16.804593c-8.698632,-13.839076 -8.201568,-27.925279 0.497065,-41.764356c1.988259,-3.212643 4.722115,-5.931033 6.958906,-8.896549c7.953035,-9.885055 7.704503,-21.005741 -1.242662,-28.419532c-8.4501,-7.166665 -19.634056,-6.178159 -28.084156,2.471264c-10.438359,11.120686 -23.362041,15.321835 -38.273982,11.862066c-15.657538,-3.706895 -26.841494,-16.063214 -29.078285,-31.879301c-1.988259,-14.827582 6.213309,-30.643669 19.385523,-37.810334c14.414876,-7.660917 31.563609,-5.931033 43.990226,4.448275c1.491194,1.235632 2.982388,2.965516 4.473582,4.201148c8.4501,7.660917 20.131121,7.660917 27.835623,0.247126c7.455971,-7.166665 7.953035,-18.287351 0.994129,-26.936774c-5.964776,-7.166665 -12.178085,-13.59195 -14.166344,-23.229878c-3.727985,-17.545972 4.473582,-35.091944 20.628185,-42.505735c16.651668,-7.660917 36.285723,-3.212643 46.972615,10.87356c10.935423,14.086203 10.686891,33.609186 -0.994129,47.448262c-1.988259,2.224137 -3.976518,4.695401 -5.964776,6.919538c-6.710374,8.896549 -5.964776,19.770109 1.739726,26.936774c7.953035,7.166665 19.634056,7.166665 27.587091,-1.235632c8.4501,-8.649423 18.142862,-13.839076 30.569479,-13.839076c21.12525,0 38.02545,16.804593 38.02545,38.05746c0.248532,21.005741 -16.9002,37.810334 -37.776917,38.05746" fill="#191f27"/>
   <path stroke="null" id="Fill-41" class="st2" d="m129.389324,225.016793c-8.201568,0 -15.906071,-7.413791 -15.906071,-15.321835c0,-7.660917 7.455971,-14.827582 15.657538,-14.827582c8.4501,-0.247126 15.657538,6.919538 15.409006,15.321835c0,8.649423 -6.461841,14.827582 -15.160473,14.827582" fill="#378241"/>
   <path stroke="null" id="Fill-43" class="st2" d="m210.659403,142.229461c-8.698632,-0.247126 -15.657538,-6.672412 -15.657538,-15.074708c0,-7.908044 7.455971,-15.074708 15.906071,-15.074708c8.4501,0 15.409006,7.413791 15.160473,15.816087c-0.248532,8.15517 -6.958906,14.580456 -15.409006,14.333329" fill="#378241"/>
   <path stroke="null" id="Fill-45" class="st2" d="m143.058603,46.591557c0,8.402296 -6.710374,15.074708 -14.911941,15.321835c-7.953035,0.247126 -16.154603,-7.413791 -16.154603,-15.321835c0,-8.15517 7.207438,-15.074708 15.906071,-15.074708c8.4501,0 15.160473,6.672412 15.160473,15.074708" fill="#378241"/>
   <path stroke="null" id="Fill-47" class="st2" d="m46.379518,113.809929c8.698632,0 15.409006,6.672412 15.160473,15.568961c0,8.15517 -6.461841,14.827582 -14.166344,14.827582c-8.4501,0 -16.9002,-7.660917 -16.9002,-15.321835c0,-7.908044 7.455971,-15.074708 15.906071,-15.074708" fill="#378241"/>
  </g>
 </g>
</svg>