<svg width="128" height="128" viewBox="0 0 128 128" fill="none" xmlns="http://www.w3.org/2000/svg">
<path fill-rule="evenodd" clip-rule="evenodd" d="M77.4762 12.5191C77.9893 10.6044 76.8529 8.63624 74.9379 8.12319C73.0229 7.61014 71.0546 8.74643 70.5414 10.6612L68.7019 17.5255C68.1888 19.4402 69.3252 21.4083 71.2402 21.9214C73.1552 22.4344 75.1235 21.2981 75.6367 19.3834L77.4762 12.5191ZM71.9576 33.112C72.4707 31.1973 71.3343 29.2292 69.4193 28.7161C67.5044 28.2031 65.536 29.3393 65.0229 31.2541L63.1834 38.1184C62.6703 40.0331 63.8067 42.0012 65.7217 42.5143C67.6367 43.0274 69.605 41.8911 70.1181 39.9763L71.9576 33.112ZM101.928 29.3569C103.33 27.9552 103.33 25.6826 101.928 24.2809C100.526 22.8792 98.2533 22.8792 96.8515 24.2809L91.8259 29.3059C90.424 30.7076 90.424 32.9802 91.8259 34.3819C93.2277 35.7836 95.5006 35.7836 96.9024 34.3819L101.928 29.3569ZM86.8512 44.4319C88.253 43.0302 88.253 40.7576 86.8512 39.356C85.4493 37.9543 83.1764 37.9543 81.7746 39.356L76.749 44.381C75.3471 45.7827 75.3471 48.0553 76.749 49.4569C78.1508 50.8586 80.4237 50.8586 81.8255 49.4569L86.8512 44.4319ZM117.984 51.1704C118.497 53.0851 117.36 55.0532 115.445 55.5663L108.58 57.4055C106.665 57.9186 104.697 56.7823 104.184 54.8676C103.671 52.9528 104.807 50.9847 106.722 50.4717L113.587 48.6324C115.502 48.1193 117.47 49.2556 117.984 51.1704ZM97.3881 56.6882C97.9013 58.603 96.7648 60.5711 94.8499 61.0841L87.9847 62.9234C86.0697 63.4365 84.1014 62.3002 83.5883 60.3854C83.0752 58.4707 84.2116 56.5026 86.1266 55.9895L92.9917 54.1502C94.9067 53.6372 96.875 54.7735 97.3881 56.6882ZM41.2988 120C50.8788 120 58.7353 116.889 64.8682 110.666C71.0012 104.399 74.0677 96.3858 74.0677 86.6268C74.0677 76.7335 71.046 68.6532 65.0025 62.3859C59.0038 56.0739 51.2145 52.9178 41.6346 52.9178C32.0546 52.9178 24.2205 56.0739 18.1323 62.3859C12.0441 68.6532 9 76.7335 9 86.6268C9 96.5201 11.977 104.556 17.9309 110.733C23.9295 116.911 31.7188 120 41.2988 120ZM55.2659 102.81C51.8189 106.66 47.1632 108.585 41.2988 108.585C35.524 108.585 30.9578 106.66 27.6004 102.81C24.2877 98.9599 22.6313 93.6998 22.6313 87.0297V86.4925C22.6313 79.688 24.3548 74.2937 27.8018 70.3095C31.2488 66.3253 35.8597 64.3332 41.6346 64.3332C47.4094 64.3332 51.9756 66.3253 55.333 70.3095C58.7353 74.2937 60.4364 79.688 60.4364 86.4925V87.0297C60.4364 93.6551 58.7129 98.9151 55.2659 102.81Z" fill="#FF4A4A"/>
</svg>
