<svg width="170" height="170" viewBox="0 0 170 170" fill="none" xmlns="http://www.w3.org/2000/svg">
<path fill-rule="evenodd" clip-rule="evenodd" d="M25.0002 152.5H84.9998C122.279 152.5 152.5 122.279 152.5 85C152.5 47.7208 122.279 17.5 84.9999 17.5C47.7207 17.5 17.4999 47.7208 17.5 85.0001L17.5002 145C17.5002 149.142 20.858 152.5 25.0002 152.5ZM25.0002 170H84.9998C131.944 170 170 131.944 170 85C170 38.0558 131.944 0 84.9999 0C38.0557 0 -0.000128383 38.0559 3.25144e-10 85.0001L0.000164088 145C0.000201848 158.807 11.1931 170 25.0002 170Z" fill="#FAF6ED"/>
<path fill-rule="evenodd" clip-rule="evenodd" d="M25.0002 152.5H64.9998C91.2334 152.5 112.5 131.234 112.5 105C112.5 78.7665 91.2334 57.5 64.9999 57.5C38.7664 57.5 17.4999 78.7665 17.5 105L17.5002 145C17.5002 149.142 20.858 152.5 25.0002 152.5ZM25.0002 170H64.9998C100.898 170 130 140.898 130 105C130 69.1015 100.898 40 64.9999 40C29.1014 40 -9.81751e-05 69.1016 2.47837e-10 105L0.000164088 145C0.000201848 158.807 11.1931 170 25.0002 170Z" fill="#FAF6ED"/>
<path fill-rule="evenodd" clip-rule="evenodd" d="M18 152.5H44.9999C60.1877 152.5 72.4999 140.188 72.4999 125C72.4999 109.812 60.1877 97.5 44.9999 97.5C29.8121 97.5 17.5 109.812 17.5 125L17.5001 152C17.5001 152.101 17.5172 152.154 17.5322 152.189C17.5521 152.236 17.5886 152.296 17.6465 152.354C17.7045 152.412 17.7636 152.448 17.8108 152.468C17.8463 152.483 17.8987 152.5 18 152.5ZM18 170H44.9999C69.8527 170 89.9999 149.853 89.9999 125C89.9999 100.147 69.8527 80 44.9999 80C20.1471 80 -6.79674e-05 100.147 1.72804e-10 125L7.38399e-05 152C0.000101027 161.941 8.05895 170 18 170Z" fill="#FAF6ED"/>
<path fill-rule="evenodd" clip-rule="evenodd" d="M17.5 152.5H25.0002C29.1423 152.5 32.4999 149.142 32.4999 145C32.4999 140.858 29.1421 137.5 25 137.5C20.8578 137.5 17.5002 140.858 17.5002 145L17.5 152.5ZM6.837e-05 170H25.0002C38.8073 170 49.9999 158.807 49.9999 145C49.9999 131.193 38.8071 120 25 120C11.1928 120 0.000126329 131.193 0.000164088 145L6.837e-05 170Z" fill="#FAF6ED"/>
</svg>
