<svg width="128" height="128" viewBox="0 0 128 128" fill="none" xmlns="http://www.w3.org/2000/svg">
<path d="M0 32C0 14.3269 14.3269 0 32 0H96C113.673 0 128 14.3269 128 32V96C128 113.673 113.673 128 96 128H32C14.3269 128 0 113.673 0 96V32Z" fill="#0B0B0B"/>
<path fill-rule="evenodd" clip-rule="evenodd" d="M26.77 37.2817C26.77 35.7007 28.0975 34.4189 29.7351 34.4189H98.4266C100.064 34.4189 101.392 35.7007 101.392 37.2817V66.8639C101.392 68.445 100.064 69.7267 98.4266 69.7267H29.7351C28.0975 69.7267 26.77 68.445 26.77 66.8639V37.2817ZM41.1013 45.8701C39.7367 45.8701 38.6304 46.9382 38.6304 48.2558V55.8899C38.6304 57.2074 39.7367 58.2755 41.1013 58.2755H87.0604C88.425 58.2755 89.5313 57.2074 89.5313 55.8899V48.2558C89.5313 46.9382 88.425 45.8701 87.0604 45.8701H41.1013Z" fill="white"/>
<path fill-rule="evenodd" clip-rule="evenodd" d="M39.1247 90.7196C39.1247 92.3007 37.7971 93.5824 36.1596 93.5824H30.2294C28.5918 93.5824 27.2643 92.3007 27.2643 90.7196V84.994C27.2643 83.4129 28.5918 82.1312 30.2294 82.1312H36.1596C37.7971 82.1312 39.1247 83.4129 39.1247 84.994V90.7196Z" fill="white"/>
</svg>
