<svg width="190" height="32" viewBox="0 0 190 32" fill="none" xmlns="http://www.w3.org/2000/svg">
<g clip-path="url(#clip0_2640_14475)">
<g filter="url(#filter0_b_2640_14475)">
<path fill-rule="evenodd" clip-rule="evenodd" d="M2.03238 2.05378C0 4.10755 0 7.41306 0 14.0241V17.9759C0 24.5869 0 27.8924 2.03238 29.9462C4.06477 32 7.33584 32 13.878 32H17.7887C24.3308 32 27.6019 32 29.6343 29.9462C31.6667 27.8924 31.6667 24.5869 31.6667 17.9759V14.0241C31.6667 7.41306 31.6667 4.10755 29.6343 2.05378C27.6019 0 24.3308 0 17.7887 0H13.878C7.33584 0 4.06477 0 2.03238 2.05378ZM24.1304 4.23813C13.12 4.23813 4.19438 13.2578 4.19438 24.384C4.19438 26.2492 5.69069 27.7613 7.53649 27.7613H20.3475C23.7063 27.7613 25.3857 27.7613 26.4291 26.7069C27.4725 25.6525 27.4725 23.9554 27.4725 20.5613V7.61543C27.4725 5.7502 25.9762 4.23813 24.1304 4.23813Z" fill="#0A0B16"/>
</g>
<path fill-rule="evenodd" clip-rule="evenodd" d="M120.136 5.20001C120.136 3.58789 118.877 2.40001 117.365 2.40001C115.77 2.40001 114.594 3.67274 114.594 5.20001C114.594 6.72728 115.77 8.00001 117.365 8.00001C118.96 8.00001 120.136 6.81213 120.136 5.20001ZM115.15 10.332H119.502V29.0417H115.15V10.332ZM47.5 3.37659H57.7068C63.3245 3.37659 66.4895 7.21446 66.4895 11.5321C66.4895 16.0096 63.1663 19.6875 57.5486 19.6875H52.1682V29.1223H47.5V3.37659ZM57.3112 15.7697C60.3179 15.7697 61.663 13.7708 61.663 11.612C61.663 9.37326 60.397 7.37437 57.3112 7.37437H52.2474V15.7697H57.3112ZM67.4388 23.7647C67.4388 19.8469 70.5246 18.4077 74.0851 18.1678L78.1995 17.848C79.3072 17.7681 79.782 17.2883 79.782 16.2489C79.782 14.4899 78.4369 13.2906 76.1423 13.2906C73.7686 13.2906 72.5818 14.5698 72.1862 16.089L67.9927 15.5293C68.3092 12.491 71.2367 9.85246 76.0632 9.85246C80.8897 9.85246 84.292 12.411 84.292 16.7286V29.1218H79.782V26.2434H79.6237C79.149 27.9224 77.0127 29.6015 73.8478 29.6015C70.2081 29.6015 67.4388 27.4427 67.4388 23.7647ZM75.1137 26.2434C77.4874 26.2434 79.7028 24.5643 79.7028 21.446V20.5665C79.5446 20.6465 79.2281 20.7264 78.6742 20.8064L75.1137 21.1262C73.5313 21.2062 72.028 21.9258 72.028 23.6048C72.028 25.2039 73.2939 26.2434 75.1137 26.2434ZM101.62 5.37507V23.3651C101.62 26.9631 103.677 29.1219 107.475 29.0419H111.906V25.284H108.108C106.604 25.284 106.051 24.3245 106.051 23.0453V13.9303H111.668V10.3323H106.13V4.89534L101.62 5.37507ZM125.436 13.9303V23.3651C125.436 26.9631 127.493 29.1219 131.37 29.0419H135.643V25.284H131.845C130.341 25.284 129.787 24.3245 129.787 23.0453V13.9303H135.405V10.3323H129.867V4.89534L125.357 5.37507V9.85258C125.357 10.1724 125.277 10.3323 124.961 10.3323H122.192V13.9303H125.436ZM138.649 22.4054V10.3321H143.159V21.286C143.159 23.6846 144.267 25.6036 146.957 25.6036C149.647 25.6036 151.309 23.5247 151.309 20.5664V10.3321H155.819V29.0417H151.309V26.2432H151.151C150.201 28.1622 148.381 29.5214 145.454 29.5214C141.34 29.5214 138.649 26.8829 138.649 22.4054ZM164.443 10.3325H160.092H160.012V29.0421H164.522V18.9677C164.522 15.6096 166.263 14.1704 168.874 14.1704H171.881V10.1726H169.191C166.817 10.1726 165.235 11.4519 164.602 13.4508H164.443V10.3325ZM88.1691 10.3325H92.5209V13.4508H92.6791C93.3121 11.4519 94.8945 10.1726 97.2682 10.1726H99.5628V14.1704H96.9517C94.3407 14.1704 92.6 15.6096 92.6 18.9677V29.0421H88.09V10.3325H88.1691ZM179.714 18.1683C176.153 18.4082 173.068 19.8474 173.068 23.7652C173.068 27.4431 175.837 29.6019 179.556 29.442C182.721 29.442 184.857 27.763 185.332 26.0839H185.49V28.9623H190V16.5692C190 12.2516 186.598 9.693 181.771 9.693C176.865 9.693 174.017 12.4115 173.621 15.5298L177.815 16.0894C178.211 14.5703 179.397 13.291 181.771 13.291C184.066 13.291 185.411 14.4903 185.411 16.2494C185.411 17.2888 184.936 17.7685 183.828 17.8485L179.714 18.1683ZM185.332 21.4465C185.332 24.5647 183.116 26.2438 180.743 26.2438C178.923 26.2438 177.657 25.2044 177.657 23.6053C177.657 21.9262 179.16 21.2066 180.743 21.1266L184.303 20.8068C184.857 20.7269 185.173 20.6469 185.332 20.567V21.4465Z" fill="#0A0B16"/>
</g>
<defs>
<filter id="filter0_b_2640_14475" x="-25.2633" y="-25.2633" width="82.1932" height="82.5265" filterUnits="userSpaceOnUse" color-interpolation-filters="sRGB">
<feFlood flood-opacity="0" result="BackgroundImageFix"/>
<feGaussianBlur in="BackgroundImageFix" stdDeviation="12.6316"/>
<feComposite in2="SourceAlpha" operator="in" result="effect1_backgroundBlur_2640_14475"/>
<feBlend mode="normal" in="SourceGraphic" in2="effect1_backgroundBlur_2640_14475" result="shape"/>
</filter>
<clipPath id="clip0_2640_14475">
<rect width="190" height="32" fill="white"/>
</clipPath>
</defs>
</svg>
