<svg width="1180" height="182" viewBox="0 0 1180 182" fill="none" xmlns="http://www.w3.org/2000/svg">
<g clip-path="url(#clip0_57_310)">
<path d="M975.58 1H844.91C838.57 1 833.43 6.14 833.43 12.48V169.84C833.43 176.18 838.57 181.32 844.91 181.32H975.27C978.31 181.32 981.24 180.11 983.39 177.96C985.54 175.81 986.75 172.89 986.75 169.84V118.23H963.79V158.36H856.4V23.97H964.1V42.27H886.19C879.85 42.27 874.71 47.41 874.71 53.75V128.53C874.71 134.87 879.85 140.01 886.19 140.01H945.49V117.04H897.67V65.22H975.58C981.92 65.22 987.06 60.08 987.06 53.74V12.48C987.06 6.14 981.92 1 975.58 1Z" fill="#7115AA"/>
<path d="M157.86 0.98998H0V24.1H146.3V83.81H52.97C46.59 83.81 41.41 88.98 41.41 95.37V141.05H64.53V106.93H157.86C164.24 106.93 169.42 101.76 169.42 95.37V12.54C169.42 6.15998 164.25 0.97998 157.86 0.97998V0.98998Z" fill="#7115AA"/>
<path d="M82.82 158.34H23.12V65.5099H128.01V42.3999H11.56C5.18 42.3999 0 47.5699 0 53.9599V169.91C0 176.29 5.17 181.47 11.56 181.47H94.38C100.76 181.47 105.94 176.3 105.94 169.91V125.23H82.82V158.36V158.34Z" fill="#7115AA"/>
<path d="M793.63 181.46H752.22C745.84 181.46 740.66 176.29 740.66 169.9V12.54C740.66 6.15998 745.83 0.97998 752.22 0.97998H805.25V24.1H763.78V158.34H782.08V42.4H805.19V169.9C805.19 176.28 800.02 181.46 793.63 181.46Z" fill="#7115AA"/>
<path d="M249.6 181.46H208.19C201.81 181.46 196.63 176.29 196.63 169.9V12.54C196.63 6.15998 201.8 0.97998 208.19 0.97998H261.22V24.1H219.75V158.34H238.05V42.4H261.16V169.9C261.16 176.28 255.99 181.46 249.6 181.46Z" fill="#7115AA"/>
<path d="M543.18 12.5402V169.9C543.18 176.28 538.01 181.46 531.63 181.46H480.21V158.34H520.07V24.1002H459.48L426.44 101.62C424.62 105.88 420.44 108.64 415.81 108.64C411.18 108.64 407 105.88 405.18 101.62L372.14 24.1002H311.55V158.34H351.41V181.46H299.99C293.61 181.46 288.44 176.28 288.44 169.9V12.5402C288.44 6.16023 293.61 0.990234 299.99 0.990234H379.77C384.41 0.990234 388.59 3.75023 390.41 8.01023L415.81 67.6102L441.21 8.01023C443.03 3.75023 447.21 0.990234 451.85 0.990234H531.63C538.01 0.990234 543.18 6.16023 543.18 12.5402Z" fill="#7115AA"/>
<path d="M501.77 53.9604V140.04H480.21V74.3004L448.46 147.7C446.65 151.96 442.46 154.72 437.83 154.72H393.79C389.16 154.72 384.97 151.96 383.16 147.7L351.41 74.3004V140.04H329.85V53.9604C329.85 47.5704 335.03 42.4004 341.41 42.4004H352.15C356.78 42.4004 360.97 45.1604 362.78 49.4204L398.28 131.61H433.34L468.84 49.4204C470.65 45.1604 474.84 42.4004 479.47 42.4004H490.21C496.59 42.4004 501.77 47.5704 501.77 53.9604Z" fill="#7115AA"/>
<path d="M691.28 158.34H594.47V42.3999H571.35V169.9C571.35 176.28 576.52 181.46 582.91 181.46H702.84C709.22 181.46 714.4 176.29 714.4 169.9V117.46H691.28V158.34Z" fill="#7115AA"/>
<path d="M612.76 128.49C612.76 134.87 617.93 140.05 624.32 140.05H672.98V116.94H635.87V12.54C635.87 6.15998 630.7 0.97998 624.31 0.97998H571.86V24.1H612.75V128.49H612.76Z" fill="#7115AA"/>
<path d="M1168.12 1H1026.72C1020.38 1 1015.23 6.14 1015.23 12.48V169.84C1015.23 176.18 1020.38 181.32 1026.72 181.32H1168.12C1174.46 181.32 1179.6 176.18 1179.6 169.84V12.48C1179.6 6.14 1174.46 1 1168.12 1ZM1156.64 158.36H1038.2V23.97H1156.64V158.36Z" fill="#7115AA"/>
<path d="M1127.25 42.27H1067.59C1061.38 42.27 1056.34 47.31 1056.34 53.52V104.3H1078.85V64.77H1116V117.56H1078.85V99.28H1056.34V128.81C1056.34 135.02 1061.38 140.06 1067.59 140.06H1127.25C1133.47 140.06 1138.51 135.02 1138.51 128.81V53.52C1138.51 47.31 1133.47 42.27 1127.25 42.27Z" fill="#7115AA"/>
</g>
<defs>
<clipPath id="clip0_57_310">
<rect width="1179.6" height="181.46" fill="white"/>
</clipPath>
</defs>
</svg>
