<svg width="28" height="29" viewBox="0 0 28 29" fill="none" xmlns="http://www.w3.org/2000/svg">
<g clip-path="url(#clip0_612_20208)">
<mask id="mask0_612_20208" style="mask-type:alpha" maskUnits="userSpaceOnUse" x="3" y="3" width="23" height="23">
<path d="M3.31672 24.7062C3.31672 24.5531 3.43338 24.2469 3.66672 23.7875C3.89276 23.3354 4.14067 22.7557 4.41047 22.0484C4.68755 21.3411 4.95005 20.6047 5.19797 19.8391C5.44588 19.0734 5.69745 18.2531 5.95265 17.3781L6.80578 14.4906L5.66828 14.7969C5.3839 14.7969 5.15057 14.6474 4.96828 14.3484C4.92453 14.2682 4.90265 14.1734 4.90265 14.064C4.90265 13.9547 4.99015 13.8271 5.16515 13.6812C5.34015 13.5281 5.55526 13.3859 5.81047 13.2547C6.32088 12.9922 6.84588 12.7917 7.38547 12.6531L7.4839 12.3469C7.68078 11.7344 7.86672 11.1 8.04172 10.4437C8.22401 9.7802 8.41359 9.13488 8.61047 8.5078C8.81463 7.88072 9.04432 7.28645 9.29953 6.72499C9.55474 6.15624 9.8537 5.6604 10.1964 5.23749C10.9547 4.31874 11.9063 3.85936 13.0511 3.85936C13.8969 3.85936 14.5678 4.0854 15.0636 4.53749C15.5594 4.98957 15.8073 5.60207 15.8073 6.37499C15.8073 7.17707 15.5777 7.87342 15.1183 8.46405C14.7318 8.95259 14.3016 9.19686 13.8277 9.19686C13.237 9.19686 12.836 8.92707 12.6245 8.38749C12.5662 8.24895 12.537 8.13228 12.537 8.03749C12.537 7.87707 12.6464 7.73124 12.8652 7.59999C13.2662 7.29374 13.5469 6.8854 13.7073 6.37499C13.7584 6.21457 13.7839 6.0578 13.7839 5.90467C13.7839 5.30676 13.5506 5.0078 13.0839 5.0078C12.4422 5.0078 11.8516 5.73332 11.312 7.18436C11.1516 7.62915 10.9912 8.1177 10.8308 8.64999L9.80265 12.139C10.4662 12.037 10.9474 11.9859 11.2464 11.9859C11.5527 11.9859 11.8224 12.0224 12.0558 12.0953C12.2891 12.1609 12.5006 12.2557 12.6902 12.3797C13.1204 12.664 13.3355 13.014 13.3355 13.4297C13.3355 13.8453 13.1313 14.0531 12.723 14.0531L11.3339 13.9984C10.5756 13.9984 9.87557 14.0312 9.2339 14.0969L8.33703 17.2687C7.7464 19.4198 7.26515 20.9838 6.89328 21.9609C6.5287 22.938 6.1714 23.7656 5.8214 24.4437C5.49328 25.0635 4.9938 25.3734 4.32297 25.3734C3.65213 25.3734 3.31672 25.151 3.31672 24.7062ZM14.9586 22.0594C14.645 22.2854 14.4008 22.3984 14.2258 22.3984C14.0581 22.3984 13.9159 22.3729 13.7992 22.3219C13.6898 22.2781 13.5878 22.2198 13.493 22.1469C13.2742 21.9646 13.1648 21.8005 13.1648 21.6547C13.1648 21.5016 13.245 21.363 13.4055 21.2391C13.4055 21.2391 13.6279 21.0604 14.0727 20.7031C15.2685 19.7187 16.2565 18.6505 17.0367 17.4984C16.4023 15.7193 16.1107 14.239 16.1617 13.0578C16.1909 12.4745 16.4424 11.9713 16.9164 11.5484C17.3539 11.1693 17.8206 10.9797 18.3164 10.9797C18.4622 10.9797 18.557 11.0307 18.6008 11.1328C18.6445 11.2349 18.6664 11.3844 18.6664 11.5812C18.6664 11.7708 18.6591 11.975 18.6445 12.1937C18.6299 12.4052 18.6263 12.6312 18.6336 12.8719C18.6482 13.1052 18.6664 13.3604 18.6883 13.6375C18.7612 14.3812 18.8305 14.9609 18.8961 15.3765L19.257 14.775C20.0883 13.4552 21.0581 12.4088 22.1664 11.6359C22.7935 11.1984 23.3331 10.9797 23.7852 10.9797C24.1935 10.9797 24.5107 11.038 24.7367 11.1547C25.1596 11.3734 25.3018 11.5958 25.1633 11.8219C25.1414 11.8583 25.0977 11.8875 25.032 11.9094L24.7586 12.0406C23.6065 12.5437 22.1372 13.776 20.3508 15.7375C19.9789 16.1458 19.6544 16.5359 19.3773 16.9078L19.7602 18.1875C20.2341 19.7187 20.7956 20.4844 21.4445 20.4844C21.7289 20.4844 21.9622 20.4406 22.1445 20.3531L22.5383 20.1781C22.6185 20.1417 22.6951 20.1234 22.768 20.1234C22.9211 20.1234 22.9977 20.2 22.9977 20.3531C22.9977 20.9948 22.6695 21.5344 22.0133 21.9719C21.5758 22.2635 21.0799 22.4094 20.5258 22.4094C19.4539 22.4094 18.4841 21.3047 17.6164 19.0953C16.6977 20.4443 15.8117 21.4323 14.9586 22.0594Z" fill="black"/>
</mask>
<g mask="url(#mask0_612_20208)">
<rect x="-0.336044" y="1.004" width="27.048" height="27.048" rx="13.524" fill="url(#paint0_linear_612_20208)"/>
<g filter="url(#filter0_f_612_20208)">
<rect x="-6.66403" y="7.332" width="28.56" height="28.56" rx="14.28" fill="url(#paint1_linear_612_20208)"/>
</g>
<g filter="url(#filter1_f_612_20208)">
<rect x="-10.696" y="9.68399" width="30.016" height="30.016" rx="15.008" fill="#4870FF"/>
</g>
</g>
</g>
<defs>
<filter id="filter0_f_612_20208" x="-8.90403" y="5.092" width="33.04" height="33.04" filterUnits="userSpaceOnUse" color-interpolation-filters="sRGB">
<feFlood flood-opacity="0" result="BackgroundImageFix"/>
<feBlend mode="normal" in="SourceGraphic" in2="BackgroundImageFix" result="shape"/>
<feGaussianBlur stdDeviation="1.12" result="effect1_foregroundBlur_612_20208"/>
</filter>
<filter id="filter1_f_612_20208" x="-12.936" y="7.44399" width="34.496" height="34.496" filterUnits="userSpaceOnUse" color-interpolation-filters="sRGB">
<feFlood flood-opacity="0" result="BackgroundImageFix"/>
<feBlend mode="normal" in="SourceGraphic" in2="BackgroundImageFix" result="shape"/>
<feGaussianBlur stdDeviation="1.12" result="effect1_foregroundBlur_612_20208"/>
</filter>
<linearGradient id="paint0_linear_612_20208" x1="27.9414" y1="28.052" x2="-3.7208" y2="0.839115" gradientUnits="userSpaceOnUse">
<stop stop-color="#D1A3FF"/>
<stop offset="1" stop-color="#FFE298"/>
</linearGradient>
<linearGradient id="paint1_linear_612_20208" x1="23.2663" y1="37.7909" x2="-11.4177" y2="7.22637" gradientUnits="userSpaceOnUse">
<stop stop-color="#4870FF"/>
<stop offset="1" stop-color="#A4DEFF"/>
</linearGradient>
<clipPath id="clip0_612_20208">
<rect width="28" height="28" fill="white" transform="translate(0 0.5)"/>
</clipPath>
</defs>
</svg>
