<?xml version="1.0" encoding="UTF-8"?>
<svg fill="none" viewBox="0 0 64 64" xmlns="http://www.w3.org/2000/svg">
<g clip-path="url(#c)">
<path d="m64 32c0 17.673-14.327 32-32 32s-32-14.327-32-32 14.327-32 32-32 32 14.327 32 32z" fill="#fff"/>
<path d="m33.755 58.396c6.181-0.4259 12.242-3.0016 16.967-7.7272 4.7138-4.7143 7.2882-10.758 7.7233-16.924h-14.353c-0.3845 2.4997-1.5393 4.9038-3.4645 6.8292-1.9365 1.9366-4.3572 3.0938-6.8723 3.4716v14.351z" fill="url(#b)"/>
<path d="m30.278 58.41v-14.335c-2.5873-0.345-5.0861-1.5117-7.0744-3.5002-1.9252-1.9254-3.08-4.3295-3.4645-6.8292h-14.353c0.43505 6.1664 3.0095 12.21 7.7234 16.924 4.7765 4.777 10.918 7.3571 17.169 7.7404z" fill="url(#b)"/>
<path d="m5.3672 30.268c0.37376-6.2666 2.9545-12.426 7.7422-17.214 4.7765-4.777 10.918-7.3571 17.169-7.7403v14.336c-2.5873 0.345-5.0861 1.5117-7.0744 3.5002-1.9994 1.9996-3.168 4.5156-3.5055 7.1188h-14.331z" fill="url(#b)"/>
<path d="m33.755 5.3265v14.351c2.5151 0.3777 4.9358 1.5349 6.8723 3.4716 1.9994 1.9996 3.168 4.5156 3.5056 7.1188h14.331c-0.3737-6.2666-2.9544-12.426-7.7421-17.214-4.7251-4.7255-10.786-7.3012-16.967-7.7272z" fill="url(#b)"/>
</g>
<defs>
<linearGradient id="b" x1="8.3174" x2="56.22" y1="10.791" y2="53.617" gradientUnits="userSpaceOnUse">
<stop stop-color="#FF661E" offset="0"/>
<stop stop-color="#FF9308" offset="1"/>
</linearGradient>
<clipPath id="c">
<rect width="64" height="64" fill="#fff"/>
</clipPath>
</defs>
</svg>
