<svg width="109" height="102" viewBox="0 0 109 102" fill="none" xmlns="http://www.w3.org/2000/svg">
<path fill-rule="evenodd" clip-rule="evenodd" d="M58.0023 101.197C85.727 101.197 108.202 78.7216 108.202 50.9969C108.202 23.2722 85.727 0.796875 58.0023 0.796875C30.2776 0.796875 7.80231 23.2722 7.80231 50.9969C7.80231 78.7216 30.2776 101.197 58.0023 101.197ZM35.9863 69.0969C31.4802 73.4943 26.3484 78.344 21.4574 67.9301C16.5664 57.5161 16.5711 43.4673 22.2324 32.9293C26.7646 24.4929 32.3701 27.7695 36.7924 32.081L55.3638 50.187L35.9863 69.0969ZM41.0945 28.7572C36.5155 24.3007 33.8273 16.7912 41.7358 13.6554C52.0256 7.93223 64.506 8.37687 74.6725 13.6824C83.1755 18.1198 80.3219 24.4671 75.6113 29.0519L58.5045 45.7019L41.0945 28.7572ZM77.6146 87.1741C83.9016 83.1888 81.9101 77.3556 77.8332 73.226L58.5045 53.6472L39.1655 73.2332C34.9424 77.5102 31.025 82.4589 39.6472 87.5699C50.9457 94.2673 66.9166 93.9554 77.6146 87.1741ZM94.8873 65.3121C91.4065 75.0876 84.352 72.2703 79.4098 67.3718L62.072 50.187L79.3374 33.0779C84.0652 28.3928 90.5909 25.336 94.3927 34.6769C98.1945 44.0179 98.3681 55.5367 94.8873 65.3121Z" fill="#151413"/>
<path d="M18.6812 92.1484C18.6812 97.119 14.6518 101.148 9.68121 101.148C4.71065 101.148 0.681213 97.119 0.681213 92.1484C0.681213 87.1779 4.71065 83.1484 9.68121 83.1484C14.6518 83.1484 18.6812 87.1779 18.6812 92.1484Z" fill="#151413"/>
</svg>
