<svg width="121" height="24" viewBox="0 0 121 24" fill="none" xmlns="http://www.w3.org/2000/svg">
<path d="M12.7105 17.2053C12.7105 21.2 9.775 23.4697 6.77895 23.4697C4.69079 23.4697 3.02632 22.6526 1.66447 21.6237L0.66579 23.4092H0.181579L0 16.4487H0.393421C1.63421 20.05 3.75263 22.8342 6.9 22.8342C9.50263 22.8342 10.8645 21.1395 10.8645 18.7487C10.8645 16.8724 9.98684 15.3895 8.11053 14.5421C6.325 13.725 5.87105 13.6342 4.025 12.7566C1.93684 11.7579 0.544737 10.275 0.544737 7.52106C0.544737 4.34343 3.08684 2.10396 5.90132 2.10396C7.74737 2.10396 9.38158 2.8908 10.4105 3.82896L11.379 2.10396H11.8632L12.0145 8.88291H11.5908C10.4711 5.40264 8.625 2.73948 5.78026 2.73948C3.57105 2.73948 2.36053 4.37369 2.36053 6.06843C2.36053 7.88422 3.05658 9.2158 4.66053 10.0632C6.02237 10.7895 7.02106 11.0619 8.47369 11.7579C10.7737 12.8474 12.7105 14.1487 12.7105 17.2053Z" fill="black"/>
<path d="M25.3783 19.6263H25.8625C25.7414 22.4105 24.8033 23.3487 23.4112 23.3487C22.2309 23.3487 21.4138 22.7132 21.0809 21.3211H20.9901C19.9914 22.7132 18.3875 23.4092 16.9651 23.4092C15.0888 23.4092 13.8177 22.2895 13.8177 20.3526C13.8177 17.8711 15.1191 17.0842 16.4809 16.5092C18.0546 15.8434 19.9006 15.2987 21.0809 14.5724V12.5145C21.0809 10.9105 20.3848 9.48817 18.4783 9.48817C17.4493 9.48817 16.9348 10.1237 16.723 10.4869C16.7533 11.0316 16.9348 11.9697 16.9348 12.4842C16.9348 13.1197 16.4506 13.6342 15.4519 13.6342C14.7862 13.6342 14.5138 12.9079 14.5138 12.2119C14.5138 10.4566 16.6927 9.06448 18.7204 9.06448C21.2322 9.06448 23.2296 9.70001 23.2296 13.5434C23.2296 16.1763 23.1085 19.3237 23.1085 20.3224C23.1085 21.3513 23.3506 22.1382 24.1677 22.1382C24.9243 22.1382 25.2875 21.2 25.3783 19.6263ZM20.9598 20.7158L21.0809 15.2987C18.0243 16.2671 16.0875 17.3263 16.0875 19.9895C16.0875 21.654 16.7533 22.5013 18.0243 22.5013C19.3256 22.5013 20.2335 21.7145 20.9598 20.7158Z" fill="black"/>
<path d="M32.8003 19.5053H33.2845C33.0121 21.5934 32.1648 23.3487 30.0464 23.3487C27.9279 23.3487 26.8687 21.8658 26.8687 19.2934V10.3658H24.2964V9.51843H26.899V4.82764H29.0174V9.51843H32.6187V10.3658H29.0174V19.0816C29.0174 21.0487 29.3503 22.229 30.8029 22.229C31.8621 22.229 32.5279 21.2605 32.8003 19.5053Z" fill="black"/>
<path d="M44.3008 16.1158C44.3008 20.0803 41.9705 23.5 38.006 23.5C34.9192 23.5 32.0745 20.7461 32.0745 16.3579C32.0745 12.0605 34.556 9.06448 38.2784 9.06448C41.91 9.06448 44.3008 12.1513 44.3008 16.1158ZM41.9705 16.1461C41.9705 12.8776 41.0021 9.48817 38.2179 9.48817C35.1916 9.48817 34.4047 13.1197 34.4047 16.0855C34.4047 19.7776 35.4942 23.0763 38.2179 23.0763C40.76 23.0763 41.9705 19.8684 41.9705 16.1461Z" fill="black"/>
<path d="M54.5068 19.3237C54.5068 21.8658 52.4489 23.5 49.9371 23.5C48.3936 23.5 47.2436 22.8342 46.4568 22.2592L45.9423 23.2579H45.5792L45.4581 18.6276H45.8213C46.366 20.8974 48.0305 22.9855 50.0581 22.9855C52.1765 22.9855 53.1147 21.775 53.1147 20.1105C53.1147 18.4763 51.8739 17.9013 49.7252 17.175C47.4555 16.4184 45.7607 15.45 45.7607 12.9079C45.7607 10.6987 47.4252 9.06448 49.8765 9.06448C51.1476 9.06448 52.1765 9.51843 52.8423 10.0026L53.3568 9.03422H53.72L53.9015 13.1197H53.5384C53.0542 11.3645 51.4502 9.54869 49.7252 9.54869C48.2121 9.54869 47.1831 10.6079 47.1831 11.9697C47.1831 13.6947 48.3936 14.2697 50.5423 14.9961C52.9028 15.7829 54.5068 16.8119 54.5068 19.3237Z" fill="black"/>
<path d="M69.2944 22.7434V23.1066H62.9391V22.7434C63.4838 22.7132 63.9075 22.6829 64.3312 22.5619C64.8759 22.3803 65.1483 21.8355 65.1483 21.1697V13.5434C65.1483 11.425 64.0286 10.2447 62.7575 10.2447C60.6694 10.2447 59.4891 11.6369 59.1562 12.3329V21.0184C59.1562 21.6842 59.4588 22.1684 59.943 22.4105C60.397 22.6224 60.8207 22.7132 61.3352 22.7434V23.1066H55.1009V22.7434C55.6154 22.7132 55.918 22.7132 56.3115 22.5619C56.8259 22.3803 57.0378 21.8355 57.0378 21.1697V3.40527C57.0378 2.64869 56.7352 1.98291 56.3115 1.65001C55.9786 1.40791 55.0102 1.22633 54.5259 1.19606V0.832905L58.9746 0.530273L59.1562 0.742116V11.5461H59.2167C60.2457 10.4263 61.3352 9.06448 63.6957 9.06448C66.2075 9.06448 67.297 10.9711 67.297 13.8461V21.0487C67.297 21.7145 67.5391 22.1987 68.0536 22.4408C68.4167 22.6224 68.8102 22.7132 69.2944 22.7434Z" fill="black"/>
<path d="M73.0801 2.61843C73.0801 3.43554 72.4748 4.19212 71.6275 4.19212C70.8709 4.19212 70.2354 3.52633 70.2354 2.80001C70.2354 2.04343 70.8709 1.31712 71.6275 1.31712C72.5051 1.31712 73.0801 1.95264 73.0801 2.61843ZM74.8959 22.7434V23.1066H68.8433V22.7434C69.3577 22.7132 69.6906 22.7132 70.084 22.5619C70.5985 22.3803 70.8104 21.775 70.8104 21.1697V11.9395C70.8104 11.304 70.5077 10.7592 70.0538 10.4263C69.7209 10.1842 68.9643 9.94211 68.4801 9.91185V9.60922L72.7472 9.27633L72.9288 9.48817V20.9882C72.9288 21.654 73.0498 22.1382 73.6854 22.4408C74.109 22.6526 74.563 22.7132 74.8959 22.7434Z" fill="black"/>
<path d="M88.7652 17.2053C88.7652 21.2 85.8297 23.4697 82.8336 23.4697C80.7455 23.4697 79.081 22.6526 77.7192 21.6237L76.7205 23.4092H76.2363L76.0547 16.4487H76.4481C77.6889 20.05 79.8073 22.8342 82.9547 22.8342C85.5573 22.8342 86.9192 21.1395 86.9192 18.7487C86.9192 16.8724 86.0415 15.3895 84.1652 14.5421C82.3797 13.725 81.9257 13.6342 80.0797 12.7566C77.9915 11.7579 76.5994 10.275 76.5994 7.52105C76.5994 4.34342 79.1415 2.10395 81.956 2.10395C83.8021 2.10395 85.4363 2.89079 86.4652 3.82895L87.4336 2.10395H87.9178L88.0692 8.88289H87.6455C86.5257 5.40263 84.6797 2.73947 81.8349 2.73947C79.6257 2.73947 78.4152 4.37368 78.4152 6.06842C78.4152 7.88421 79.1113 9.21579 80.7152 10.0632C82.0771 10.7895 83.0757 11.0618 84.5284 11.7579C86.8284 12.8474 88.7652 14.1487 88.7652 17.2053Z" fill="#AF937F"/>
<path d="M101.433 19.6263H101.917C101.796 22.4105 100.858 23.3487 99.4658 23.3487C98.2856 23.3487 97.4685 22.7132 97.1356 21.3211H97.0448C96.0461 22.7132 94.4422 23.4092 93.0198 23.4092C91.1435 23.4092 89.8724 22.2895 89.8724 20.3526C89.8724 17.8711 91.1737 17.0842 92.5356 16.5092C94.1093 15.8434 95.9553 15.2987 97.1356 14.5724V12.5145C97.1356 10.9105 96.4395 9.48816 94.5329 9.48816C93.504 9.48816 92.9895 10.1237 92.7777 10.4868C92.8079 11.0316 92.9895 11.9697 92.9895 12.4842C92.9895 13.1197 92.5053 13.6342 91.5066 13.6342C90.8408 13.6342 90.5685 12.9079 90.5685 12.2118C90.5685 10.4566 92.7474 9.06447 94.7751 9.06447C97.2869 9.06447 99.2843 9.7 99.2843 13.5434C99.2843 16.1763 99.1632 19.3237 99.1632 20.3224C99.1632 21.3513 99.4053 22.1382 100.222 22.1382C100.979 22.1382 101.342 21.2 101.433 19.6263ZM97.0145 20.7158L97.1356 15.2987C94.079 16.2671 92.1422 17.3263 92.1422 19.9895C92.1422 21.6539 92.8079 22.5013 94.079 22.5013C95.3803 22.5013 96.2882 21.7145 97.0145 20.7158Z" fill="#AF937F"/>
<path d="M111.969 2.8C111.969 3.31447 111.484 4.01053 110.728 4.01053C110.001 4.01053 109.457 3.49605 109.457 2.67895C109.457 2.37631 109.517 2.07368 109.638 1.49868C109.457 1.22632 109.154 1.04474 108.851 1.04474C107.066 1.04474 106.249 2.73947 106.067 7.52105C106.037 7.975 106.037 9.00395 106.037 9.51842H109.366V10.3053H106.037V21.0184C106.037 21.6842 106.249 22.1987 106.763 22.4105C107.157 22.5921 108.004 22.7132 108.488 22.7434V23.1066H101.982V22.7434C102.496 22.7132 102.799 22.7132 103.192 22.5618C103.707 22.3803 103.919 21.8355 103.919 21.1697V10.3053H101.195V9.51842H103.919V8.51974C103.919 5.91711 104.463 3.82895 105.795 2.25526C106.794 1.04474 108.397 0.5 109.517 0.5C111.303 0.5 111.969 1.65 111.969 2.8Z" fill="#AF937F"/>
<path d="M120.068 19.6566L120.432 19.8684C119.524 22.0171 117.768 23.4092 115.499 23.4092C111.504 23.4092 109.597 20.1711 109.597 16.1461C109.597 12.5447 111.746 9.06447 115.257 9.06447C118.858 9.06447 120.25 11.6066 120.25 15.1171V15.3289H111.897V15.6618C111.897 19.5355 113.168 22.4711 116.074 22.4711C118.222 22.4711 119.039 21.5026 120.068 19.6566ZM111.897 14.7842L117.98 14.7237C117.98 11.9395 117.496 9.48816 115.287 9.48816C113.441 9.48816 111.988 11.425 111.897 14.7842Z" fill="#AF937F"/>
</svg>
