<?xml version="1.0" encoding="utf-8"?>
<!-- Generator: Adobe Illustrator 23.0.1, SVG Export Plug-In . SVG Version: 6.00 Build 0)  -->
<svg version="1.1" id="Layer_1" xmlns="http://www.w3.org/2000/svg" xmlns:xlink="http://www.w3.org/1999/xlink" x="0px" y="0px"
	 viewBox="0 0 549.67 205.96" enable-background="new 0 0 549.67 205.96" xml:space="preserve">
<g>
	<path fill="#FF9A72" d="M67.79,204.37c-18.37,0-33.42-3.98-45.16-11.93c-11.74-7.95-18.84-19.31-21.3-34.08l32.94-8.52
		c1.32,6.63,3.55,11.83,6.67,15.62c3.12,3.79,7,6.49,11.64,8.09c4.64,1.61,9.7,2.41,15.19,2.41c8.33,0,14.48-1.46,18.46-4.4
		c3.98-2.93,5.96-6.58,5.96-10.93c0-4.35-1.9-7.71-5.68-10.08c-3.79-2.37-9.85-4.3-18.18-5.82l-7.95-1.42
		c-9.85-1.89-18.84-4.5-26.98-7.81c-8.14-3.31-14.67-7.9-19.6-13.77C8.9,115.86,6.44,108.28,6.44,99c0-14.01,5.11-24.75,15.34-32.23
		C32,59.29,45.45,55.55,62.11,55.55c15.71,0,28.78,3.51,39.19,10.51c10.41,7.01,17.23,16.19,20.45,27.55l-33.23,10.22
		c-1.52-7.19-4.59-12.31-9.23-15.34c-4.64-3.03-10.37-4.54-17.18-4.54s-12.03,1.18-15.62,3.55c-3.6,2.37-5.4,5.64-5.4,9.8
		c0,4.54,1.89,7.91,5.68,10.08c3.79,2.18,8.9,3.83,15.34,4.97l7.95,1.42c10.6,1.9,20.21,4.4,28.83,7.53
		c8.61,3.12,15.43,7.58,20.45,13.35c5.01,5.78,7.53,13.59,7.53,23.43c0,14.77-5.35,26.18-16.05,34.22
		C100.12,200.35,85.77,204.37,67.79,204.37z"/>
	<path fill="#FF9A72" d="M212.62,204.37c-14.01,0-26.37-2.98-37.06-8.95c-10.7-5.96-19.03-14.39-24.99-25.28
		c-5.96-10.88-8.95-23.71-8.95-38.48v-3.41c0-14.77,2.93-27.59,8.8-38.48c5.87-10.89,14.1-19.31,24.71-25.28
		c10.6-5.96,22.91-8.95,36.92-8.95c13.82,0,25.84,3.08,36.07,9.23c10.22,6.15,18.18,14.67,23.86,25.56
		c5.68,10.89,8.52,23.53,8.52,37.91v12.21H177.98c0.38,9.66,3.98,17.51,10.79,23.57c6.82,6.06,15.15,9.09,24.99,9.09
		c10.03,0,17.42-2.17,22.15-6.53c4.73-4.35,8.33-9.18,10.79-14.48l29.25,15.34c-2.65,4.92-6.49,10.27-11.5,16.05
		c-5.02,5.78-11.69,10.7-20.02,14.77C236.1,202.33,225.5,204.37,212.62,204.37z M178.26,113.77h65.89
		c-0.76-8.14-4.02-14.67-9.8-19.6c-5.78-4.92-13.3-7.38-22.58-7.38c-9.66,0-17.32,2.46-23,7.38
		C183.09,99.1,179.58,105.63,178.26,113.77z"/>
	<path fill="#FF9A72" d="M321.4,200.39V89.06h-35.78V59.53h35.78V33.4c0-9.66,2.88-17.37,8.66-23.15c5.77-5.77,13.3-8.66,22.58-8.66
		h36.92v29.54h-24.42c-5.3,0-7.95,2.84-7.95,8.52v19.88h36.92v29.54h-36.92v111.33H321.4z"/>
	<path fill="#FF9A72" d="M465.95,202.66c-10.98,0-20.59-2.51-28.83-7.53c-8.24-5.01-14.63-11.97-19.17-20.87
		c-4.54-8.9-6.82-19.12-6.82-30.67V59.53h35.78v81.22c0,10.61,2.6,18.56,7.81,23.86c5.21,5.3,12.64,7.95,22.29,7.95
		c10.98,0,19.5-3.64,25.56-10.93c6.06-7.29,9.09-17.47,9.09-30.53V59.53h35.78v140.86h-35.22v-18.46h-5.11
		c-2.27,4.74-6.53,9.37-12.78,13.92S478.63,202.66,465.95,202.66z"/>
</g>
</svg>
