<svg xmlns="http://www.w3.org/2000/svg" viewBox="0 0 52.45 50"><defs><style>.cls-1{fill:#ff8610;}.cls-2{fill:#f0762d;}.cls-3{fill:#e1664a;}.cls-4{fill:#d25667;}.cls-5{fill:#c34584;}.cls-6{fill:#b435a1;}.cls-7{fill:#a525be;}.cls-8{fill:#9615db;}.cls-9{fill:#000;}</style></defs><g id="Horizontal_White"><path class="cls-1" d="M127.425,228.333H102.468a25.046,25.046,0,0,1,21.623-1.606h0Z" transform="translate(-90 -225)"/><path class="cls-2" d="M97.951,231.667A24.768,24.768,0,0,0,94.944,235h11.381a20.058,20.058,0,0,1,3.017-3.333Z" transform="translate(-90 -225)"/><path class="cls-3" d="M92.83,238.333a24.506,24.506,0,0,0-1.463,3.334H103.2a19.558,19.558,0,0,1,1.187-3.334Z" transform="translate(-90 -225)"/><path class="cls-4" d="M102.642,245h-12.2A24.856,24.856,0,0,0,90,248.333h12.642q-.07-.825-.07-1.666C102.572,246.107,102.6,245.55,102.642,245Z" transform="translate(-90 -225)"/><path class="cls-5" d="M103.2,251.667H90A24.856,24.856,0,0,0,90.443,255h13.946A19.548,19.548,0,0,1,103.2,251.667Z" transform="translate(-90 -225)"/><path class="cls-6" d="M106.325,258.333H91.367a24.506,24.506,0,0,0,1.463,3.334h16.512A20.1,20.1,0,0,1,106.325,258.333Z" transform="translate(-90 -225)"/><path class="cls-7" d="M94.944,265a24.768,24.768,0,0,0,3.007,3.333h18.662V265Z" transform="translate(-90 -225)"/><path class="cls-8" d="M102.468,271.667c.064.04.127.076.194.11.12.07.243.136.366.2.177.1.357.193.537.283A24.874,24.874,0,0,0,114.947,275c.553,0,1.1-.017,1.646-.057a.018.018,0,0,0,.02,0v-3.276Z" transform="translate(-90 -225)"/><path class="cls-9" d="M130.215,252.317a14.18,14.18,0,0,1-12.908,10.166,16.692,16.692,0,0,1-9.5-8.076l10.235-3.764a10.124,10.124,0,0,1-2.984-2.456l-8.5,3.126a16.561,16.561,0,0,1-.66-4.646c0-.51.024-1.017.07-1.517l.647-.377a28.429,28.429,0,0,1,9.5-3.013.447.447,0,0,0,0,.073,6.666,6.666,0,0,0,12.519,3.19,7.507,7.507,0,0,0,1.583,7.294Z" transform="translate(-90 -225)"/><path class="cls-9" d="M126.058,242.447l0,.01c-.014.07-.027.14-.047.21-.007.033-.017.066-.027.1a2.21,2.21,0,0,1-.07.213c-.006.017-.013.037-.02.053-.023.064-.05.12-.076.18-.017.037-.034.074-.054.11-.026.057-.056.11-.086.164a.589.589,0,0,1-.044.073,1.917,1.917,0,0,1-.12.183c-.02.03-.04.057-.06.084a2.028,2.028,0,0,1-.127.16c-.063.076-.133.15-.2.22s-.13.123-.2.18c-.03.023-.057.046-.087.07a3.281,3.281,0,0,1-1.546.67c-.044.01-.09.013-.137.02a3.428,3.428,0,0,1-.37.02,3.336,3.336,0,0,1-3.334-3.334c0-.1,0-.206.013-.306A22.9,22.9,0,0,1,126.058,242.447Z" transform="translate(-90 -225)"/><path class="cls-9" d="M137.906,240.093a24.208,24.208,0,0,0-1.293-2.576,25.193,25.193,0,0,0-4.671-5.85H115.307a16.741,16.741,0,0,0-8.375,9.23,32.034,32.034,0,0,1,10.235-2.657,26.282,26.282,0,0,1,10.464,1.19c.517.17,1.041.36,1.561.57a25.063,25.063,0,0,1,2.36,1.1,7.493,7.493,0,0,1,6.341-1l0-.01C137.893,240.093,137.9,240.093,137.906,240.093Z" transform="translate(-90 -225)"/><path class="cls-9" d="M137.449,243.083a5.839,5.839,0,0,0-5.667,4.444c.22-.02.443-.027.667-.027.146,0,.293,0,.44.013a9.161,9.161,0,0,1,8.164,5.987,8.523,8.523,0,0,1,.417,1.543,9.684,9.684,0,0,0,.883-2.97,11.3,11.3,0,0,0,.1-1.49C142.45,246.44,140.21,243.083,137.449,243.083Z" transform="translate(-90 -225)"/></g></svg>