<svg width="256" height="256" viewBox="0 0 256 256" fill="none" xmlns="http://www.w3.org/2000/svg">
<path fill-rule="evenodd" clip-rule="evenodd" d="M108.217 163.447C82.9121 164.736 58.0653 151.439 40.0307 128.95C39.4849 128.295 39.4849 127.334 40.0307 126.679C58.0872 104.191 82.9339 90.894 108.239 92.1385C111.056 86.7674 114.505 81.7675 118.479 77.2261C115.794 76.7457 113.064 76.3746 110.335 76.1562C86.6238 75.0864 63.3928 83.2085 45.511 98.8414C40.0962 103.339 35.1181 108.317 30.5986 113.71C30.5767 113.732 30.5331 113.754 30.5112 113.776C30.2056 113.972 29.8126 113.907 29.616 113.601C24.4851 104.606 20.4677 94.9987 17.6512 85.0207V84.8679C16.7997 82.7718 15.1403 81.1343 13.0661 80.3265C11.3194 79.6059 9.33255 79.6496 7.62952 80.4793C4.35447 82.2478 2.62961 85.9814 3.37195 89.6276V89.7368C7.04001 102.793 12.5203 115.26 19.6817 126.767C20.0529 127.378 20.0529 128.142 19.6817 128.754C12.4984 140.304 7.01818 152.792 3.35012 165.871V166.177C3.30645 169.473 5.22782 172.465 8.21903 173.84C9.11421 174.233 10.0749 174.452 11.0574 174.473C13.6556 174.408 16.0573 173.076 17.4765 170.914L17.5639 170.762L17.6294 170.609C20.4677 160.609 24.4851 150.98 29.6379 141.941C29.6379 141.919 29.6815 141.876 29.7034 141.854C29.9436 141.592 30.3584 141.592 30.6204 141.854C35.14 147.269 40.1399 152.268 45.5765 156.788C62.1046 171.111 83.1086 179.211 104.964 179.67C106.754 179.67 108.567 179.626 110.357 179.473C113.086 179.255 115.815 178.884 118.501 178.403C114.505 173.862 111.056 168.84 108.217 163.447Z" fill="black"/>
<path fill-rule="evenodd" clip-rule="evenodd" d="M176.248 51C153.214 51 132.559 61.1527 118.476 77.2223C134.087 79.9733 148.738 86.8728 160.834 97.2656C169.261 104.187 176.728 112.2 183.017 121.086L186.597 126.435C187.143 127.265 187.143 128.357 186.597 129.208L183.038 134.536C176.75 143.444 169.283 151.457 160.855 158.356C148.759 168.771 134.109 175.649 118.476 178.4C132.559 194.447 153.192 204.6 176.226 204.6C218.649 204.6 253.015 170.212 253.015 127.811C253.015 85.4099 218.671 51 176.248 51Z" fill="#BCF000"/>
<path fill-rule="evenodd" clip-rule="evenodd" d="M167.934 126.482C159.091 115.369 138.59 94.2117 109.42 92.1812C109.027 92.1593 108.634 92.1812 108.263 92.1375C102.651 102.792 99.4637 114.932 99.4637 127.814C99.4637 140.696 102.651 152.791 108.241 163.446C108.656 163.446 109.049 163.446 109.464 163.403C138.611 161.416 159.091 140.324 167.956 129.189C168.589 128.381 168.589 127.268 167.956 126.46L167.934 126.482ZM146.952 128.753C146.428 133.119 142.476 136.242 138.109 135.718C134.092 135.237 131.079 131.853 131.079 127.814C131.079 123.403 134.66 119.844 139.07 119.844C139.376 119.844 139.681 119.844 139.987 119.888C144.354 120.412 147.476 124.364 146.952 128.731V128.753Z" fill="black"/>
</svg>
