<svg width="169" height="48" viewBox="0 0 169 48" fill="none" xmlns="http://www.w3.org/2000/svg">
    <g filter="url(#filter0_dd_123_67005)">
        <g clip-path="url(#clip0_123_67005)">
            <path fill-rule="evenodd" clip-rule="evenodd" d="M38.9667 27.2355L24.9558 41.2464C23.1427 43.0596 20.1757 43.0596 18.3625 41.2464L15.014 37.8979L30.4289 22.4576C30.5746 22.3116 30.8111 22.3115 30.9569 22.4574L33.3619 24.8624C34.1617 25.6622 35.464 25.6622 36.2639 24.8624L39.066 22.0602C39.2897 21.8365 39.4374 21.5907 39.5292 21.343C40.0504 22.1305 40.3183 23.0347 40.3183 23.9389C40.3183 25.1257 39.8897 26.3125 38.9667 27.2355ZM34.9367 16.6122C34.9493 16.646 34.9692 16.6777 34.9963 16.7048L38.2744 19.9829C38.4722 20.1477 38.5381 20.3785 38.5381 20.6092C38.5381 20.84 38.4722 21.0708 38.2744 21.2686L35.4722 24.0707C35.1096 24.4334 34.5162 24.4334 34.1535 24.0707L31.7485 21.6657C31.1652 21.0824 30.2193 21.0828 29.6365 21.6667L14.2223 37.1062L9.23563 32.1195C9.18582 32.0481 9.12904 31.98 9.06529 31.9162L6.65931 29.5103C6.49447 29.3125 6.39557 29.0817 6.39557 28.8509C6.39557 28.6202 6.46151 28.3894 6.65931 28.1916L9.46148 25.3894C9.82411 25.0268 10.4175 25.0268 10.7801 25.3894L13.1861 27.7954C13.7691 28.3783 14.7142 28.3783 15.2972 27.7954L25.9119 17.1807C26.276 16.8166 26.276 16.2262 25.9119 15.862L23.1097 13.0599C22.9449 12.8621 22.846 12.6313 22.846 12.4005C22.846 12.1698 22.9119 11.939 23.1097 11.7412L25.9119 8.93903C26.2745 8.5764 26.8679 8.5764 27.2305 8.93903L29.6452 11.3537C29.7089 11.4174 29.777 11.4742 29.8485 11.524L34.9367 16.6122ZM25.9633 7.63888L24.9558 6.63136C23.1427 4.81819 20.1757 4.81819 18.3625 6.63136L4.35163 20.6422C3.46153 21.5653 3 22.7521 3 23.9389C3 25.1257 3.46153 26.3125 4.35163 27.2355L5.36175 28.2457C5.44756 27.9551 5.60529 27.6623 5.86766 27.3999L8.66984 24.5978C9.46968 23.7979 10.7719 23.7979 11.5718 24.5978L13.9778 27.0038C14.1235 27.1495 14.3598 27.1495 14.5055 27.0038L24.9879 16.5214L22.2821 13.8156L22.2496 13.7766C21.9595 13.4284 21.7264 12.9525 21.7264 12.4005C21.7264 11.937 21.8689 11.3987 22.3181 10.9496L25.1202 8.14739C25.3641 7.90355 25.6546 7.73405 25.9633 7.63888Z" fill="#00ED7B"/>
            <path d="M38.2743 19.9828L36.8897 18.5982L34.9963 16.7048C34.8949 16.6034 34.8949 16.4392 34.9963 16.3379L35.4193 15.9148C35.4266 15.9075 35.4493 15.8949 35.4597 15.8949V15.8949C35.4628 15.8949 35.4734 15.8937 35.4756 15.8915L38.2743 13.0928C38.4721 12.895 38.538 12.6642 38.538 12.4334C38.538 12.2027 38.4391 11.9719 38.2743 11.7741L35.4721 8.97193C35.1095 8.6093 34.5161 8.6093 34.1535 8.97193L32.7029 10.4225L31.7474 11.3623C31.1631 11.9371 30.2247 11.9332 29.6451 11.3536L28.714 10.4225L27.2305 8.93897C26.8678 8.57633 26.2744 8.57633 25.9118 8.93897L23.1096 11.7411C22.9118 11.9389 22.8459 12.1697 22.8459 12.4005C22.8459 12.6312 22.9448 12.862 23.1096 13.0598L25.9118 15.862V15.862C26.2759 16.2261 26.2759 16.8165 25.9118 17.1806L15.2971 27.7953C14.7142 28.3783 13.769 28.3783 13.1861 27.7953L12.3295 26.9388L10.7801 25.3894C10.4174 25.0267 9.82404 25.0267 9.46141 25.3894L6.65924 28.1915C6.46144 28.3893 6.39551 28.6201 6.39551 28.8509C6.39551 29.0816 6.49441 29.3124 6.65924 29.5102L8.20868 31.0596L9.06522 31.9162C9.64817 32.4991 9.64817 33.4443 9.06522 34.0272L8.60428 34.4882L6.65924 36.4332C6.46144 36.631 6.39551 36.8618 6.39551 37.0925C6.39551 37.3233 6.49441 37.5541 6.65924 37.7519L9.46141 40.554C9.82404 40.9167 10.4174 40.9167 10.7801 40.554L12.7251 38.609L29.6364 21.6666C30.2192 21.0828 31.1651 21.0823 31.7485 21.6657L32.7689 22.6861L34.1535 24.0707C34.5161 24.4333 35.1095 24.4333 35.4721 24.0707L38.2743 21.2685C38.4721 21.0707 38.538 20.8399 38.538 20.6092C38.538 20.3784 38.4721 20.1476 38.2743 19.9828Z" fill="white"/>
            <path d="M30.9978 13.4136L30.9978 13.4136L30.9999 13.4157L33.783 16.166C33.8815 16.2903 33.9173 16.405 33.9173 16.4886C33.9173 16.6154 33.8855 16.7088 33.8 16.7944L30.9978 19.5965C30.8304 19.7639 30.5536 19.7639 30.3863 19.5965L27.6019 16.8122C27.5027 16.6875 27.4668 16.5724 27.4668 16.4886C27.4668 16.3622 27.4983 16.269 27.5832 16.1837L30.3842 13.4157L30.3842 13.4157L30.3863 13.4136C30.5536 13.2462 30.8304 13.2462 30.9978 13.4136Z" fill="black" stroke="black"/>
        </g>
    </g>
    <path d="M98.7097 36.6061H97.8003V29.4287H98.7097V32.3317H98.7511C98.8131 32.2383 98.9113 32.1382 99.0456 32.0314C99.1662 31.938 99.2954 31.8529 99.4332 31.7761C99.5813 31.696 99.7742 31.6276 100.012 31.5709C100.253 31.5108 100.496 31.4808 100.74 31.4808C101.522 31.4808 102.177 31.7211 102.704 32.2016C103.228 32.6887 103.489 33.3194 103.489 34.0935C103.489 34.8743 103.228 35.5049 102.704 35.9854C102.177 36.4659 101.522 36.7062 100.74 36.7062C100.203 36.7062 99.7656 36.6061 99.428 36.4059C99.1317 36.229 98.9302 36.0772 98.8234 35.9504L98.7511 35.8553H98.7097V36.6061ZM102.037 35.3798C102.385 35.0428 102.559 34.614 102.559 34.0935C102.559 33.5796 102.385 33.1509 102.037 32.8072C101.683 32.4702 101.214 32.3017 100.632 32.3017C100.06 32.3017 99.5968 32.4668 99.242 32.7972C98.8871 33.1275 98.7097 33.5596 98.7097 34.0935C98.7097 34.614 98.8837 35.0428 99.2316 35.3798C99.5796 35.7202 100.046 35.8903 100.632 35.8903C101.218 35.8903 101.686 35.7202 102.037 35.3798Z" fill="white"/>
    <path d="M103.96 31.5809H104.936L106.946 35.6201H106.977L108.765 31.5809H109.752L107.36 36.8914C107.057 37.5754 106.778 38.0576 106.523 38.3379C106.268 38.6181 105.887 38.7583 105.381 38.7583C105.102 38.7583 104.89 38.7316 104.745 38.6782L104.662 38.6582V37.8874C104.842 37.9541 105.053 37.9875 105.298 37.9875C105.577 37.9875 105.791 37.9024 105.939 37.7322C106.083 37.5687 106.237 37.2884 106.399 36.8914L106.471 36.7062L103.96 31.5809Z" fill="white"/>
    <path d="M113.788 36.6061H112.878V29.4287H113.788V32.3317H113.829C113.891 32.2383 113.989 32.1382 114.124 32.0314C114.244 31.938 114.374 31.8529 114.511 31.7761C114.659 31.696 114.852 31.6276 115.09 31.5709C115.331 31.5108 115.574 31.4808 115.819 31.4808C116.601 31.4808 117.255 31.7211 117.782 32.2016C118.306 32.6887 118.568 33.3194 118.568 34.0935C118.568 34.8743 118.306 35.5049 117.782 35.9854C117.255 36.4659 116.601 36.7062 115.819 36.7062C115.281 36.7062 114.844 36.6061 114.506 36.4059C114.21 36.229 114.008 36.0772 113.902 35.9504L113.829 35.8553H113.788V36.6061ZM117.116 35.3798C117.464 35.0428 117.638 34.614 117.638 34.0935C117.638 33.5796 117.464 33.1509 117.116 32.8072C116.761 32.4702 116.292 32.3017 115.71 32.3017C115.138 32.3017 114.675 32.4668 114.32 32.7972C113.965 33.1275 113.788 33.5596 113.788 34.0935C113.788 34.614 113.962 35.0428 114.31 35.3798C114.658 35.7202 115.124 35.8903 115.71 35.8903C116.296 35.8903 116.764 35.7202 117.116 35.3798Z" fill="white"/>
    <path d="M119.947 29.4287H120.857V36.6061H119.947V29.4287Z" fill="white"/>
    <path d="M123.042 35.9904C122.505 35.5133 122.236 34.881 122.236 34.0935C122.236 33.3094 122.505 32.677 123.042 32.1966C123.576 31.7194 124.257 31.4808 125.084 31.4808C125.903 31.4808 126.584 31.7194 127.125 32.1966C127.659 32.677 127.926 33.3094 127.926 34.0935C127.926 34.881 127.659 35.5133 127.125 35.9904C126.584 36.4676 125.903 36.7062 125.084 36.7062C124.257 36.7062 123.576 36.4676 123.042 35.9904ZM126.474 35.3848C126.821 35.0478 126.995 34.6174 126.995 34.0935C126.995 33.5696 126.821 33.1392 126.474 32.8022C126.126 32.4685 125.662 32.3017 125.084 32.3017C124.501 32.3017 124.038 32.4685 123.694 32.8022C123.342 33.1359 123.167 33.5663 123.167 34.0935C123.167 34.6207 123.342 35.0511 123.694 35.3848C124.041 35.7218 124.505 35.8903 125.084 35.8903C125.655 35.8903 126.119 35.7218 126.474 35.3848Z" fill="white"/>
    <path d="M129.905 35.9804C129.367 35.5033 129.099 34.871 129.099 34.0835C129.099 33.296 129.367 32.6654 129.905 32.1915C130.435 31.7177 131.116 31.4808 131.946 31.4808C132.418 31.4808 132.84 31.5576 133.212 31.7111C133.594 31.8679 133.883 32.0564 134.08 32.2766C134.49 32.7338 134.695 33.1525 134.695 33.5329H133.754C133.72 33.3894 133.661 33.2476 133.579 33.1075C133.492 32.964 133.393 32.8389 133.279 32.7321C133.148 32.612 132.964 32.5102 132.726 32.4268C132.492 32.3434 132.232 32.3017 131.946 32.3017C131.364 32.3017 130.9 32.4685 130.556 32.8022C130.204 33.1359 130.029 33.563 130.029 34.0835C130.029 34.604 130.204 35.0328 130.556 35.3698C130.904 35.7102 131.367 35.8803 131.946 35.8803C132.235 35.8803 132.497 35.8386 132.731 35.7552C132.969 35.6718 133.151 35.5667 133.279 35.4399C133.517 35.203 133.665 34.9827 133.723 34.7792L133.754 34.6491H134.695C134.695 35.0228 134.49 35.4382 134.08 35.8953C133.877 36.1222 133.587 36.3124 133.212 36.4659C132.84 36.6194 132.418 36.6962 131.946 36.6962C131.119 36.6962 130.439 36.4576 129.905 35.9804Z" fill="white"/>
    <path d="M141.102 36.6061H139.898L136.979 34.0535V36.6061H136.069V29.4287H136.979V33.9834L139.717 31.5809H140.926L138.141 34.0134L141.102 36.6061Z" fill="white"/>
    <path d="M145.593 35.1196C145.593 34.9227 145.494 34.7709 145.298 34.6641C145.095 34.554 144.848 34.4922 144.559 34.4789C144.259 34.4622 143.937 34.4322 143.593 34.3888C143.221 34.3454 142.897 34.2937 142.621 34.2336C142.325 34.1736 142.079 34.0384 141.882 33.8282C141.683 33.6213 141.583 33.3444 141.583 32.9974C141.583 32.4935 141.805 32.1131 142.249 31.8562C142.694 31.6059 143.269 31.4808 143.975 31.4808C144.692 31.4808 145.27 31.621 145.711 31.9012C146.149 32.1815 146.368 32.622 146.368 33.2226H145.438C145.438 32.909 145.32 32.677 145.086 32.5269C144.855 32.3767 144.485 32.3017 143.975 32.3017C143 32.3017 142.513 32.5336 142.513 32.9974C142.513 33.1876 142.613 33.3327 142.813 33.4328C143.012 33.5363 143.259 33.5947 143.551 33.608C143.824 33.6213 144.147 33.6497 144.523 33.6931C144.878 33.7398 145.2 33.7949 145.489 33.8583C145.782 33.9283 146.03 34.0685 146.233 34.2787C146.43 34.4956 146.528 34.7759 146.528 35.1196C146.528 35.4933 146.406 35.8036 146.161 36.0505C145.92 36.2941 145.617 36.4643 145.251 36.561C144.897 36.6578 144.478 36.7062 143.996 36.7062C142.986 36.7062 142.267 36.4659 141.836 35.9854C141.591 35.7118 141.469 35.3715 141.469 34.9644V34.8042H142.399V34.9644C142.399 35.5784 142.931 35.8853 143.996 35.8853C145.06 35.892 145.593 35.6368 145.593 35.1196Z" fill="white"/>
    <path d="M153.995 36.6061H152.78L151.447 32.5269H151.401L150.067 36.6061H148.853L147.318 31.5809H148.238L149.458 35.6401H149.499L150.832 31.5809H152.015L153.349 35.6401H153.395L154.609 31.5809H155.529L153.995 36.6061Z" fill="white"/>
    <path d="M156.33 35.1996C156.33 34.6858 156.556 34.3054 157.007 34.0585C157.455 33.8149 158.03 33.6931 158.733 33.6931C159.091 33.6931 159.422 33.7348 159.725 33.8182C160.042 33.905 160.264 33.9867 160.392 34.0635L160.593 34.1886V33.3978C160.593 33.0574 160.464 32.7905 160.206 32.597C159.947 32.4001 159.558 32.3017 159.038 32.3017C158.001 32.3017 157.482 32.5753 157.482 33.1225H156.573C156.576 32.5686 156.809 32.1565 157.271 31.8862C157.729 31.616 158.318 31.4808 159.038 31.4808C159.761 31.4808 160.352 31.6443 160.81 31.9713C161.268 32.3017 161.499 32.7771 161.503 33.3978V35.2247C161.503 35.4783 161.537 35.6551 161.606 35.7552C161.675 35.852 161.789 35.9004 161.947 35.9004C162.085 35.9004 162.176 35.882 162.221 35.8453L162.242 35.8353V36.6261C162.135 36.6795 161.98 36.7062 161.776 36.7062C161.432 36.7062 161.177 36.6344 161.012 36.491C160.881 36.3842 160.784 36.2724 160.722 36.1556L160.697 36.0956H160.655C160.569 36.179 160.481 36.249 160.392 36.3058C160.285 36.3758 160.168 36.4376 160.04 36.491C159.703 36.6344 159.291 36.7062 158.805 36.7062C158.072 36.7062 157.476 36.5844 157.017 36.3408C156.559 36.1006 156.33 35.7202 156.33 35.1996ZM158.94 34.5139C157.82 34.5139 157.26 34.7425 157.26 35.1996C157.26 35.6601 157.82 35.8903 158.94 35.8903C159.27 35.8903 159.572 35.8553 159.844 35.7852C160.113 35.7218 160.297 35.6618 160.397 35.6051C160.49 35.5583 160.555 35.5166 160.593 35.4799V34.9043C160.555 34.8676 160.49 34.8259 160.397 34.7792C160.28 34.7258 160.097 34.6691 159.849 34.609C159.584 34.5456 159.281 34.5139 158.94 34.5139Z" fill="white"/>
    <path d="M164.159 38.6582H163.249V31.5809H164.159V32.3317H164.2C164.262 32.2383 164.36 32.1382 164.494 32.0314C164.615 31.938 164.744 31.8529 164.882 31.7761C165.03 31.696 165.223 31.6276 165.461 31.5709C165.702 31.5108 165.945 31.4808 166.189 31.4808C166.971 31.4808 167.626 31.7211 168.153 32.2016C168.677 32.6887 168.938 33.3194 168.938 34.0935C168.938 34.8743 168.677 35.5049 168.153 35.9854C167.626 36.4659 166.971 36.7062 166.189 36.7062C165.652 36.7062 165.214 36.6061 164.877 36.4059C164.581 36.229 164.379 36.0772 164.272 35.9504L164.2 35.8553H164.159V38.6582ZM167.486 35.3798C167.834 35.0428 168.008 34.614 168.008 34.0935C168.008 33.5796 167.834 33.1509 167.486 32.8072C167.132 32.4702 166.663 32.3017 166.081 32.3017C165.495 32.3017 165.028 32.4702 164.68 32.8072C164.333 33.1509 164.159 33.5796 164.159 34.0935C164.159 34.6274 164.338 35.0595 164.696 35.3898C165.051 35.7235 165.512 35.8903 166.081 35.8903C166.666 35.8903 167.135 35.7202 167.486 35.3798Z" fill="white"/>
    <g clip-path="url(#clip1_123_67005)">
        <path d="M64.0103 15.3601H60.825V15.0228C60.825 14.011 59.9631 13.4114 58.3142 13.4114C57.5647 13.4114 56.9652 13.5238 56.5155 13.7862C56.0283 14.0485 55.8035 14.4232 55.8035 14.9104C55.8035 15.6224 56.5155 16.0346 57.5273 16.2594C58.5391 16.4843 59.8507 16.6342 61.0873 16.9715C61.7244 17.1588 62.2865 17.3462 62.7737 17.6085C63.2608 17.8708 63.7105 18.2456 64.0103 18.7702C64.3101 19.2949 64.4975 19.9319 64.4975 20.6439C64.4975 21.9555 63.9354 22.9673 62.8861 23.6793C61.7993 24.3914 60.3004 24.7661 58.3892 24.7661C54.5293 24.8036 52.3184 23.3046 52.3184 20.494V20.0069H55.5037V20.569C55.5037 21.8806 56.5529 22.3677 58.4641 22.3677C60.4128 22.3677 61.3871 21.8056 61.3871 20.7189C61.3871 20.0818 60.6751 19.6696 59.6633 19.4448C58.6515 19.2199 57.3399 19.07 56.1033 18.6953C55.4662 18.5079 54.9041 18.2831 54.4169 17.9833C53.8923 17.7209 53.4801 17.3087 53.1803 16.7841C52.843 16.2594 52.6931 15.6599 52.6931 14.9479C52.6931 13.7112 53.1803 12.7743 54.1921 12.0623C55.1664 11.3503 56.5529 10.9756 58.3142 10.9756C60.113 10.9756 61.537 11.3129 62.5113 12.0249C63.4857 12.7369 64.0103 13.7487 64.0103 15.0228V15.3601Z" fill="white"/>
        <path d="M67.008 17.2339H65.584V15.6225L68.2447 13.0742H69.7436V14.9854H72.7416V17.2339H69.7436V20.6065C69.7436 21.3185 69.8935 21.8057 70.2308 22.1055C70.5681 22.3678 71.0177 22.5177 71.6173 22.5177C72.142 22.5177 72.6666 22.3678 72.854 22.2554L73.0414 22.1804V24.4664C72.5542 24.6912 71.9546 24.8036 71.2426 24.8036C68.432 24.8036 67.008 23.6045 67.008 20.9813V17.2339Z" fill="white"/>
        <path d="M75.6275 19.6695C76.452 19.1823 77.4638 18.92 78.7004 18.92C79.3375 18.92 79.9371 18.995 80.4242 19.1074C80.9489 19.2573 81.2861 19.3697 81.511 19.5196L81.8108 19.7444V18.3204C81.8108 17.9082 81.6609 17.5709 81.3236 17.2711C81.0238 17.0088 80.4992 16.8589 79.7497 16.8589C79.225 16.8589 78.7754 16.9339 78.3257 17.1587C77.876 17.3461 77.6886 17.6834 77.6886 18.0956H74.8406C74.8406 17.0088 75.2902 16.1844 76.1896 15.6223C77.0515 15.0602 78.2507 14.7979 79.7497 14.7979C81.2487 14.7979 82.4478 15.0976 83.2723 15.6972C84.1342 16.2968 84.5464 17.1587 84.5464 18.3579V21.3558C84.5464 22.1428 84.7338 22.4051 85.1835 22.4051L85.5957 22.3302V24.6536C85.3708 24.766 84.9586 24.8409 84.3965 24.8409C83.722 24.8409 83.0849 24.6536 82.7476 24.3538C82.4104 24.0915 82.1855 23.7917 82.1106 23.6043L82.0356 23.4544H81.8857C81.8857 23.4919 81.6234 23.979 80.799 24.3538C80.2743 24.6161 79.3749 24.8035 78.2882 24.8035C77.164 24.8035 76.1896 24.5411 75.4401 24.054C74.6907 23.5668 74.3159 22.8548 74.3159 21.8805C74.3909 20.9062 74.8031 20.1941 75.6275 19.6695ZM80.8364 22.5175C81.2112 22.4051 81.4735 22.2552 81.6234 22.1428L81.8108 21.9554V21.3933C81.7733 21.3558 81.6983 21.3184 81.6234 21.2434C81.511 21.1685 81.2861 21.0935 80.8739 20.9811C80.4617 20.8687 80.012 20.8312 79.4874 20.8312C77.9884 20.8312 77.2014 21.131 77.2014 21.7681C77.2014 22.4051 77.9509 22.7049 79.4874 22.7049C80.012 22.7049 80.4617 22.63 80.8364 22.5175Z" fill="white"/>
        <path d="M97.1376 15.0229L93.0154 19.7072L97.4748 24.6538H94.2146L89.9051 19.9321V24.6538H87.1694V11.1631H89.9425V19.5198L93.9148 15.0229H97.1376Z" fill="white"/>
        <path d="M108.567 20.5312H100.585C100.585 21.0933 100.81 21.6179 101.26 22.0301C101.709 22.4423 102.346 22.6672 103.171 22.6672C103.658 22.6672 104.07 22.5922 104.445 22.4049C104.82 22.255 105.045 22.0676 105.157 21.9177L105.344 21.6929H108.38C108.38 21.7678 108.342 21.8802 108.305 22.0301C108.267 22.18 108.117 22.4049 107.893 22.7796C107.668 23.1544 107.368 23.4541 107.031 23.7539C106.693 24.0163 106.169 24.2786 105.494 24.5034C104.82 24.7283 104.033 24.8407 103.171 24.8407C101.522 24.8407 100.21 24.391 99.1986 23.5291C98.1867 22.6297 97.6621 21.4305 97.6621 19.8566C97.6621 18.2827 98.1867 17.0835 99.1986 16.1842C100.21 15.2848 101.522 14.8726 103.171 14.8726C104.782 14.8726 106.094 15.3222 107.106 16.1842C108.117 17.0461 108.642 18.2827 108.642 19.8566L108.567 20.5312ZM101.297 17.5707C100.847 17.9829 100.623 18.3951 100.623 18.8448H105.682C105.682 18.3951 105.457 17.9454 105.045 17.5332C104.595 17.121 103.995 16.9336 103.171 16.9336C102.384 16.9711 101.747 17.1585 101.297 17.5707Z" fill="white"/>
        <path d="M117.823 24.6163V19.7822C117.823 18.1333 116.887 17.2714 115.388 17.2714C114.601 17.2714 114.001 17.4962 113.589 17.9459C113.177 18.3956 112.952 19.0327 112.952 19.7447V24.5789H110.179V11.1631H112.952V16.5968H113.102C113.139 16.4844 113.177 16.372 113.551 15.9598C113.739 15.7724 113.926 15.585 114.188 15.3977C114.676 15.0604 115.575 14.7606 116.587 14.7606C117.786 14.7606 118.76 15.0979 119.51 15.8099C120.259 16.5219 120.634 17.5712 120.634 18.9577V24.5789H117.823V24.6163Z" fill="white"/>
        <path d="M137.272 15.0228V19.857C137.272 21.5059 138.209 22.3678 139.708 22.3678C140.495 22.3678 141.095 22.1429 141.507 21.6558C141.919 21.2061 142.144 20.6065 142.144 19.857V15.0228H144.917V24.6162H142.144V23.0048H141.994C141.957 23.1173 141.919 23.2297 141.545 23.6044C141.357 23.8293 141.17 24.0166 140.907 24.1665C140.42 24.5038 139.521 24.8036 138.509 24.8036C137.31 24.8036 136.336 24.4663 135.586 23.7543C134.837 23.0423 134.462 22.0305 134.462 20.6065V14.9854H137.272V15.0228Z" fill="white"/>
        <path d="M153.386 17.9835C153.386 17.6837 153.349 17.5338 153.124 17.2715C152.899 17.0092 152.337 16.8968 151.438 16.8968C150.239 16.8968 149.639 17.1966 149.639 17.7962C149.639 18.0959 149.901 18.2833 150.351 18.3957C150.838 18.5456 151.4 18.6206 152.112 18.6955C152.787 18.7705 153.499 18.8454 154.173 18.9953C154.848 19.1452 155.448 19.445 155.935 19.8947C156.422 20.3444 156.647 20.9815 156.647 21.7684C156.647 23.8295 154.96 24.8413 151.625 24.8413C148.29 24.8413 146.641 23.7546 146.641 21.581V21.2813H149.489V21.581C149.489 22.443 150.126 22.7802 151.625 22.7802C153.087 22.7802 153.799 22.443 153.836 21.8059C153.836 21.5061 153.649 21.3187 153.312 21.1314C152.974 20.9815 152.525 20.869 152 20.8316C151.475 20.7941 150.913 20.7191 150.314 20.6067C149.714 20.4943 149.152 20.3819 148.627 20.1945C148.103 20.0446 147.69 19.7448 147.316 19.2951C146.941 18.8454 146.791 18.3208 146.791 17.6837C146.791 16.7469 147.203 15.9974 148.065 15.5102C148.927 15.0231 150.051 14.7607 151.513 14.7607C154.661 14.7607 156.235 15.81 156.235 17.9086H153.386V17.9835Z" fill="white"/>
        <path d="M168.901 20.5312H160.919C160.919 21.0933 161.143 21.6179 161.593 22.0301C162.043 22.4423 162.68 22.6672 163.504 22.6672C163.991 22.6672 164.404 22.5922 164.778 22.4049C165.153 22.255 165.378 22.0676 165.49 21.9177L165.678 21.6929H168.713C168.713 21.7678 168.676 21.8802 168.638 22.0301C168.601 22.18 168.451 22.4049 168.226 22.7796C168.001 23.1544 167.701 23.4541 167.364 23.7539C167.027 24.0163 166.502 24.2786 165.828 24.5034C165.153 24.7283 164.366 24.8407 163.504 24.8407C161.855 24.8407 160.544 24.391 159.532 23.5291C158.52 22.6297 157.996 21.4305 157.996 19.8566C157.996 18.2827 158.52 17.0835 159.532 16.1842C160.544 15.2848 161.855 14.8726 163.504 14.8726C165.116 14.8726 166.427 15.3222 167.439 16.1842C168.451 17.0461 168.976 18.2827 168.976 19.8566L168.901 20.5312ZM161.631 17.5707C161.181 17.9829 160.956 18.3951 160.956 18.8448H166.015C166.015 18.3951 165.79 17.9454 165.378 17.5332C164.928 17.121 164.329 16.9336 163.504 16.9336C162.68 16.9711 162.08 17.1585 161.631 17.5707Z" fill="white"/>
        <path fill-rule="evenodd" clip-rule="evenodd" d="M123.434 16.1915C122.423 17.0909 121.898 18.29 121.898 19.864C121.898 21.4379 122.423 22.6745 123.434 23.5364C124.446 24.3983 125.758 24.848 127.407 24.848C129.056 24.848 130.367 24.4358 131.379 23.5364C132.391 22.637 132.915 21.4379 132.915 19.864C132.915 18.29 132.391 17.0909 131.379 16.1915C130.367 15.3296 129.056 14.8799 127.407 14.8799C125.758 14.8799 124.446 15.2921 123.434 16.1915ZM127.8 16.9698L129.42 18.7818C129.623 19.0536 129.623 19.416 129.461 19.6877L128.084 21.2279V23.0399H126.747V21.2279L125.41 19.6424C125.207 19.416 125.207 19.0083 125.41 18.7818L127.03 16.9698C127.233 16.7433 127.597 16.7433 127.8 16.9698Z" fill="white"/>
    </g>
    <defs>
        <filter id="filter0_dd_123_67005" x="0" y="3.27979" width="43.3184" height="43.3184" filterUnits="userSpaceOnUse" color-interpolation-filters="sRGB">
            <feFlood flood-opacity="0" result="BackgroundImageFix"/>
            <feColorMatrix in="SourceAlpha" type="matrix" values="0 0 0 0 0 0 0 0 0 0 0 0 0 0 0 0 0 0 127 0" result="hardAlpha"/>
            <feOffset dy="1"/>
            <feGaussianBlur stdDeviation="1"/>
            <feColorMatrix type="matrix" values="0 0 0 0 1 0 0 0 0 1 0 0 0 0 1 0 0 0 0.06 0"/>
            <feBlend mode="normal" in2="BackgroundImageFix" result="effect1_dropShadow_123_67005"/>
            <feColorMatrix in="SourceAlpha" type="matrix" values="0 0 0 0 0 0 0 0 0 0 0 0 0 0 0 0 0 0 127 0" result="hardAlpha"/>
            <feOffset dy="1"/>
            <feGaussianBlur stdDeviation="1.5"/>
            <feColorMatrix type="matrix" values="0 0 0 0 1 0 0 0 0 1 0 0 0 0 1 0 0 0 0.1 0"/>
            <feBlend mode="normal" in2="effect1_dropShadow_123_67005" result="effect2_dropShadow_123_67005"/>
            <feBlend mode="normal" in="SourceGraphic" in2="effect2_dropShadow_123_67005" result="shape"/>
        </filter>
        <clipPath id="clip0_123_67005">
            <rect width="37.3183" height="37.3183" fill="white" transform="translate(3 5.27979)"/>
        </clipPath>
        <clipPath id="clip1_123_67005">
            <rect width="116.64" height="17.28" fill="white" transform="translate(52.2979 11.04)"/>
        </clipPath>
    </defs>
</svg>