<svg width="447" height="499" viewBox="0 0 447 499" fill="none" xmlns="http://www.w3.org/2000/svg">
<path d="M196 7.87713C213.017 -1.94767 233.983 -1.94767 251 7.87713L419.002 104.873C436.019 114.698 446.502 132.855 446.502 152.504V346.496C446.502 366.145 436.019 384.302 419.002 394.127L251 491.123C233.983 500.948 213.017 500.948 196 491.123L27.9985 394.127C10.9814 384.302 0.498459 366.145 0.498459 346.496V152.504C0.498459 132.855 10.9814 114.698 27.9985 104.873L196 7.87713Z" fill="#0C111E"/>
<path d="M196 7.87713C213.017 -1.94767 233.983 -1.94767 251 7.87713L419.002 104.873C436.019 114.698 446.502 132.855 446.502 152.504V346.496C446.502 366.145 436.019 384.302 419.002 394.127L251 491.123C233.983 500.948 213.017 500.948 196 491.123L27.9985 394.127C10.9814 384.302 0.498459 366.145 0.498459 346.496V152.504C0.498459 132.855 10.9814 114.698 27.9985 104.873L196 7.87713Z" fill="#0F0F0F" fill-opacity="0.7"/>
<g filter="url(#filter0_d_102_98)">
<path d="M330.439 389.276L333.04 387.774L389.194 355.354C394.763 352.138 398.194 346.196 398.194 339.765V157.677C398.194 151.246 394.763 145.304 389.194 142.088L231.5 51.0438C225.931 47.8284 219.069 47.8284 213.5 51.0438L136.669 95.4021L133.761 97.0811M309.632 401.289L307.031 402.791L231.5 446.398C225.931 449.614 219.069 449.614 213.5 446.398L55.8066 355.354C50.2374 352.138 46.8066 346.196 46.8066 339.765L46.8066 157.677C46.8066 151.246 50.2374 145.304 55.8066 142.088L111.002 110.221L113.261 108.917" stroke="#13C6ED" stroke-width="5" stroke-linecap="round"/>
</g>
<g filter="url(#filter1_f_102_98)">
<path d="M330.439 389.276L333.04 387.774L389.194 355.354C394.763 352.138 398.194 346.196 398.194 339.765V157.677C398.194 151.246 394.763 145.304 389.194 142.088L231.5 51.0438C225.931 47.8284 219.069 47.8284 213.5 51.0438L136.669 95.4021L133.761 97.0811M309.632 401.289L307.031 402.791L231.5 446.398C225.931 449.614 219.069 449.614 213.5 446.398L55.8066 355.354C50.2374 352.138 46.8066 346.196 46.8066 339.765L46.8066 157.677C46.8066 151.246 50.2374 145.304 55.8066 142.088L111.002 110.221L113.261 108.917" stroke="white" stroke-width="3" stroke-linecap="round"/>
</g>
<path d="M152.368 340.266V254.636C152.368 252.817 150.894 251.343 149.075 251.343V251.343C148.117 251.343 147.341 250.567 147.341 249.609V249.147C147.341 236.787 147.386 216.338 147.411 204.832L147.411 204.82C147.421 200.322 147.428 197.192 147.428 196.452C147.428 193.158 148.251 188.218 150.447 188.218C151.026 188.218 152.447 188.755 154.092 189.476C159.178 191.703 164.599 193.158 170.151 193.158V193.158C171.183 193.158 171.645 191.864 170.846 191.211L168.227 189.068C167.69 188.629 167.69 187.808 168.227 187.368L172.188 184.128C172.725 183.688 172.725 182.867 172.188 182.428L168.227 179.187C167.69 178.748 167.69 177.927 168.227 177.488L172.188 174.247C172.725 173.808 172.725 172.987 172.188 172.548L168.227 169.307C167.69 168.868 167.69 168.047 168.227 167.608L172.188 164.367C172.725 163.928 172.725 163.107 172.188 162.667L168.227 159.427C167.69 158.987 167.69 158.166 168.227 157.727L170.846 155.584C171.645 154.931 171.183 153.637 170.151 153.637V153.637C164.691 153.637 159.49 155.681 155.051 158.86C147.006 164.622 141.301 166.07 135.352 161.87C128.443 156.994 125.39 154.562 124.538 153.791C124.43 153.693 124.292 153.637 124.146 153.637H115.922C114.89 153.637 114.428 154.931 115.227 155.584L117.846 157.727C118.383 158.166 118.383 158.987 117.846 159.427L113.885 162.667C113.348 163.107 113.348 163.928 113.885 164.367L117.846 167.608C118.383 168.047 118.383 168.868 117.846 169.307L113.885 172.548C113.348 172.987 113.348 173.808 113.885 174.247L117.846 177.488C118.383 177.927 118.383 178.748 117.846 179.187L113.885 182.428C113.348 182.867 113.348 183.688 113.885 184.128L117.846 187.368C118.383 187.808 118.383 188.629 117.846 189.068L115.227 191.211C114.428 191.864 114.89 193.158 115.922 193.158H124.256C124.333 193.158 124.41 193.142 124.481 193.11L131.098 190.132C133.922 188.861 137.148 188.75 138.029 191.719C138.399 192.962 138.645 194.538 138.645 196.452C138.645 198.59 138.633 204.286 138.618 211.411L138.618 211.416C138.592 223.313 138.558 239.193 138.558 249.147L138.558 249.783C138.558 250.644 137.86 251.343 136.999 251.343V251.343C135.18 251.343 133.705 252.817 133.705 254.636V342.462C133.705 344.281 135.18 345.756 136.999 345.756H148.601" stroke="#505050" stroke-opacity="0.3" stroke-width="5" stroke-linecap="round"/>
<g filter="url(#filter2_d_102_98)">
<path d="M146.635 300.349L139.86 305.594M158.401 291.24L186.54 269.454C187.979 268.34 188.242 266.271 187.128 264.833V264.833C186.542 264.076 186.681 262.987 187.438 262.401L187.803 262.118C197.577 254.551 213.774 242.068 222.887 235.044L222.896 235.037C226.459 232.291 228.938 230.381 229.523 229.927C232.128 227.911 236.538 225.538 237.882 227.274C238.237 227.732 238.682 229.185 239.119 230.926C240.472 236.311 242.639 241.488 246.039 245.879V245.879C246.67 246.695 247.976 246.268 248.004 245.236L248.095 241.853C248.114 241.16 248.763 240.657 249.439 240.813L254.426 241.961C255.102 242.117 255.751 241.614 255.77 240.921L255.908 235.805C255.926 235.111 256.575 234.609 257.251 234.764L262.239 235.912C262.915 236.068 263.564 235.565 263.582 234.872L263.72 229.756C263.739 229.063 264.388 228.56 265.064 228.716L270.051 229.864C270.727 230.019 271.376 229.517 271.395 228.823L271.533 223.707C271.551 223.014 272.2 222.511 272.876 222.667L276.174 223.426C277.18 223.658 277.92 222.5 277.289 221.684V221.684C273.946 217.367 269.146 214.505 263.915 212.942C254.434 210.108 249.796 206.483 249.475 199.208C249.101 190.76 249.155 186.857 249.243 185.711C249.254 185.566 249.214 185.423 249.125 185.308L244.09 178.804C243.459 177.989 242.153 178.416 242.125 179.447L242.034 182.83C242.015 183.523 241.366 184.026 240.69 183.87L235.703 182.722C235.027 182.567 234.377 183.069 234.359 183.763L234.221 188.879C234.202 189.572 233.553 190.075 232.877 189.919L227.89 188.771C227.214 188.615 226.565 189.118 226.546 189.811L226.409 194.927C226.39 195.621 225.741 196.123 225.065 195.968L220.077 194.82C219.401 194.664 218.752 195.167 218.734 195.86L218.596 200.976C218.577 201.669 217.928 202.172 217.252 202.016L213.954 201.257C212.949 201.026 212.208 202.183 212.84 202.999L217.942 209.589C217.989 209.65 218.049 209.701 218.118 209.737L224.523 213.147C227.257 214.602 229.32 217.084 227.512 219.598C226.755 220.652 225.66 221.812 224.147 222.983C222.456 224.292 217.945 227.769 212.302 232.119L212.298 232.122C202.875 239.385 190.298 249.08 182.427 255.174L181.924 255.563C181.243 256.09 180.263 255.966 179.736 255.284V255.284C178.622 253.846 176.553 253.583 175.115 254.697L157.488 268.344M146.197 277.086L139.92 281.945M127.001 291.948L105.67 308.462C104.232 309.576 103.969 311.644 105.082 313.083L112.186 322.257C114.111 324.651 117.418 323 118.832 321.875L126.758 315.739" stroke="#EDD713" stroke-width="5" stroke-linecap="round" stroke-linejoin="round"/>
</g>
<g filter="url(#filter3_f_102_98)">
<path d="M146.635 300.349L139.86 305.594M158.401 291.24L186.54 269.454C187.979 268.34 188.242 266.271 187.128 264.833L186.067 263.462L187.803 262.118C197.577 254.551 213.774 242.068 222.887 235.044L222.896 235.037C226.459 232.291 228.938 230.381 229.523 229.927C232.128 227.911 236.538 225.538 237.882 227.274C238.957 228.663 240.865 239.196 240.865 239.196L246.039 245.879C246.67 246.695 247.976 246.268 248.004 245.236L248.095 241.853C248.114 241.16 248.763 240.657 249.439 240.813L254.426 241.961C255.102 242.117 255.751 241.614 255.77 240.921L255.908 235.805C255.926 235.111 256.575 234.609 257.251 234.764L262.239 235.912C262.915 236.068 263.564 235.565 263.582 234.872L263.72 229.756C263.739 229.063 264.388 228.56 265.064 228.716L270.051 229.864C270.727 230.019 271.376 229.517 271.395 228.823L271.533 223.707C271.551 223.014 272.2 222.511 272.876 222.667L276.174 223.426C277.18 223.658 277.92 222.5 277.289 221.684L272.115 215.001C257.077 211.718 249.878 208.337 249.475 199.208C249.101 190.76 249.155 186.857 249.243 185.711C249.254 185.566 249.214 185.423 249.125 185.308L244.09 178.804C243.459 177.989 242.153 178.416 242.125 179.447L242.034 182.83C242.015 183.523 241.366 184.026 240.69 183.87L235.703 182.722C235.027 182.567 234.377 183.069 234.359 183.763L234.221 188.879C234.202 189.572 233.553 190.075 232.877 189.919L227.89 188.771C227.214 188.615 226.565 189.118 226.546 189.811L226.409 194.927C226.39 195.621 225.741 196.123 225.065 195.968L220.077 194.82C219.401 194.664 218.752 195.167 218.734 195.86L218.596 200.976C218.577 201.669 217.928 202.172 217.252 202.016L213.954 201.257C212.949 201.026 212.208 202.183 212.84 202.999L217.942 209.589C217.989 209.65 218.049 209.701 218.118 209.737L228.641 215.338C229.458 216.094 228.661 219.488 224.147 222.983C222.456 224.292 217.945 227.769 212.302 232.119L212.298 232.122C202.875 239.385 190.298 249.08 182.427 255.174L180.691 256.518L179.736 255.284C178.622 253.846 176.553 253.583 175.115 254.697L157.488 268.344M146.197 277.086L139.92 281.945M127.001 291.948L105.67 308.462C104.232 309.576 103.969 311.644 105.082 313.083L112.186 322.257C114.111 324.651 117.418 323 118.832 321.875L126.758 315.739" stroke="white" stroke-width="3" stroke-linecap="round"/>
</g>
<g filter="url(#filter4_d_102_98)">
<path d="M219.828 305.881C220.965 316.634 233.476 330.075 280.003 326.043C323.645 322.26 354.135 310.534 352.895 287.58C352.895 287.58 353.727 281.687 350.723 280.136C347.72 278.585 345.32 282.307 344.52 283.858C334.594 303.089 316.995 306.087 280.003 309.293C233.476 313.325 220.965 299.884 219.828 282.928C219.828 273.312 248.365 276.724 256.119 267.729C263.873 258.734 275.04 235.16 294.581 233.609C302.197 233.609 313.812 235.16 319.085 239.193" stroke="#ED1320" stroke-width="5" stroke-linecap="round"/>
</g>
<g filter="url(#filter5_f_102_98)">
<path d="M219.828 305.881C220.965 316.634 233.476 330.075 280.003 326.043C323.645 322.26 354.135 310.534 352.895 287.58C352.895 287.58 353.727 281.687 350.723 280.136C347.72 278.585 345.32 282.307 344.52 283.858C334.594 303.089 316.995 306.087 280.003 309.293C233.476 313.325 220.965 299.884 219.828 282.928C219.828 273.312 248.365 276.724 256.119 267.729C263.873 258.734 275.04 235.16 294.581 233.609C302.197 233.609 313.812 235.16 319.085 239.193" stroke="white" stroke-width="3" stroke-linecap="round"/>
</g>
<g filter="url(#filter6_d_102_98)">
<path d="M256.119 296.578C276.281 293.476 283.725 284.171 300.475 278.278C317.224 272.384 345.451 278.909 349.483 271.768C353.515 264.626 342.039 262.765 338.627 258.733C335.215 254.701 334.904 248.187 328.701 242.912C320.946 237.64 321.877 257.181 315.363 263.384C308.849 269.588 287.447 270.217 276.591 283.861" stroke="white" stroke-width="5" stroke-linecap="round"/>
</g>
<g filter="url(#filter7_f_102_98)">
<path d="M256.119 296.578C276.281 293.476 283.725 284.171 300.475 278.278C317.224 272.384 345.451 278.909 349.483 271.768C353.515 264.626 342.039 262.765 338.627 258.733C335.215 254.701 334.904 248.187 328.701 242.912C320.946 237.64 321.877 257.181 315.363 263.384C308.849 269.588 287.447 270.217 276.591 283.861" stroke="white" stroke-width="3" stroke-linecap="round"/>
</g>
<g filter="url(#filter8_d_102_98)">
<path d="M287.514 247.953C284.798 249.414 283.167 251.466 283.455 253.49C283.915 256.73 289.113 258.67 295.065 257.825C301.017 256.979 305.469 253.667 305.009 250.428C304.621 247.696 300.862 245.887 296.122 245.896" stroke="white" stroke-width="5" stroke-linecap="round"/>
</g>
<g filter="url(#filter9_f_102_98)">
<path d="M287.514 247.953C284.798 249.414 283.167 251.466 283.455 253.49C283.915 256.73 289.113 258.67 295.065 257.825C301.017 256.979 305.469 253.667 305.009 250.428C304.621 247.696 300.862 245.887 296.122 245.896" stroke="white" stroke-width="3" stroke-linecap="round"/>
</g>
<defs>
<filter id="filter0_d_102_98" x="22.3066" y="24.1328" width="400.387" height="449.178" filterUnits="userSpaceOnUse" color-interpolation-filters="sRGB">
<feFlood flood-opacity="0" result="BackgroundImageFix"/>
<feColorMatrix in="SourceAlpha" type="matrix" values="0 0 0 0 0 0 0 0 0 0 0 0 0 0 0 0 0 0 127 0" result="hardAlpha"/>
<feOffset/>
<feGaussianBlur stdDeviation="11"/>
<feComposite in2="hardAlpha" operator="out"/>
<feColorMatrix type="matrix" values="0 0 0 0 0.0745098 0 0 0 0 0.776471 0 0 0 0 0.929412 0 0 0 0.94 0"/>
<feBlend mode="normal" in2="BackgroundImageFix" result="effect1_dropShadow_102_98"/>
<feBlend mode="normal" in="SourceGraphic" in2="effect1_dropShadow_102_98" result="shape"/>
</filter>
<filter id="filter1_f_102_98" x="43.3066" y="45.1328" width="358.387" height="407.178" filterUnits="userSpaceOnUse" color-interpolation-filters="sRGB">
<feFlood flood-opacity="0" result="BackgroundImageFix"/>
<feBlend mode="normal" in="SourceGraphic" in2="BackgroundImageFix" result="shape"/>
<feGaussianBlur stdDeviation="1" result="effect1_foregroundBlur_102_98"/>
</filter>
<filter id="filter2_d_102_98" x="79.8926" y="153.873" width="222.14" height="194.109" filterUnits="userSpaceOnUse" color-interpolation-filters="sRGB">
<feFlood flood-opacity="0" result="BackgroundImageFix"/>
<feColorMatrix in="SourceAlpha" type="matrix" values="0 0 0 0 0 0 0 0 0 0 0 0 0 0 0 0 0 0 127 0" result="hardAlpha"/>
<feOffset/>
<feGaussianBlur stdDeviation="11"/>
<feComposite in2="hardAlpha" operator="out"/>
<feColorMatrix type="matrix" values="0 0 0 0 0.929167 0 0 0 0 0.843606 0 0 0 0 0.073559 0 0 0 0.94 0"/>
<feBlend mode="normal" in2="BackgroundImageFix" result="effect1_dropShadow_102_98"/>
<feBlend mode="normal" in="SourceGraphic" in2="effect1_dropShadow_102_98" result="shape"/>
</filter>
<filter id="filter3_f_102_98" x="100.893" y="174.875" width="180.136" height="152.107" filterUnits="userSpaceOnUse" color-interpolation-filters="sRGB">
<feFlood flood-opacity="0" result="BackgroundImageFix"/>
<feBlend mode="normal" in="SourceGraphic" in2="BackgroundImageFix" result="shape"/>
<feGaussianBlur stdDeviation="1" result="effect1_foregroundBlur_102_98"/>
</filter>
<filter id="filter4_d_102_98" x="205.328" y="219.109" width="162.172" height="122.166" filterUnits="userSpaceOnUse" color-interpolation-filters="sRGB">
<feFlood flood-opacity="0" result="BackgroundImageFix"/>
<feColorMatrix in="SourceAlpha" type="matrix" values="0 0 0 0 0 0 0 0 0 0 0 0 0 0 0 0 0 0 127 0" result="hardAlpha"/>
<feOffset/>
<feGaussianBlur stdDeviation="6"/>
<feComposite in2="hardAlpha" operator="out"/>
<feColorMatrix type="matrix" values="0 0 0 0 0.929412 0 0 0 0 0.0745098 0 0 0 0 0.12549 0 0 0 0.94 0"/>
<feBlend mode="normal" in2="BackgroundImageFix" result="effect1_dropShadow_102_98"/>
<feBlend mode="normal" in="SourceGraphic" in2="effect1_dropShadow_102_98" result="shape"/>
</filter>
<filter id="filter5_f_102_98" x="216.328" y="230.109" width="140.172" height="100.166" filterUnits="userSpaceOnUse" color-interpolation-filters="sRGB">
<feFlood flood-opacity="0" result="BackgroundImageFix"/>
<feBlend mode="normal" in="SourceGraphic" in2="BackgroundImageFix" result="shape"/>
<feGaussianBlur stdDeviation="1" result="effect1_foregroundBlur_102_98"/>
</filter>
<filter id="filter6_d_102_98" x="231.619" y="217.52" width="143.212" height="103.559" filterUnits="userSpaceOnUse" color-interpolation-filters="sRGB">
<feFlood flood-opacity="0" result="BackgroundImageFix"/>
<feColorMatrix in="SourceAlpha" type="matrix" values="0 0 0 0 0 0 0 0 0 0 0 0 0 0 0 0 0 0 127 0" result="hardAlpha"/>
<feOffset/>
<feGaussianBlur stdDeviation="11"/>
<feComposite in2="hardAlpha" operator="out"/>
<feColorMatrix type="matrix" values="0 0 0 0 1 0 0 0 0 1 0 0 0 0 1 0 0 0 0.73 0"/>
<feBlend mode="normal" in2="BackgroundImageFix" result="effect1_dropShadow_102_98"/>
<feBlend mode="normal" in="SourceGraphic" in2="effect1_dropShadow_102_98" result="shape"/>
</filter>
<filter id="filter7_f_102_98" x="252.619" y="238.52" width="101.212" height="61.5586" filterUnits="userSpaceOnUse" color-interpolation-filters="sRGB">
<feFlood flood-opacity="0" result="BackgroundImageFix"/>
<feBlend mode="normal" in="SourceGraphic" in2="BackgroundImageFix" result="shape"/>
<feGaussianBlur stdDeviation="1" result="effect1_foregroundBlur_102_98"/>
</filter>
<filter id="filter8_d_102_98" x="258.919" y="221.396" width="70.625" height="61.127" filterUnits="userSpaceOnUse" color-interpolation-filters="sRGB">
<feFlood flood-opacity="0" result="BackgroundImageFix"/>
<feColorMatrix in="SourceAlpha" type="matrix" values="0 0 0 0 0 0 0 0 0 0 0 0 0 0 0 0 0 0 127 0" result="hardAlpha"/>
<feOffset/>
<feGaussianBlur stdDeviation="11"/>
<feComposite in2="hardAlpha" operator="out"/>
<feColorMatrix type="matrix" values="0 0 0 0 1 0 0 0 0 1 0 0 0 0 1 0 0 0 0.73 0"/>
<feBlend mode="normal" in2="BackgroundImageFix" result="effect1_dropShadow_102_98"/>
<feBlend mode="normal" in="SourceGraphic" in2="effect1_dropShadow_102_98" result="shape"/>
</filter>
<filter id="filter9_f_102_98" x="279.92" y="242.396" width="28.623" height="19.127" filterUnits="userSpaceOnUse" color-interpolation-filters="sRGB">
<feFlood flood-opacity="0" result="BackgroundImageFix"/>
<feBlend mode="normal" in="SourceGraphic" in2="BackgroundImageFix" result="shape"/>
<feGaussianBlur stdDeviation="1" result="effect1_foregroundBlur_102_98"/>
</filter>
</defs>
</svg>
