<svg width="128" height="128" viewBox="0 0 29 27" fill="none" xmlns="http://www.w3.org/2000/svg">
<path d="M26.8264 2.20032H2.17363V24.7528H26.8264V2.20032Z" fill="#B7A38E"/>
<path d="M6.51851 20.9945H2.17363V22.5082H6.51851V20.9945Z" fill="#6A5C52"/>
<path d="M26.8264 20.9945H22.4815V22.5082H26.8264V20.9945Z" fill="#6A5C52"/>
<path d="M22.4815 23.2417H6.51851V24.7554H22.4815V23.2417Z" fill="#6A5C52"/>
<path d="M20.3079 2.20032H8.68976V4.40068H20.3079V2.20032Z" fill="#312A1D"/>
<path d="M24.6527 8.98359H26.8264V2.20036V0H24.6527H20.3079V2.20036H24.6527V8.98359Z" fill="#312A1D"/>
<path d="M29 8.98364H26.8264V22.5058H29V8.98364Z" fill="#312A1D"/>
<path d="M4.34488 2.20036H8.68976V0H4.34488H2.17363V2.20036V8.98359H4.34488V2.20036Z" fill="#312A1D"/>
<path d="M4.34488 22.5082H2.17363V24.7528H4.34488H6.51851V22.5082H4.34488Z" fill="#312A1D"/>
<path d="M22.4815 24.7529H6.51851V27.0001H22.4815V24.7529Z" fill="#312A1D"/>
<path d="M22.4815 22.5082V24.7528H24.6527H26.8264V22.5082H24.6527H22.4815Z" fill="#312A1D"/>
<path d="M2.17363 8.98364H0V22.5058H2.17363V8.98364Z" fill="#312A1D"/>
<path d="M22.4815 2.98059H21.772V4.4918H22.4815V5.22526H23.9433V4.4918V2.98059H22.4815Z" fill="#6A5C52"/>
<path d="M7.27321 2.98059H6.56374H5.09958V4.4918V5.22526H6.56374V4.4918H7.27321V2.98059Z" fill="#6A5C52"/>
<path d="M10.9062 12.7444H8.68976V15.0358H10.9062V12.7444Z" fill="#312A1D"/>
<path d="M13.037 14.989H11.5729V16.5027H13.037V14.989Z" fill="#312A1D"/>
<path d="M17.4271 14.989H15.963V16.5027H17.4271V14.989Z" fill="#312A1D"/>
<path d="M17.4248 19.4833H15.963V18.7474H13.037V19.4833H11.5729V16.5027H10.1087V21.7279H11.5729V22.5082H13.037V23.2416H13.7465V23.9751H15.2083V23.2416H15.963V22.5082H17.4248V21.7279H18.8889V16.5027H17.4248V19.4833Z" fill="#312A1D"/>
<path d="M20.3079 12.7444H18.0914V15.0358H20.3079V12.7444Z" fill="#312A1D"/>
</svg>