<svg xmlns="http://www.w3.org/2000/svg" fill="none" viewBox="0.92 0 46 46"><path d="M23.9194 0C11.2196 0 0.919434 10.3002 0.919434 23C0.919434 35.6998 11.2196 46 23.9194 46C36.6192 46 46.9194 35.6998 46.9194 23C46.9194 10.3002 36.6192 0 23.9194 0ZM21.1974 10.9167C18.2382 11.979 17.7071 13.2214 17.7071 15.3649C17.7071 15.7443 17.7355 16.2186 17.764 16.7212C17.7924 17.2049 17.8209 17.6981 17.8209 18.0775C17.8209 20.3633 16.7965 21.6722 14.3875 22.4689L12.8036 22.9905L14.3875 23.5122C16.7871 24.2994 17.8209 25.6177 17.8209 27.9035C17.8209 28.2734 17.7924 28.7761 17.764 29.2598C17.7355 29.7625 17.7071 30.2367 17.7071 30.6161C17.7071 32.7691 18.2382 34.0115 21.1974 35.0643V38.0235C14.9945 36.8095 13.7236 34.5901 13.7236 31.4223C13.7236 31.1662 13.752 30.7204 13.771 30.2557C13.7994 29.753 13.8279 29.2219 13.8279 28.8899C13.8279 25.8169 12.5001 24.5555 9.24686 24.5555H8.84851V21.4066H9.24686C12.5001 21.4066 13.8279 20.1546 13.8279 17.0722C13.8279 16.7402 13.7994 16.2091 13.771 15.7064C13.7425 15.2511 13.7236 14.8054 13.7236 14.5398C13.7236 11.3814 14.9945 9.16206 21.1974 7.94804V10.9167ZM23.9194 29.9901C22.8667 29.9901 22.013 29.1365 22.013 28.0837C22.013 27.0309 22.8667 26.1773 23.9194 26.1773C24.9722 26.1773 25.8258 27.0309 25.8258 28.0837C25.8258 29.1365 24.9722 29.9901 23.9194 29.9901ZM23.9194 19.8227C22.8667 19.8227 22.013 18.9691 22.013 17.9163C22.013 16.8635 22.8667 16.0099 23.9194 16.0099C24.9722 16.0099 25.8258 16.8635 25.8258 17.9163C25.8258 18.9691 24.9722 19.8227 23.9194 19.8227ZM38.9904 24.5744H38.592C35.3388 24.5744 34.011 25.8264 34.011 28.9089C34.011 29.2408 34.0394 29.772 34.0679 30.2746C34.0963 30.7299 34.1153 31.1757 34.1153 31.4412C34.1153 34.5996 32.8444 36.8285 26.6415 38.0425V35.0833C29.6007 34.021 30.1318 32.7786 30.1318 30.6351C30.1318 30.2557 30.1034 29.7814 30.0749 29.2788C30.0464 28.7951 30.018 28.2924 30.018 27.9225C30.018 25.6367 31.0423 24.3278 33.4514 23.5311L35.0353 23.0095L33.4514 22.4878C31.0518 21.6911 30.018 20.3823 30.018 18.0965C30.018 17.7266 30.0464 17.2239 30.0749 16.7402C30.1034 16.2375 30.1318 15.7633 30.1318 15.3839C30.1318 13.2309 29.6007 11.9885 26.6415 10.9357V7.96701C32.8444 9.18103 34.1153 11.4004 34.1153 14.5588C34.1153 14.8148 34.0869 15.2606 34.0679 15.7254C34.0394 16.228 34.011 16.7592 34.011 17.0911C34.011 20.1641 35.3388 21.4256 38.592 21.4256H38.9904V24.5744Z" fill="url(#paint0_linear_121_21)"/><defs><linearGradient id="paint0_linear_121_21" x1="0.919434" y1="25.5556" x2="46.4015" y2="25.5736" gradientUnits="userSpaceOnUse"><stop stop-color="#2C82FF"/><stop offset="1" stop-color="#12C6E3"/></linearGradient></defs></svg>